<svg width="24" height="24" viewBox="0 0 24 24" fill="none" xmlns="http://www.w3.org/2000/svg">
<path fill-rule="evenodd" clip-rule="evenodd" d="M8.4 1.25H8.367H8.36699C7.27485 1.24999 6.40935 1.24999 5.71173 1.30699C4.99835 1.36527 4.39472 1.48688 3.84355 1.76772C2.94978 2.22312 2.22312 2.94978 1.76772 3.84355C1.48688 4.39472 1.36527 4.99835 1.30699 5.71173C1.24999 6.40935 1.25 7.27483 1.25 8.36696V8.367V8.4V9.5V10C1.25 10.4142 1.58579 10.75 2 10.75C2.41421 10.75 2.75 10.4142 2.75 10V9.5V8.4C2.75 7.26752 2.75058 6.46327 2.80201 5.83388C2.85271 5.21325 2.94909 4.829 3.10423 4.52453C3.41582 3.913 3.91301 3.41582 4.52453 3.10423C4.829 2.94909 5.21325 2.85271 5.83388 2.80201C6.46327 2.75058 7.26752 2.75 8.4 2.75H9.6C10.7325 2.75 11.5367 2.75058 12.1661 2.80201C12.7867 2.85271 13.171 2.94909 13.4755 3.10423C14.087 3.41582 14.5842 3.913 14.8958 4.52453C15.0509 4.829 15.1473 5.21325 15.198 5.83388C15.2494 6.46327 15.25 7.26752 15.25 8.4V15.6C15.25 16.7325 15.2494 17.5367 15.198 18.1661C15.1473 18.7867 15.0509 19.171 14.8958 19.4755C14.5842 20.087 14.087 20.5842 13.4755 20.8958C13.171 21.0509 12.7867 21.1473 12.1661 21.198C11.5367 21.2494 10.7325 21.25 9.6 21.25H8.4C7.26752 21.25 6.46327 21.2494 5.83388 21.198C5.21326 21.1473 4.829 21.0509 4.52453 20.8958C3.91301 20.5842 3.41582 20.087 3.10423 19.4755C2.94909 19.171 2.85271 18.7867 2.80201 18.1661C2.75058 17.5367 2.75 16.7325 2.75 15.6V14.5V14C2.75 13.5858 2.41421 13.25 2 13.25C1.58579 13.25 1.25 13.5858 1.25 14V14.5V15.6V15.633V15.633C1.25 16.7252 1.24999 17.5907 1.30699 18.2883C1.36527 19.0017 1.48688 19.6053 1.76772 20.1565C2.22312 21.0502 2.94978 21.7769 3.84355 22.2323C4.39472 22.5131 4.99835 22.6347 5.71174 22.693C6.40935 22.75 7.27485 22.75 8.36698 22.75H8.4H9.6H9.63302C10.7252 22.75 11.5906 22.75 12.2883 22.693C13.0017 22.6347 13.6053 22.5131 14.1565 22.2323C15.0502 21.7769 15.7769 21.0502 16.2323 20.1565C16.5131 19.6053 16.6347 19.0017 16.693 18.2883C16.75 17.5907 16.75 16.7252 16.75 15.6331V15.6331V15.6331V15.633V15.633V15.633V15.6V8.4V8.36698V8.36697V8.36695V8.36694V8.36693V8.36691C16.75 7.27481 16.75 6.40934 16.693 5.71173C16.6347 4.99835 16.5131 4.39472 16.2323 3.84355C15.7769 2.94978 15.0502 2.22312 14.1565 1.76772C13.6053 1.48688 13.0017 1.36527 12.2883 1.30699C11.5906 1.24999 10.7252 1.24999 9.63302 1.25H9.633H9.6H8.4ZM6 6.25C5.58579 6.25 5.25 6.58579 5.25 7C5.25 7.41421 5.58579 7.75 6 7.75H12C12.4142 7.75 12.75 7.41421 12.75 7C12.75 6.58579 12.4142 6.25 12 6.25H6ZM5.25 11C5.25 10.5858 5.58579 10.25 6 10.25H12C12.4142 10.25 12.75 10.5858 12.75 11C12.75 11.4142 12.4142 11.75 12 11.75H6C5.58579 11.75 5.25 11.4142 5.25 11ZM6 14.25C5.58579 14.25 5.25 14.5858 5.25 15C5.25 15.4142 5.58579 15.75 6 15.75H8C8.41421 15.75 8.75 15.4142 8.75 15C8.75 14.5858 8.41421 14.25 8 14.25H6ZM19 5.25C19.4142 5.25 19.75 5.58579 19.75 6V18C19.75 18.4142 19.4142 18.75 19 18.75C18.5858 18.75 18.25 18.4142 18.25 18V6C18.25 5.58579 18.5858 5.25 19 5.25ZM22.75 8C22.75 7.58579 22.4142 7.25 22 7.25C21.5858 7.25 21.25 7.58579 21.25 8V16C21.25 16.4142 21.5858 16.75 22 16.75C22.4142 16.75 22.75 16.4142 22.75 16V8Z" fill="#22272F"/>
</svg>
