<svg width="24" height="24" viewBox="0 0 24 24" fill="none" xmlns="http://www.w3.org/2000/svg">
<path opacity="0.12" d="M10.3029 14.3029L9.09706 13.0971C7.81193 11.8119 7.16936 11.1694 7.12594 10.6177C7.08827 10.139 7.28203 9.67123 7.64715 9.35939C8.06794 9 8.97667 9 10.7941 9H13.2059C15.0233 9 15.9321 9 16.3529 9.35939C16.718 9.67123 16.9117 10.139 16.8741 10.6177C16.8306 11.1694 16.1881 11.8119 14.9029 13.0971L13.6971 14.3029L13.6971 14.3029C13.103 14.897 12.806 15.194 12.4635 15.3053C12.1623 15.4032 11.8377 15.4032 11.5365 15.3053C11.194 15.194 10.897 14.897 10.3029 14.3029Z" fill="#22272F"/>
<path fill-rule="evenodd" clip-rule="evenodd" d="M10.7558 8.25L10.7941 8.25H13.2059L13.2442 8.25C14.1204 8.24999 14.8291 8.24998 15.3693 8.29785C15.8927 8.34423 16.4369 8.44489 16.8399 8.78909C17.3876 9.25684 17.6782 9.95852 17.6217 10.6765C17.5801 11.2049 17.2665 11.6609 16.9292 12.0638C16.581 12.4796 16.0799 12.9807 15.4603 13.6003L15.4332 13.6274L14.2274 14.8333L14.2069 14.8537C13.9274 15.1333 13.6862 15.3745 13.4713 15.5569C13.2445 15.7494 12.9982 15.9201 12.6953 16.0186C12.2434 16.1654 11.7566 16.1654 11.3047 16.0186C11.0018 15.9201 10.7554 15.7494 10.5286 15.5569C10.3137 15.3745 10.0726 15.1333 9.79303 14.8537L9.77258 14.8333L8.5667 13.6274L8.53961 13.6003C7.92003 12.9807 7.41889 12.4796 7.07076 12.0638C6.73346 11.6609 6.41981 11.2049 6.37823 10.6765C6.32172 9.95852 6.61236 9.25684 7.16003 8.78909C7.56304 8.44489 8.10726 8.34423 8.63065 8.29785C9.17086 8.24998 9.87955 8.24999 10.7558 8.25ZM8.76305 9.792C8.27252 9.83547 8.15199 9.91451 8.1342 9.9297C7.95165 10.0856 7.85476 10.3195 7.8736 10.5588C7.87544 10.5822 7.90478 10.7233 8.2209 11.1009C8.52112 11.4595 8.9743 11.9137 9.62736 12.5667L10.8332 13.7726C11.139 14.0784 11.3368 14.2754 11.4994 14.4134C11.6552 14.5457 11.7286 14.5791 11.7682 14.592C11.9188 14.6409 12.0811 14.6409 12.2317 14.592C12.2713 14.5791 12.3447 14.5457 12.5006 14.4134C12.6631 14.2754 12.8609 14.0784 13.1667 13.7726L14.3726 12.5667C15.0256 11.9137 15.4788 11.4595 15.779 11.1009C16.0952 10.7233 16.1245 10.5822 16.1263 10.5588C16.1452 10.3195 16.0483 10.0856 15.8657 9.9297C15.8479 9.91451 15.7274 9.83547 15.2369 9.792C14.771 9.75072 14.1294 9.75 13.2059 9.75H10.7941C9.87052 9.75 9.22892 9.75072 8.76305 9.792Z" fill="#22272F"/>
</svg>
