<svg width="24" height="24" viewBox="0 0 24 24" fill="none" xmlns="http://www.w3.org/2000/svg">
<path fill-rule="evenodd" clip-rule="evenodd" d="M6.75 8C6.75 5.10051 9.1005 2.75 12 2.75C12.4142 2.75 12.75 2.41422 12.75 2C12.75 1.58579 12.4142 1.25 12 1.25C8.27208 1.25 5.25 4.27208 5.25 8C5.25 11.7279 8.27208 14.75 12 14.75C12.3736 14.75 12.7401 14.7197 13.0971 14.6613C13.1969 15.07 13.25 15.498 13.25 15.9394C13.25 18.8795 10.8924 21.25 8 21.25C5.10759 21.25 2.75 18.8795 2.75 15.9394C2.75 14.6188 3.22551 13.4133 4.01238 12.4849C4.2802 12.1689 4.24115 11.6957 3.92516 11.4279C3.60917 11.16 3.13591 11.1991 2.86809 11.5151C1.85915 12.7055 1.25 14.252 1.25 15.9394C1.25 19.6937 4.26499 22.75 8 22.75C11.735 22.75 14.75 19.6937 14.75 15.9394C14.75 15.3589 14.6778 14.7944 14.5418 14.2551C16.0477 13.6425 17.2826 12.5019 18.0165 11.0632C19.9225 11.8803 21.25 13.7592 21.25 15.9394C21.25 18.8666 18.8557 21.2501 15.8891 21.2501C15.6232 21.2501 15.3621 21.2309 15.1073 21.1941C14.6974 21.1348 14.317 21.4191 14.2577 21.8291C14.1984 22.239 14.4827 22.6194 14.8927 22.6786C15.2184 22.7257 15.5511 22.7501 15.8891 22.7501C19.6724 22.7501 22.75 19.7067 22.75 15.9394C22.75 13.1087 21.0116 10.687 18.5449 9.65804C18.6788 9.12757 18.75 8.5721 18.75 8C18.75 6.00081 17.8799 4.20384 16.5002 2.96894C16.1915 2.69269 15.7174 2.71896 15.4411 3.0276C15.1649 3.33625 15.1912 3.8104 15.4998 4.08664C16.5751 5.04902 17.25 6.4452 17.25 8C17.25 10.8995 14.8995 13.25 12 13.25C9.1005 13.25 6.75 10.8995 6.75 8Z" fill="#22272F"/>
</svg>
