<svg width="24" height="24" viewBox="0 0 24 24" fill="none" xmlns="http://www.w3.org/2000/svg">
<path fill-rule="evenodd" clip-rule="evenodd" d="M4.00012 1.25C4.41434 1.25 4.75012 1.58579 4.75012 2V7.28741C4.75012 7.96025 4.75776 8.14041 4.80406 8.29286C4.85181 8.4501 4.9301 8.59638 5.03444 8.72333C5.13561 8.84642 5.28127 8.95271 5.84111 9.32594L6.25012 9.59861V2C6.25012 1.58579 6.58591 1.25 7.00012 1.25C7.41434 1.25 7.75012 1.58579 7.75012 2V11V22C7.75012 22.4142 7.41434 22.75 7.00012 22.75C6.58591 22.75 6.25012 22.4142 6.25012 22V11.4014L5.00906 10.574L4.93101 10.522C4.48623 10.226 4.13654 9.99322 3.87562 9.67577C3.64607 9.39648 3.47384 9.07466 3.36879 8.72874C3.24938 8.33556 3.24969 7.91548 3.25008 7.38118L3.25012 7.28741V2C3.25012 1.58579 3.58591 1.25 4.00012 1.25ZM10.0001 1.25C10.4143 1.25 10.7501 1.58579 10.7501 2V9C10.7501 9.41421 10.4143 9.75 10.0001 9.75C9.58591 9.75 9.25012 9.41421 9.25012 9V2C9.25012 1.58579 9.58591 1.25 10.0001 1.25ZM17.0001 1.25C17.4143 1.25 17.7501 1.58579 17.7501 2V14C17.7501 14.4142 17.4143 14.75 17.0001 14.75C16.4324 14.75 15.745 15.0679 15.18 15.6802C14.6243 16.2824 14.2501 17.1058 14.2501 18C14.2501 18.8942 14.6243 19.7176 15.18 20.3198C15.745 20.9321 16.4324 21.25 17.0001 21.25C17.5678 21.25 18.2553 20.9321 18.8202 20.3198C19.3759 19.7176 19.7501 18.8942 19.7501 18C19.7501 17.7202 19.7137 17.4479 19.6465 17.187C19.5719 16.8973 19.4592 16.6213 19.3165 16.3653C19.1147 16.0036 19.2444 15.5468 19.6062 15.345C19.9679 15.1432 20.4247 15.2729 20.6265 15.6347C20.829 15.9978 20.991 16.3932 21.0991 16.813C21.1965 17.1913 21.2501 17.5892 21.2501 18C21.2501 19.3149 20.7027 20.4916 19.9227 21.337C19.1518 22.1725 18.0893 22.75 17.0001 22.75C15.911 22.75 14.8484 22.1725 14.0776 21.337C13.2975 20.4916 12.7501 19.3149 12.7501 18C12.7501 16.6851 13.2975 15.5084 14.0776 14.663C14.6697 14.0212 15.4339 13.5317 16.2501 13.3392V2C16.2501 1.58579 16.5859 1.25 17.0001 1.25Z" fill="#22272F"/>
</svg>
