<svg width="24" height="24" viewBox="0 0 24 24" fill="none" xmlns="http://www.w3.org/2000/svg">
<path fill-rule="evenodd" clip-rule="evenodd" d="M4.95034 6.011C3.72972 7.44638 2.9397 9.25928 2.77997 11.25H4C4.41421 11.25 4.75 11.5858 4.75 12C4.75 12.4142 4.41421 12.75 4 12.75H2.77997C3.16173 17.5079 7.14386 21.25 12 21.25C14.7934 21.25 17.2976 20.0118 18.9936 18.0543L18.2374 17.2981C17.2807 16.3413 15.9948 15.7892 14.6459 15.752C14.3188 16.9052 13.258 17.75 12 17.75C10.7412 17.75 9.67998 16.9043 9.35352 15.75H7C6.58579 15.75 6.25 15.4142 6.25 15C6.25 14.5858 6.58579 14.25 7 14.25H9.35352C9.61255 13.3342 10.3342 12.6125 11.25 12.3535V9C11.25 8.58579 11.5858 8.25 12 8.25C12.4142 8.25 12.75 8.58579 12.75 9V12.3535C13.6664 12.6127 14.3883 13.335 14.6469 14.2516C16.3934 14.2894 18.0602 14.9996 19.2981 16.2374L19.8905 16.8298C20.6298 15.6246 21.1007 14.2369 21.22 12.75H20C19.5858 12.75 19.25 12.4142 19.25 12C19.25 11.5858 19.5858 11.25 20 11.25H21.22C21.0603 9.25966 20.2706 7.44665 19.0498 6.01102L18.5302 6.53043C18.2373 6.82327 17.7624 6.82318 17.4696 6.53023C17.1767 6.23729 17.1768 5.76241 17.4698 5.46957L17.9892 4.95032C17.3048 4.36826 16.5344 3.88405 15.6997 3.51935C15.3202 3.35351 15.1469 2.91137 15.3127 2.53181C15.4786 2.15224 15.9207 1.97898 16.3003 2.14482C20.0954 3.80298 22.75 7.59065 22.75 12C22.75 17.9371 17.9371 22.75 12 22.75C6.06294 22.75 1.25 17.9371 1.25 12C1.25 6.06294 6.06294 1.25 12 1.25C12.4142 1.25 12.75 1.58579 12.75 2V4C12.75 4.41421 12.4142 4.75 12 4.75C11.5858 4.75 11.25 4.41421 11.25 4V2.77997C9.25928 2.9397 7.44638 3.72972 6.011 4.95034L6.53033 5.46967C6.82322 5.76256 6.82322 6.23744 6.53033 6.53033C6.23744 6.82322 5.76256 6.82322 5.46967 6.53033L4.95034 6.011ZM12 13.75C11.3096 13.75 10.75 14.3096 10.75 15C10.75 15.6904 11.3096 16.25 12 16.25C12.6904 16.25 13.25 15.6904 13.25 15C13.25 14.3096 12.6904 13.75 12 13.75Z" fill="#22272F"/>
</svg>
