<svg width="24" height="24" viewBox="0 0 24 24" fill="none" xmlns="http://www.w3.org/2000/svg">
<path fill-rule="evenodd" clip-rule="evenodd" d="M17.4451 3.70835C17.7948 3.53504 18.2054 3.53504 18.5552 3.70836C18.7112 3.78567 18.8817 3.94222 19.4698 4.53028C20.0578 5.11832 20.2143 5.28888 20.2916 5.44488C20.4649 5.79461 20.4649 6.20522 20.2916 6.55494C20.2143 6.71094 20.0578 6.8815 19.4697 7.46953L18.7028 8.23651C17.1451 8.09528 15.9047 6.85494 15.7634 5.29727L16.5305 4.53024C17.1185 3.9422 17.2891 3.78566 17.4451 3.70835ZM14.5092 6.55149L6.90057 14.16C6.37301 14.6876 6.17478 14.8896 6.0191 15.1128C5.87317 15.3221 5.75239 15.5478 5.65924 15.7852C5.55986 16.0386 5.50174 16.3156 5.35542 17.0472L4.95608 19.0439L6.95279 18.6445C7.68437 18.4982 7.96136 18.4401 8.21471 18.3407C8.45219 18.2476 8.67788 18.1268 8.88711 17.9808C9.11033 17.8252 9.31234 17.6269 9.83989 17.0994L12.4697 14.4696C12.7626 14.1767 13.2374 14.1767 13.5303 14.4696C13.8232 14.7625 13.8232 15.2374 13.5303 15.5303L10.9005 18.16L10.8523 18.2083C10.3891 18.6716 10.0904 18.9704 9.74518 19.2112C9.43937 19.4244 9.10952 19.601 8.76244 19.7371C8.37064 19.8908 7.95635 19.9736 7.31386 20.102L7.31383 20.102L7.24696 20.1154L4.1471 20.7354C3.9012 20.7845 3.647 20.7076 3.46968 20.5303C3.29236 20.3529 3.2154 20.0987 3.26458 19.8528L3.88455 16.753L3.89791 16.6861C4.02633 16.0436 4.10913 15.6293 4.26282 15.2375C4.39896 14.8904 4.57549 14.5606 4.78877 14.2548C5.02953 13.9095 5.32831 13.6108 5.79168 13.1476L5.83991 13.0994L15.4698 3.46958L15.5556 3.38365C16.0157 2.92284 16.3719 2.56611 16.7791 2.36433C17.5485 1.98304 18.4518 1.98305 19.2212 2.36435C19.6284 2.56615 19.9846 2.92288 20.4446 3.38371L20.5304 3.46963L20.6164 3.55545C21.0772 4.01551 21.4339 4.37166 21.6357 4.77885C22.0169 5.54826 22.0169 6.4516 21.6356 7.22099C21.4339 7.62817 21.0771 7.98431 20.6163 8.44435L20.6163 8.44437L20.5304 8.53019L16.5303 12.5303C16.2374 12.8231 15.7626 12.8231 15.4697 12.5303C15.1768 12.2374 15.1768 11.7625 15.4697 11.4696L17.4485 9.49077C16.0732 9.01572 14.9843 7.92675 14.5092 6.55149Z" fill="#22272F"/>
</svg>
