<svg width="24" height="24" viewBox="0 0 24 24" fill="none" xmlns="http://www.w3.org/2000/svg">
<path fill-rule="evenodd" clip-rule="evenodd" d="M2.75 12C2.75 6.89137 6.89137 2.75 12 2.75C13.3169 2.75 14.5677 3.02475 15.6997 3.51935C16.0793 3.68519 16.5214 3.51193 16.6873 3.13237C16.8531 2.7528 16.6798 2.31066 16.3003 2.14482C14.9824 1.56904 13.5275 1.25 12 1.25C6.06294 1.25 1.25 6.06294 1.25 12C1.25 17.9371 6.06294 22.75 12 22.75C17.9371 22.75 22.75 17.9371 22.75 12C22.75 9.58034 21.9497 7.34544 20.5996 5.54852C20.3508 5.21736 19.8807 5.1506 19.5495 5.3994C19.2183 5.64821 19.1516 6.11837 19.4004 6.44953C20.562 7.99559 21.25 9.91636 21.25 12C21.25 17.1086 17.1086 21.25 12 21.25C6.89137 21.25 2.75 17.1086 2.75 12ZM6.99999 12.25C6.7614 12.25 6.53704 12.3635 6.39571 12.5558C6.25439 12.748 6.21297 12.996 6.28414 13.2237L6.99999 13C6.28414 13.2237 6.28424 13.2241 6.28434 13.2244L6.28457 13.2251L6.28513 13.2269L6.28659 13.2315L6.29098 13.245C6.29456 13.2559 6.29945 13.2706 6.30569 13.2888C6.31818 13.3251 6.33612 13.3755 6.35983 13.438C6.40721 13.5628 6.47796 13.7367 6.57484 13.9433C6.76771 14.3548 7.06887 14.9063 7.5028 15.4617C8.37239 16.5748 9.81899 17.75 12 17.75C14.181 17.75 15.6276 16.5748 16.4972 15.4617C16.9311 14.9063 17.2323 14.3548 17.4251 13.9433C17.522 13.7367 17.5928 13.5628 17.6402 13.438C17.6639 13.3755 17.6818 13.3251 17.6943 13.2888L17.7064 13.2528L17.709 13.245L17.7134 13.2315L17.7149 13.2269L17.7154 13.2251L17.7156 13.2244C17.7157 13.2241 17.7158 13.2237 17 13L17.7158 13.2237C17.787 12.996 17.7456 12.748 17.6043 12.5558C17.4629 12.3635 17.2386 12.25 17 12.25H6.99999ZM8.68483 14.5383C8.47404 14.2685 8.30066 13.9972 8.16144 13.75H15.8385C15.6993 13.9972 15.5259 14.2685 15.3152 14.5383C14.6222 15.4252 13.5688 16.25 12 16.25C10.4312 16.25 9.37779 15.4252 8.68483 14.5383ZM9.99999 9C9.99999 9.55229 9.55228 10 8.99999 10C8.44771 10 7.99999 9.55229 7.99999 9C7.99999 8.44772 8.44771 8 8.99999 8C9.55228 8 9.99999 8.44772 9.99999 9ZM15 10C15.5523 10 16 9.55229 16 9C16 8.44772 15.5523 8 15 8C14.4477 8 14 8.44772 14 9C14 9.55229 14.4477 10 15 10Z" fill="#22272F"/>
</svg>
