<svg width="24" height="24" viewBox="0 0 24 24" fill="none" xmlns="http://www.w3.org/2000/svg">
<path fill-rule="evenodd" clip-rule="evenodd" d="M8.71859 1.88631C9.73291 1.47573 10.841 1.25 12 1.25C16.8325 1.25 20.75 5.16751 20.75 10C20.75 10.4142 20.4142 10.75 20 10.75C19.5858 10.75 19.25 10.4142 19.25 10C19.25 5.99594 16.0041 2.75 12 2.75C11.0372 2.75 10.12 2.93729 9.28141 3.27672C8.89746 3.43214 8.46022 3.24688 8.3048 2.86293C8.14938 2.47898 8.33464 2.04173 8.71859 1.88631ZM6.22373 4.41481C6.54692 4.67389 6.59889 5.14591 6.33982 5.4691C5.34472 6.71044 4.75 8.28474 4.75 10V14C4.75 17.2117 6.83888 19.9375 9.73419 20.8891C10.1277 21.0185 10.3418 21.4423 10.2125 21.8358C10.0832 22.2293 9.65932 22.4435 9.26581 22.3141C5.77326 21.1662 3.25 17.8787 3.25 14V10C3.25 7.93147 3.96872 6.02875 5.16944 4.5309C5.42852 4.20771 5.90054 4.15574 6.22373 4.41481ZM20 13.25C20.4142 13.25 20.75 13.5858 20.75 14C20.75 17.8787 18.2267 21.1662 14.7342 22.3141C14.3407 22.4435 13.9168 22.2293 13.7875 21.8358C13.6582 21.4423 13.8723 21.0185 14.2658 20.8891C17.1611 19.9375 19.25 17.2117 19.25 14C19.25 13.5858 19.5858 13.25 20 13.25ZM12 9.25C12.4142 9.25 12.75 9.58579 12.75 10V14C12.75 14.4142 12.4142 14.75 12 14.75C11.5858 14.75 11.25 14.4142 11.25 14V10C11.25 9.58579 11.5858 9.25 12 9.25ZM12 5.25C9.37665 5.25 7.25 7.37665 7.25 10V14C7.25 14.4142 7.58579 14.75 8 14.75C8.41421 14.75 8.75 14.4142 8.75 14V10C8.75 8.20507 10.2051 6.75 12 6.75C12.4142 6.75 12.75 6.41421 12.75 6C12.75 5.58579 12.4142 5.25 12 5.25ZM16.1141 7.62446C15.9067 7.26591 15.4479 7.14339 15.0893 7.3508C14.7308 7.5582 14.6083 8.017 14.8157 8.37554C15.0918 8.85281 15.25 9.40679 15.25 10V14C15.25 15.7949 13.7949 17.25 12 17.25C11.4068 17.25 10.8528 17.0918 10.3755 16.8157C10.017 16.6083 9.5582 16.7308 9.3508 17.0893C9.14339 17.4479 9.26591 17.9067 9.62446 18.1141C10.3239 18.5187 11.1361 18.75 12 18.75C14.6234 18.75 16.75 16.6234 16.75 14V10C16.75 9.13606 16.5187 8.32388 16.1141 7.62446Z" fill="#22272F"/>
</svg>
