<svg width="24" height="24" viewBox="0 0 24 24" fill="none" xmlns="http://www.w3.org/2000/svg">
<path fill-rule="evenodd" clip-rule="evenodd" d="M7.76381 2.74976C8.1508 2.74976 8.28437 2.75093 8.40182 2.76438C9.06758 2.84064 9.66471 3.20968 10.0307 3.77106C10.0952 3.87009 10.156 3.98904 10.3291 4.33517L10.3487 4.37448C10.4947 4.66662 10.5952 4.86767 10.7125 5.0476C11.3224 5.98323 12.3176 6.59831 13.4272 6.7254C13.6406 6.74985 13.8654 6.74981 14.192 6.74977L14.2359 6.74976H15.9996C16.9781 6.74976 17.3202 6.75621 17.5824 6.82647C18.3587 7.03454 18.9651 7.64094 19.1732 8.41728C19.2214 8.59721 19.2396 8.81481 19.2462 9.25001H12.0661H12.037H12.037C11.3394 9.25 10.7739 9.25 10.3111 9.285C9.83252 9.32119 9.40962 9.39762 9.00636 9.57852C8.36085 9.8681 7.81042 10.3344 7.41866 10.9235C7.17392 11.2915 7.02901 11.6961 6.91463 12.1623C6.80403 12.613 6.71107 13.1708 6.59638 13.8589L6.59638 13.8589L6.5916 13.8876L5.3667 21.237C5.19256 21.2314 5.03513 21.2232 4.89056 21.2114C4.43668 21.1743 4.17592 21.1052 3.9784 21.0045C3.55504 20.7888 3.21083 20.4446 2.99511 20.0212C2.89447 19.8237 2.82534 19.563 2.78826 19.1091C2.75046 18.6465 2.74988 18.0522 2.74988 17.1998V13.5V13C2.74988 12.5858 2.41409 12.25 1.99988 12.25C1.58567 12.25 1.24988 12.5858 1.24988 13V13.5V17.1998V17.2319V17.2319C1.24987 18.0447 1.24987 18.7003 1.29324 19.2312C1.3379 19.7779 1.43226 20.258 1.6586 20.7022C2.01813 21.4078 2.59181 21.9815 3.29741 22.341C3.74163 22.5674 4.22177 22.6617 4.76841 22.7064C5.10599 22.734 5.49398 22.744 5.94075 22.7477C5.96034 22.7492 5.98007 22.75 5.99988 22.75H17.4516L17.5679 22.75C18.4069 22.7503 18.9822 22.7505 19.4893 22.6056C20.5249 22.3095 21.3832 21.5824 21.8455 20.6095C22.0719 20.1332 22.1663 19.5657 22.3039 18.7382L22.3039 18.7381L22.323 18.6233L22.4063 18.1233C22.4744 17.7147 22.1984 17.3283 21.7898 17.2602C21.3813 17.1921 20.9948 17.4681 20.9268 17.8767L20.8434 18.3767C20.679 19.3635 20.6149 19.7043 20.4907 19.9657C20.2133 20.5494 19.6983 20.9857 19.077 21.1633C18.7987 21.2429 18.452 21.25 17.4516 21.25H15.0192C15.0128 21.2498 15.0063 21.2498 14.9999 21.2498H6.88526L8.07119 14.1342C8.19179 13.4106 8.27591 12.9089 8.37141 12.5197C8.46466 12.1397 8.55689 11.9207 8.6677 11.7541C8.90276 11.4006 9.23301 11.1209 9.62032 10.9471C9.8029 10.8652 10.0341 10.8102 10.4242 10.7807C10.8238 10.7505 11.3325 10.75 12.0661 10.75H19.4516C20.0064 10.75 20.3821 10.7505 20.6706 10.7715C20.9539 10.7921 21.0861 10.8293 21.1674 10.8672C21.4984 11.0216 21.7453 11.3131 21.8432 11.6649C21.8673 11.7515 21.8822 11.8879 21.856 12.1708C21.8293 12.4588 21.768 12.8295 21.6768 13.3767L21.5934 13.8767C21.5253 14.2853 21.8013 14.6717 22.2099 14.7398C22.6185 14.8079 23.0049 14.5319 23.073 14.1233L23.1563 13.6233L23.1609 13.596C23.2464 13.083 23.3172 12.6582 23.3496 12.3093C23.383 11.9491 23.3832 11.6037 23.2883 11.2629C23.0729 10.4888 22.5298 9.84759 21.8016 9.50788C21.481 9.35831 21.1403 9.30169 20.7795 9.27543C20.7689 9.27466 20.7583 9.27392 20.7476 9.27319C20.7409 8.76953 20.7156 8.3781 20.622 8.02896C20.2752 6.73505 19.2646 5.72439 17.9707 5.3776C17.4919 5.24928 16.9336 5.24947 16.1155 5.24974L15.9996 5.24976H14.2359C13.849 5.24976 13.7154 5.2486 13.5979 5.23515C12.9322 5.15889 12.335 4.78985 11.9691 4.22847C11.9045 4.12944 11.8438 4.01049 11.6707 3.66435L11.651 3.62504C11.505 3.33291 11.4045 3.13185 11.2872 2.95192C10.6773 2.0163 9.68212 1.40122 8.57251 1.27412C8.35912 1.24968 8.13434 1.24971 7.80773 1.24976L7.76381 1.24976H6.79988L6.76777 1.24976C5.95494 1.24976 5.29932 1.24975 4.76841 1.29313C4.22177 1.33779 3.74163 1.43215 3.29741 1.65849C2.59181 2.01801 2.01813 2.59169 1.6586 3.2973C1.43226 3.74152 1.3379 4.22166 1.29324 4.7683C1.24987 5.2992 1.24987 5.9548 1.24988 6.76761V6.76766V6.79976V8.50001V9.00001C1.24988 9.41422 1.58567 9.75001 1.99988 9.75001C2.41409 9.75001 2.74988 9.41422 2.74988 9.00001V8.50001V6.79976C2.74988 5.94731 2.75046 5.35308 2.78826 4.89044C2.82534 4.43657 2.89447 4.1758 2.99511 3.97829C3.21083 3.55492 3.55504 3.21071 3.9784 2.995C4.17592 2.89436 4.43668 2.82523 4.89056 2.78815C5.35319 2.75035 5.94742 2.74976 6.79988 2.74976H7.76381Z" fill="#22272F"/>
</svg>
