<svg width="24" height="24" viewBox="0 0 24 24" fill="none" xmlns="http://www.w3.org/2000/svg">
<path fill-rule="evenodd" clip-rule="evenodd" d="M10.7454 3.08283C10.7912 2.67115 10.4945 2.30033 10.0828 2.25459C9.67114 2.20885 9.30033 2.5055 9.25459 2.91718L7.99538 14.2501H2C1.58579 14.2501 1.25 14.5859 1.25 15.0001C1.25 15.4143 1.58579 15.7501 2 15.7501H7.82871L7.25459 20.9172C7.20885 21.3289 7.5055 21.6997 7.91718 21.7454C8.32886 21.7912 8.69967 21.4945 8.74541 21.0828L9.33794 15.7501L13.8287 15.7501L13.2546 20.9172C13.2088 21.3289 13.5055 21.6997 13.9172 21.7454C14.3289 21.7912 14.6997 21.4945 14.7454 21.0828L15.3379 15.7501H20C20.4142 15.7501 20.75 15.4143 20.75 15.0001C20.75 14.5859 20.4142 14.2501 20 14.2501H15.5046L15.7454 12.0828C15.7912 11.6711 15.4945 11.3003 15.0828 11.2546C14.6711 11.2088 14.3003 11.5055 14.2546 11.9172L13.9954 14.2501L9.50461 14.2501L10.0046 9.75007H15.3316H15.3369H21C21.4142 9.75007 21.75 9.41428 21.75 9.00007C21.75 8.58585 21.4142 8.25007 21 8.25007H16.1713L16.2454 7.58283L16.7454 3.08283C16.7912 2.67115 16.4945 2.30033 16.0828 2.25459C15.6711 2.20885 15.3003 2.5055 15.2546 2.91718L14.7546 7.41718L14.662 8.25007H10.1713L10.7454 3.08283ZM2.25 9.00007C2.25 8.58585 2.58579 8.25007 3 8.25007H6C6.41421 8.25007 6.75 8.58585 6.75 9.00007C6.75 9.41428 6.41421 9.75007 6 9.75007H3C2.58579 9.75007 2.25 9.41428 2.25 9.00007Z" fill="#22272F"/>
</svg>
