<svg width="24" height="24" viewBox="0 0 24 24" fill="none" xmlns="http://www.w3.org/2000/svg">
<path fill-rule="evenodd" clip-rule="evenodd" d="M6.53033 2.53033C6.82322 2.23744 6.82322 1.76256 6.53033 1.46967C6.23744 1.17678 5.76256 1.17678 5.46967 1.46967L3 3.93934L2.53033 3.46967C2.23744 3.17678 1.76256 3.17678 1.46967 3.46967C1.17678 3.76256 1.17678 4.23744 1.46967 4.53033L2.46967 5.53033C2.76256 5.82322 3.23744 5.82322 3.53033 5.53033L6.53033 2.53033ZM10.25 4C10.25 3.58579 10.5858 3.25 11 3.25L16 3.25C16.4142 3.25 16.75 3.58579 16.75 4C16.75 4.41421 16.4142 4.75 16 4.75L11 4.75C10.5858 4.75 10.25 4.41421 10.25 4ZM19.25 4C19.25 3.58579 19.5858 3.25 20 3.25L22 3.25C22.4142 3.25 22.75 3.58579 22.75 4C22.75 4.41421 22.4142 4.75 22 4.75L20 4.75C19.5858 4.75 19.25 4.41421 19.25 4ZM10.25 12C10.25 11.5858 10.5858 11.25 11 11.25L13 11.25L17 11.25L22 11.25C22.4142 11.25 22.75 11.5858 22.75 12C22.75 12.4142 22.4142 12.75 22 12.75L17 12.75L16.9996 12.75L13.0007 12.75L13 12.75L11 12.75C10.5858 12.75 10.25 12.4142 10.25 12ZM10.25 20C10.25 19.5858 10.5858 19.25 11 19.25L16 19.25C16.4142 19.25 16.75 19.5858 16.75 20C16.75 20.4142 16.4142 20.75 16 20.75L11 20.75C10.5858 20.75 10.25 20.4142 10.25 20ZM19.25 20C19.25 19.5858 19.5858 19.25 20 19.25L22 19.25C22.4142 19.25 22.75 19.5858 22.75 20C22.75 20.4142 22.4142 20.75 22 20.75L20 20.75C19.5858 20.75 19.25 20.4142 19.25 20ZM6.53033 9.46967C6.82322 9.76256 6.82322 10.2374 6.53033 10.5303L3.53033 13.5303C3.23744 13.8232 2.76256 13.8232 2.46967 13.5303L1.46967 12.5303C1.17678 12.2374 1.17678 11.7626 1.46967 11.4697C1.76256 11.1768 2.23744 11.1768 2.53033 11.4697L3 11.9393L5.46967 9.46967C5.76256 9.17678 6.23744 9.17678 6.53033 9.46967ZM6.53033 18.5303C6.82322 18.2374 6.82322 17.7626 6.53033 17.4697C6.23744 17.1768 5.76256 17.1768 5.46967 17.4697L3 19.9393L2.53033 19.4697C2.23744 19.1768 1.76256 19.1768 1.46967 19.4697C1.17678 19.7626 1.17678 20.2374 1.46967 20.5303L2.46967 21.5303C2.76256 21.8232 3.23744 21.8232 3.53033 21.5303L6.53033 18.5303Z" fill="#22272F"/>
</svg>
