<svg width="24" height="24" viewBox="0 0 24 24" fill="none" xmlns="http://www.w3.org/2000/svg">
<path fill-rule="evenodd" clip-rule="evenodd" d="M11.7679 1.25H11.8H12.2H12.2321H12.2321C13.045 1.24999 13.7006 1.24999 14.2315 1.29336C14.7781 1.33803 15.2582 1.43239 15.7025 1.65873C16.4081 2.01825 16.9818 2.59193 17.3413 3.29754C17.5676 3.74175 17.662 4.2219 17.7066 4.76853C17.75 5.29944 17.75 5.95505 17.75 6.76788V6.8V7.35652C18.2684 7.42746 18.7283 7.54954 19.1565 7.76772C20.0502 8.22312 20.7769 8.94978 21.2323 9.84355C21.5131 10.3947 21.6347 10.9983 21.693 11.7117C21.75 12.4094 21.75 13.2748 21.75 14.367V14.4V15.6V15.633C21.75 16.7252 21.75 17.5906 21.693 18.2883C21.6347 19.0017 21.5131 19.6053 21.2323 20.1565C20.7769 21.0502 20.0502 21.7769 19.1565 22.2323C18.6053 22.5131 18.0017 22.6347 17.2883 22.693C16.5907 22.75 15.7252 22.75 14.6331 22.75H14.633H14.6H9.4H9.36698H9.36691C8.27481 22.75 7.40934 22.75 6.71173 22.693C5.99835 22.6347 5.39472 22.5131 4.84355 22.2323C3.94978 21.7769 3.22312 21.0502 2.76772 20.1565C2.48688 19.6053 2.36527 19.0017 2.30699 18.2883C2.24999 17.5906 2.24999 16.7252 2.25 15.633V15.633V15.6V14.4V14.367V14.367C2.24999 13.2748 2.24999 12.4094 2.30699 11.7117C2.36527 10.9983 2.48688 10.3947 2.76772 9.84355C3.22312 8.94978 3.94978 8.22312 4.84355 7.76772C5.27175 7.54954 5.73161 7.42746 6.25 7.35652V6.8L6.25 6.7679V6.76788C6.24999 5.95505 6.24999 5.29944 6.29336 4.76853C6.33803 4.2219 6.43239 3.74175 6.65873 3.29754C7.01825 2.59193 7.59193 2.01825 8.29754 1.65873C8.74175 1.43239 9.2219 1.33803 9.76853 1.29336C10.2994 1.24999 10.955 1.24999 11.7679 1.25H11.7679ZM16.25 6.8V7.2597C15.7739 7.24999 15.2383 7.25 14.633 7.25H14.633H14.6H14.5H14C13.5858 7.25 13.25 7.58579 13.25 8C13.25 8.41421 13.5858 8.75 14 8.75H14.5H14.6C15.7325 8.75 16.5367 8.75058 17.1661 8.80201C17.7867 8.85271 18.171 8.94909 18.4755 9.10423C19.087 9.41582 19.5842 9.913 19.8958 10.5245C20.0509 10.829 20.1473 11.2133 20.198 11.8339C20.2494 12.4633 20.25 13.2675 20.25 14.4V15.6C20.25 16.7325 20.2494 17.5367 20.198 18.1661C20.1473 18.7867 20.0509 19.171 19.8958 19.4755C19.5842 20.087 19.087 20.5842 18.4755 20.8958C18.171 21.0509 17.7867 21.1473 17.1661 21.198C16.5367 21.2494 15.7325 21.25 14.6 21.25H9.4C8.26752 21.25 7.46327 21.2494 6.83388 21.198C6.21325 21.1473 5.829 21.0509 5.52453 20.8958C4.913 20.5842 4.41582 20.087 4.10423 19.4755C3.94909 19.171 3.85271 18.7867 3.80201 18.1661C3.75058 17.5367 3.75 16.7325 3.75 15.6V14.4C3.75 13.2675 3.75058 12.4633 3.80201 11.8339C3.85271 11.2133 3.94909 10.829 4.10423 10.5245C4.41582 9.913 4.913 9.41582 5.52453 9.10423C5.829 8.94909 6.21325 8.85271 6.83388 8.80201C7.46327 8.75058 8.26752 8.75 9.4 8.75H9.5H10C10.4142 8.75 10.75 8.41421 10.75 8C10.75 7.58579 10.4142 7.25 10 7.25H9.5H9.4H9.367H9.36699C8.76171 7.25 8.22605 7.24999 7.75 7.2597V6.8C7.75 5.94755 7.75058 5.35331 7.78838 4.89068C7.82547 4.4368 7.8946 4.17604 7.99524 3.97852C8.21095 3.55516 8.55516 3.21095 8.97852 2.99524C9.17604 2.8946 9.4368 2.82547 9.89068 2.78838C10.3533 2.75058 10.9475 2.75 11.8 2.75H12.2C13.0525 2.75 13.6467 2.75058 14.1093 2.78838C14.5632 2.82547 14.824 2.8946 15.0215 2.99524C15.4448 3.21095 15.789 3.55516 16.0048 3.97852C16.1054 4.17604 16.1745 4.4368 16.2116 4.89068C16.2494 5.35331 16.25 5.94755 16.25 6.8ZM12.75 14C12.75 13.5858 12.4142 13.25 12 13.25C11.5858 13.25 11.25 13.5858 11.25 14V16C11.25 16.4142 11.5858 16.75 12 16.75C12.4142 16.75 12.75 16.4142 12.75 16V14Z" fill="#22272F"/>
</svg>
