<svg width="24" height="24" viewBox="0 0 24 24" fill="none" xmlns="http://www.w3.org/2000/svg">
<path fill-rule="evenodd" clip-rule="evenodd" d="M16.6853 2.79491C16.3564 2.75162 15.9527 2.75 15 2.75L14.5 2.75C14.0858 2.75 13.75 2.41421 13.75 2C13.75 1.58579 14.0858 1.25 14.5 1.25H15L15.0701 1.25C15.9324 1.24996 16.4419 1.24993 16.8811 1.30775C19.91 1.70652 22.2935 4.09 22.6923 7.11895C22.7501 7.55807 22.75 8.06757 22.75 8.92974V8.92976V8.92986L22.75 9V12.4V12.434V12.434V12.4341C22.75 14.0854 22.75 15.3708 22.6658 16.4019C22.5802 17.4488 22.4041 18.2994 22.0143 19.0644C21.3671 20.3345 20.3345 21.3671 19.0644 22.0143C18.2994 22.4041 17.4488 22.5802 16.4019 22.6658C15.3708 22.75 14.0854 22.75 12.4341 22.75H12.434H12.434H12.4H11.6H11.566H11.566H11.5659C9.91456 22.75 8.6292 22.75 7.59814 22.6658C6.55125 22.5802 5.70065 22.4041 4.93556 22.0143C3.66547 21.3671 2.63285 20.3345 1.98571 19.0644C1.59588 18.2994 1.41977 17.4488 1.33424 16.4019C1.24999 15.3708 1.25 14.0854 1.25 12.434V12.4339V12.4V9L1.25 8.92987C1.24996 8.06762 1.24993 7.55809 1.30775 7.11895C1.70652 4.09 4.09 1.70652 7.11895 1.30775C7.55809 1.24993 8.06762 1.24996 8.92986 1.25H9H9.5C9.91421 1.25 10.25 1.58579 10.25 2C10.25 2.41421 9.91421 2.75 9.5 2.75L9 2.75C8.04732 2.75 7.64361 2.75162 7.31474 2.79492C4.95889 3.10507 3.10507 4.95889 2.79491 7.31474C2.75162 7.64361 2.75 8.04732 2.75 9L2.75 12.4C2.75 14.0925 2.75058 15.3168 2.82925 16.2797C2.90721 17.2338 3.05809 17.8651 3.32222 18.3834C3.82555 19.3713 4.6287 20.1744 5.61655 20.6778C6.13493 20.9419 6.76615 21.0928 7.72029 21.1707C8.68317 21.2494 9.90747 21.25 11.6 21.25H12.4C14.0925 21.25 15.3168 21.2494 16.2797 21.1707C17.2338 21.0928 17.8651 20.9419 18.3834 20.6778C19.3713 20.1744 20.1744 19.3713 20.6778 18.3834C20.9419 17.8651 21.0928 17.2338 21.1707 16.2797C21.2494 15.3168 21.25 14.0925 21.25 12.4V9C21.25 8.04732 21.2484 7.64361 21.2051 7.31474C20.8949 4.95889 19.0411 3.10507 16.6853 2.79491ZM9.6492 6.42715C9.85661 6.78569 9.73409 7.24449 9.37554 7.4519C7.80436 8.36078 6.75 10.0577 6.75 12C6.75 14.8995 9.1005 17.25 12 17.25C14.8995 17.25 17.25 14.8995 17.25 12C17.25 10.0577 16.1956 8.36078 14.6245 7.4519C14.2659 7.24449 14.1434 6.78569 14.3508 6.42715C14.5582 6.0686 15.017 5.94608 15.3755 6.15349C17.3912 7.31946 18.75 9.5006 18.75 12C18.75 15.7279 15.7279 18.75 12 18.75C8.27208 18.75 5.25 15.7279 5.25 12C5.25 9.5006 6.60883 7.31946 8.62446 6.15349C8.983 5.94608 9.4418 6.0686 9.6492 6.42715ZM12.75 5C12.75 4.58579 12.4142 4.25 12 4.25C11.5858 4.25 11.25 4.58579 11.25 5V12C11.25 12.4142 11.5858 12.75 12 12.75C12.4142 12.75 12.75 12.4142 12.75 12V5Z" fill="#22272F"/>
</svg>
