<svg width="24" height="24" viewBox="0 0 24 24" fill="none" xmlns="http://www.w3.org/2000/svg">
<path fill-rule="evenodd" clip-rule="evenodd" d="M1.25 2C1.25 1.58579 1.58579 1.25 2 1.25H3H22C22.4142 1.25 22.75 1.58579 22.75 2C22.75 2.41421 22.4142 2.75 22 2.75H3.75V9.6C3.75 10.7325 3.75058 11.5367 3.80201 12.1661C3.85271 12.7867 3.94909 13.171 4.10423 13.4755C4.41582 14.087 4.913 14.5842 5.52453 14.8958C5.829 15.0509 6.21325 15.1473 6.83388 15.198C7.46326 15.2494 8.26752 15.25 9.4 15.25H12H14.6C15.7325 15.25 16.5367 15.2494 17.1661 15.198C17.7867 15.1473 18.171 15.0509 18.4755 14.8958C19.087 14.5842 19.5842 14.087 19.8958 13.4755C20.0509 13.171 20.1473 12.7867 20.198 12.1661C20.2494 11.5367 20.25 10.7325 20.25 9.6V9V6C20.25 5.58579 20.5858 5.25 21 5.25C21.4142 5.25 21.75 5.58579 21.75 6V9V9.6V9.63302C21.75 10.7252 21.75 11.5906 21.693 12.2883C21.6347 13.0017 21.5131 13.6053 21.2323 14.1565C20.7769 15.0502 20.0502 15.7769 19.1565 16.2323C18.6053 16.5131 18.0017 16.6347 17.2883 16.693C16.5907 16.75 15.7252 16.75 14.6331 16.75H14.633H14.633H14.633H14.6H12.75V18.5754L17.3859 21.3569C17.7411 21.57 17.8562 22.0307 17.6431 22.3859C17.43 22.7411 16.9693 22.8562 16.6141 22.6431L12.75 20.3246V22C12.75 22.4142 12.4142 22.75 12 22.75C11.5858 22.75 11.25 22.4142 11.25 22V20.3246L7.38587 22.6431C7.03069 22.8562 6.56999 22.7411 6.35688 22.3859C6.14377 22.0307 6.25894 21.57 6.61413 21.3569L11.25 18.5754V16.75H9.4H9.36698H9.36697H9.36695H9.36694C8.27482 16.75 7.40934 16.75 6.71173 16.693C5.99834 16.6347 5.39472 16.5131 4.84354 16.2323C3.94978 15.7769 3.22312 15.0502 2.76772 14.1565C2.48688 13.6053 2.36527 13.0017 2.30699 12.2883C2.24999 11.5906 2.24999 10.7251 2.25 9.633L2.25 9.6V2.75H2C1.58579 2.75 1.25 2.41421 1.25 2ZM16.4159 8.62405C16.7606 8.3943 16.8537 7.92865 16.6239 7.584C16.3942 7.23935 15.9285 7.14621 15.5839 7.37596L13.0954 9.0349L11.5302 7.46967C11.2774 7.21687 10.8813 7.17765 10.5838 7.37596L7.58377 9.37595C7.23912 9.60571 7.14598 10.0714 7.37575 10.416C7.60551 10.7607 8.07116 10.8538 8.41581 10.624L10.9043 8.9651L12.4695 10.5303C12.7223 10.7831 13.1183 10.8223 13.4158 10.624L16.4159 8.62405Z" fill="#22272F"/>
</svg>
