<svg width="24" height="24" viewBox="0 0 24 24" fill="none" xmlns="http://www.w3.org/2000/svg">
<path fill-rule="evenodd" clip-rule="evenodd" d="M8 1.25C8.41421 1.25 8.75 1.58579 8.75 2V3.25969C9.22605 3.24999 9.76172 3.25 10.367 3.25L10.4 3.25H11.25V2C11.25 1.58579 11.5858 1.25 12 1.25C12.4142 1.25 12.75 1.58579 12.75 2V3.25H13.6L13.633 3.25C14.2383 3.25 14.7739 3.24999 15.25 3.25969V2C15.25 1.58579 15.5858 1.25 16 1.25C16.4142 1.25 16.75 1.58579 16.75 2V3.35652C17.2684 3.42746 17.7283 3.54954 18.1565 3.76772C19.0502 4.22312 19.7769 4.94978 20.2323 5.84354C20.4505 6.27175 20.5725 6.73161 20.6435 7.25H22C22.4142 7.25 22.75 7.58579 22.75 8C22.75 8.41421 22.4142 8.75 22 8.75H20.7403C20.75 9.22605 20.75 9.76171 20.75 10.367V10.4V11.25H22C22.4142 11.25 22.75 11.5858 22.75 12C22.75 12.4142 22.4142 12.75 22 12.75H20.75V13.6V13.633C20.75 14.2383 20.75 14.774 20.7403 15.25H22C22.4142 15.25 22.75 15.5858 22.75 16C22.75 16.4142 22.4142 16.75 22 16.75H20.6435C20.5725 17.2684 20.4505 17.7283 20.2323 18.1565C19.7769 19.0502 19.0502 19.7769 18.1565 20.2323C17.7283 20.4505 17.2684 20.5725 16.75 20.6435V22C16.75 22.4142 16.4142 22.75 16 22.75C15.5858 22.75 15.25 22.4142 15.25 22V20.7403C14.774 20.75 14.2383 20.75 13.633 20.75H13.6H12.75V22C12.75 22.4142 12.4142 22.75 12 22.75C11.5858 22.75 11.25 22.4142 11.25 22V20.75H10.4H10.367C9.76171 20.75 9.22605 20.75 8.75 20.7403V22C8.75 22.4142 8.41421 22.75 8 22.75C7.58579 22.75 7.25 22.4142 7.25 22V20.6435C6.73161 20.5725 6.27175 20.4505 5.84354 20.2323C4.94978 19.7769 4.22312 19.0502 3.76772 18.1565C3.54954 17.7283 3.42746 17.2684 3.35652 16.75H2C1.58579 16.75 1.25 16.4142 1.25 16C1.25 15.5858 1.58579 15.25 2 15.25H3.25969C3.24999 14.7739 3.25 14.2383 3.25 13.633L3.25 13.6V12.75H2C1.58579 12.75 1.25 12.4142 1.25 12C1.25 11.5858 1.58579 11.25 2 11.25H3.25V10.4L3.25 10.367C3.25 9.76172 3.24999 9.22605 3.25969 8.75H2C1.58579 8.75 1.25 8.41421 1.25 8C1.25 7.58579 1.58579 7.25 2 7.25H3.35652C3.42746 6.73161 3.54954 6.27175 3.76772 5.84354C4.22312 4.94978 4.94978 4.22312 5.84354 3.76772C6.27175 3.54954 6.73161 3.42746 7.25 3.35652V2C7.25 1.58579 7.58579 1.25 8 1.25ZM19.25 12V10.4C19.25 9.26752 19.2494 8.46326 19.198 7.83388C19.1473 7.21325 19.0509 6.829 18.8958 6.52453C18.5842 5.913 18.087 5.41582 17.4755 5.10423C17.171 4.94909 16.7867 4.85271 16.1661 4.80201C15.5367 4.75058 14.7325 4.75 13.6 4.75H12H10.4C9.26752 4.75 8.46326 4.75058 7.83388 4.80201C7.21325 4.85271 6.829 4.94909 6.52453 5.10423C5.913 5.41582 5.41582 5.913 5.10423 6.52453C4.94909 6.829 4.85271 7.21325 4.80201 7.83388C4.75058 8.46326 4.75 9.26752 4.75 10.4V12V13.6C4.75 14.7325 4.75058 15.5367 4.80201 16.1661C4.85271 16.7867 4.94909 17.171 5.10423 17.4755C5.41582 18.087 5.913 18.5842 6.52453 18.8958C6.829 19.0509 7.21325 19.1473 7.83388 19.198C8.46326 19.2494 9.26752 19.25 10.4 19.25H12H13.6C14.7325 19.25 15.5367 19.2494 16.1661 19.198C16.7867 19.1473 17.171 19.0509 17.4755 18.8958C18.087 18.5842 18.5842 18.087 18.8958 17.4755C19.0509 17.171 19.1473 16.7867 19.198 16.1661C19.2494 15.5367 19.25 14.7325 19.25 13.6V12ZM11.4 8.25L11.3711 8.25C10.9757 8.24999 10.6347 8.24997 10.3537 8.27293C10.0572 8.29715 9.76231 8.35064 9.47852 8.49524C9.05516 8.71095 8.71095 9.05516 8.49524 9.47852C8.35064 9.76231 8.29715 10.0572 8.27293 10.3537C8.24997 10.6347 8.24999 10.9757 8.25 11.3711L8.25 11.4V12.6L8.25 12.6289C8.24999 13.0243 8.24997 13.3653 8.27293 13.6463C8.29715 13.9428 8.35064 14.2377 8.49524 14.5215C8.71095 14.9448 9.05516 15.289 9.47852 15.5048C9.76231 15.6494 10.0572 15.7028 10.3537 15.7271C10.6347 15.75 10.9757 15.75 11.3711 15.75L11.4 15.75H12.6L12.6289 15.75C13.0243 15.75 13.3653 15.75 13.6463 15.7271C13.9428 15.7028 14.2377 15.6494 14.5215 15.5048C14.9448 15.289 15.289 14.9448 15.5048 14.5215C15.6494 14.2377 15.7028 13.9428 15.7271 13.6463C15.75 13.3653 15.75 13.0243 15.75 12.6289L15.75 12.6V12V11.5C15.75 11.0858 15.4142 10.75 15 10.75C14.5858 10.75 14.25 11.0858 14.25 11.5V12V12.6C14.25 13.0324 14.2494 13.3116 14.2321 13.5241C14.2154 13.7279 14.1871 13.8034 14.1683 13.8405C14.0963 13.9816 13.9816 14.0963 13.8405 14.1683C13.8034 14.1871 13.7279 14.2154 13.5241 14.2321C13.3116 14.2494 13.0324 14.25 12.6 14.25H11.4C10.9676 14.25 10.6884 14.2494 10.4759 14.2321C10.2721 14.2154 10.1966 14.1871 10.1595 14.1683C10.0184 14.0963 9.90365 13.9816 9.83175 13.8405C9.81285 13.8034 9.78459 13.7279 9.76795 13.5241C9.75058 13.3116 9.75 13.0324 9.75 12.6V11.4C9.75 10.9676 9.75058 10.6884 9.76795 10.4759C9.78459 10.2721 9.81285 10.1966 9.83175 10.1595C9.90365 10.0184 10.0184 9.90365 10.1595 9.83175C10.1966 9.81285 10.2721 9.78459 10.4759 9.76795C10.6884 9.75058 10.9676 9.75 11.4 9.75H12H12.5C12.9142 9.75 13.25 9.41421 13.25 9C13.25 8.58579 12.9142 8.25 12.5 8.25H12H11.4Z" fill="#22272F"/>
</svg>
