<svg width="24" height="24" viewBox="0 0 24 24" fill="none" xmlns="http://www.w3.org/2000/svg">
<path fill-rule="evenodd" clip-rule="evenodd" d="M15 2.75C16.9197 2.75 17.7016 2.75925 18.3133 2.95801C19.6072 3.37841 20.6216 4.39282 21.042 5.68668C21.2407 6.29839 21.25 7.08034 21.25 9V14C21.25 15.4125 21.2494 16.4268 21.1844 17.2229C21.12 18.0103 20.9964 18.518 20.7868 18.9295C20.3793 19.7291 19.7291 20.3793 18.9295 20.7868C18.518 20.9964 18.0103 21.12 17.2229 21.1844C16.4268 21.2494 15.4125 21.25 14 21.25H10C8.58749 21.25 7.57322 21.2494 6.77708 21.1844C5.9897 21.12 5.48197 20.9964 5.07054 20.7868C4.27085 20.3793 3.62068 19.7291 3.21322 18.9295C3.00359 18.518 2.87996 18.0103 2.81563 17.2229C2.75058 16.4268 2.75 15.4125 2.75 14L2.75 9C2.75 7.08034 2.75925 6.29839 2.95801 5.68668C3.37841 4.39282 4.39282 3.37841 5.68668 2.95801C6.29839 2.75925 7.08034 2.75 9 2.75L9.5 2.75C9.91421 2.75 10.25 2.41421 10.25 2C10.25 1.58579 9.91421 1.25 9.5 1.25H9L8.83816 1.24998C7.13188 1.24972 6.09067 1.24955 5.22315 1.53143C3.47263 2.1002 2.1002 3.47263 1.53143 5.22315C1.24955 6.09067 1.24971 7.13188 1.24998 8.83816L1.25 9V14V14.0336V14.0336C1.25 15.4053 1.24999 16.4807 1.32061 17.3451C1.39252 18.2252 1.54138 18.9523 1.87671 19.6104C2.42799 20.6924 3.30762 21.572 4.38956 22.1233C5.04769 22.4586 5.7748 22.6075 6.65494 22.6794C7.51925 22.75 8.59464 22.75 9.96628 22.75H9.96632H9.96637H9.96642H10H14H14.0336H14.0336H14.0337H14.0337C15.4054 22.75 16.4808 22.75 17.3451 22.6794C18.2252 22.6075 18.9523 22.4586 19.6104 22.1233C20.6924 21.572 21.572 20.6924 22.1233 19.6104C22.4586 18.9523 22.6075 18.2252 22.6794 17.3451C22.75 16.4808 22.75 15.4054 22.75 14.0337V14.0337V14.0336V14.0336V14V9L22.75 8.83817C22.7503 7.13189 22.7504 6.09067 22.4686 5.22315C21.8998 3.47263 20.5274 2.1002 18.7768 1.53143C17.9093 1.24955 16.8681 1.24971 15.1618 1.24998L15 1.25H14.5C14.0858 1.25 13.75 1.58579 13.75 2C13.75 2.41421 14.0858 2.75 14.5 2.75L15 2.75ZM9.03034 10.0303C9.32323 9.73743 9.32322 9.26256 9.03032 8.96966C8.73743 8.67677 8.26256 8.67678 7.96966 8.96968L5.46966 11.4697C5.32901 11.6104 5.25 11.8011 5.25 12.0001C5.25 12.199 5.32902 12.3897 5.46968 12.5304L7.96968 15.0303C8.26257 15.3232 8.73744 15.3232 9.03034 15.0303C9.32323 14.7374 9.32322 14.2626 9.03032 13.9697L7.06066 12L9.03034 10.0303ZM14.9696 8.96957C15.2625 8.67668 15.7374 8.67668 16.0303 8.96958L18.5303 11.4697C18.8232 11.7626 18.8232 12.2374 18.5303 12.5303L16.0303 15.0304C15.7374 15.3233 15.2625 15.3233 14.9696 15.0304C14.6767 14.7375 14.6767 14.2626 14.9696 13.9697L16.9393 12L14.9696 10.0302C14.6767 9.73733 14.6767 9.26246 14.9696 8.96957ZM13.7354 7.14709C13.8167 6.74092 13.5533 6.3458 13.1471 6.26456C12.7409 6.18333 12.3458 6.44674 12.2646 6.85291L10.2646 16.8529C10.1833 17.2591 10.4467 17.6542 10.8529 17.7354C11.2591 17.8167 11.6542 17.5533 11.7354 17.1471L13.7354 7.14709Z" fill="#22272F"/>
</svg>
