<svg width="24" height="24" viewBox="0 0 24 24" fill="none" xmlns="http://www.w3.org/2000/svg">
<path fill-rule="evenodd" clip-rule="evenodd" d="M7.21679 3.8153C8.75655 3.22582 10.4812 2.75 12 2.75C13.5189 2.75 15.2435 3.22582 16.7833 3.8153C18.4657 4.45941 19.062 4.70904 19.6025 5.43167C19.6448 5.48816 19.7108 5.58417 19.7485 5.64382C20.2254 6.3996 20.25 7.19952 20.25 9.38059C20.25 13.2745 20.2294 14.9595 19.302 16.59C19.2317 16.7137 19.1037 16.9207 19.0246 17.0389C17.9735 18.6089 16.8716 19.1756 14.2791 20.4721C13.2575 20.983 12.4639 21.25 12 21.25C11.5362 21.25 10.7426 20.983 9.72096 20.4721C8.85321 20.0381 8.15615 19.6892 7.56058 19.3488C7.20096 19.1433 6.74281 19.2682 6.53727 19.6278C6.33174 19.9875 6.45665 20.4456 6.81627 20.6512C7.45177 21.0144 8.18496 21.381 9.03507 21.8062L9.03514 21.8062L9.05004 21.8136C10.0704 22.3239 11.1476 22.75 12 22.75C12.8525 22.75 13.9296 22.3239 14.95 21.8136L15.04 21.7687C17.5338 20.5217 18.9833 19.7969 20.2711 17.8734C20.3705 17.7249 20.5175 17.4869 20.6059 17.3316C21.7506 15.319 21.7504 13.2152 21.75 9.57381L21.75 9.38059L21.7501 9.19499C21.7508 7.26943 21.7513 6.0068 21.017 4.84328C20.9582 4.75011 20.8697 4.62144 20.8037 4.53322C19.9801 3.43211 18.9685 3.04516 17.4399 2.46051L17.3196 2.41445C15.7155 1.80035 13.7896 1.25 12 1.25C10.2105 1.25 8.28454 1.80035 6.68049 2.41445L6.56011 2.46051C5.03161 3.04516 4.01997 3.43211 3.19635 4.53322C3.13037 4.62144 3.04185 4.75011 2.98305 4.84328C2.24878 6.0068 2.24926 7.26943 2.24998 9.19499L2.25003 9.38059L2.25002 9.53225C2.24985 12.5641 2.24973 14.545 2.89306 16.263C3.03831 16.6509 3.47052 16.8476 3.85843 16.7024C4.24634 16.5571 4.44306 16.1249 4.2978 15.737C3.76099 14.3034 3.75003 12.6065 3.75003 9.38059C3.75003 7.19952 3.77461 6.3996 4.25157 5.64382C4.28922 5.58417 4.35527 5.48815 4.39751 5.43167C4.93803 4.70904 5.53433 4.45941 7.21679 3.8153ZM16.0304 10.0303C16.3233 9.73744 16.3233 9.26256 16.0304 8.96967C15.7375 8.67678 15.2626 8.67678 14.9697 8.96967L11 12.9393L9.53036 11.4697C9.23747 11.1768 8.76259 11.1768 8.4697 11.4697C8.17681 11.7626 8.17681 12.2374 8.4697 12.5303L10.4697 14.5303C10.7626 14.8232 11.2375 14.8232 11.5304 14.5303L16.0304 10.0303Z" fill="#22272F"/>
</svg>
