<svg width="24" height="24" viewBox="0 0 24 24" fill="none" xmlns="http://www.w3.org/2000/svg">
<path fill-rule="evenodd" clip-rule="evenodd" d="M6.8 1.25H6.7679H6.76788C5.95505 1.24999 5.29944 1.24999 4.76853 1.29336C4.2219 1.33803 3.74175 1.43239 3.29754 1.65873C2.59193 2.01825 2.01825 2.59193 1.65873 3.29754C1.43239 3.74175 1.33803 4.2219 1.29336 4.76853C1.24999 5.29944 1.24999 5.95505 1.25 6.76788V6.7679V6.8V10C1.25 10.4142 1.58579 10.75 2 10.75C2.41421 10.75 2.75 10.4142 2.75 10V6.8C2.75 5.94755 2.75058 5.35331 2.78838 4.89068C2.82547 4.4368 2.8946 4.17604 2.99524 3.97852C3.21095 3.55516 3.55516 3.21095 3.97852 2.99524C4.17604 2.8946 4.4368 2.82547 4.89068 2.78838C5.35331 2.75058 5.94755 2.75 6.8 2.75H7.2C8.05245 2.75 8.64669 2.75058 9.10932 2.78838C9.5632 2.82547 9.82396 2.8946 10.0215 2.99524C10.4448 3.21095 10.789 3.55516 11.0048 3.97852C11.1054 4.17604 11.1745 4.4368 11.2116 4.89068C11.2494 5.35331 11.25 5.94755 11.25 6.8V6.99902C11.25 6.99944 11.25 6.99985 11.25 7.00026V12V21.25H8H6.8C5.94755 21.25 5.35331 21.2494 4.89068 21.2116C4.4368 21.1745 4.17604 21.1054 3.97852 21.0048C3.55516 20.789 3.21095 20.4448 2.99524 20.0215C2.8946 19.824 2.82547 19.5632 2.78838 19.1093C2.75058 18.6467 2.75 18.0525 2.75 17.2V14C2.75 13.5858 2.41421 13.25 2 13.25C1.58579 13.25 1.25 13.5858 1.25 14V17.2V17.2321V17.2321C1.24999 18.045 1.24999 18.7006 1.29336 19.2315C1.33803 19.7781 1.43239 20.2582 1.65873 20.7025C2.01825 21.4081 2.59193 21.9817 3.29754 22.3413C3.74175 22.5676 4.2219 22.662 4.76853 22.7066C5.29944 22.75 5.95505 22.75 6.76788 22.75H6.8H8H12H17.5H17.5266C18.203 22.75 18.7485 22.75 19.1925 22.7197C19.6491 22.6886 20.0528 22.6229 20.4351 22.4645C21.3539 22.0839 22.0839 21.3539 22.4645 20.4351C22.6229 20.0528 22.6886 19.6491 22.7197 19.1925C22.75 18.7485 22.75 18.203 22.75 17.5266V17.5V17L22.75 16.8842C22.7503 16.0662 22.7505 15.5081 22.6222 15.0294C22.2755 13.7353 21.2647 12.7245 19.9706 12.3778C19.7807 12.3269 19.5782 12.2962 19.3521 12.2778L19.7188 11.8338L19.7907 11.7468C20.3053 11.1243 20.6574 10.6984 20.8642 10.243C21.3632 9.14398 21.3027 7.8719 20.7017 6.82515C20.4526 6.39148 20.0617 6.00085 19.4905 5.43004L19.4106 5.35019L19.3226 5.26222C18.7015 4.64075 18.2775 4.21651 17.8111 3.95918C16.6835 3.33701 15.3154 3.33706 14.1878 3.95933C13.7355 4.20889 13.3232 4.61539 12.7324 5.20648C12.7262 5.05176 12.7179 4.90597 12.7066 4.76853C12.662 4.2219 12.5676 3.74175 12.3413 3.29754C11.9817 2.59193 11.4081 2.01825 10.7025 1.65873C10.2582 1.43239 9.77811 1.33803 9.23147 1.29336C8.70056 1.24999 8.04495 1.24999 7.23212 1.25H7.23211H7.2H6.8ZM12.75 7.31029V12V21.25H17.5C18.2092 21.25 18.7035 21.2496 19.0904 21.2232C19.4706 21.1973 19.692 21.1487 19.861 21.0787C20.4124 20.8504 20.8504 20.4124 21.0787 19.861C21.1487 19.692 21.1973 19.4706 21.2232 19.0904C21.2496 18.7035 21.25 18.2092 21.25 17.5V17C21.25 16.0217 21.2436 15.6797 21.1733 15.4177C20.9653 14.6412 20.3588 14.0347 19.5823 13.8267C19.3328 13.7598 19.0107 13.7508 18.1358 13.7501L15.5782 16.8461C15.3144 17.1654 14.8417 17.2104 14.5223 16.9466C14.203 16.6828 14.158 16.2101 14.4218 15.8908L18.5623 10.8785C19.1764 10.1352 19.385 9.87246 19.4984 9.62284C19.7978 8.96341 19.7615 8.20016 19.4009 7.57211C19.2644 7.33436 19.0317 7.0926 18.35 6.41091C17.6067 5.66775 17.3419 5.41344 17.0865 5.27254C16.4099 4.89924 15.5891 4.89927 14.9125 5.27263C14.6571 5.41355 14.3923 5.66788 13.6491 6.4111L12.75 7.31029ZM8 17C8 17.5523 7.55229 18 7 18C6.44772 18 6 17.5523 6 17C6 16.4477 6.44772 16 7 16C7.55229 16 8 16.4477 8 17Z" fill="#22272F"/>
</svg>
