<svg width="24" height="24" viewBox="0 0 24 24" fill="none" xmlns="http://www.w3.org/2000/svg">
<path fill-rule="evenodd" clip-rule="evenodd" d="M20 2.75C19.3096 2.75 18.75 3.30964 18.75 4C18.75 4.69036 19.3096 5.25 20 5.25C20.6904 5.25 21.25 4.69036 21.25 4C21.25 3.30964 20.6904 2.75 20 2.75ZM22.75 4C22.75 5.25878 21.9043 6.32002 20.75 6.64648V12V15C20.75 15.4142 20.4142 15.75 20 15.75C19.5858 15.75 19.25 15.4142 19.25 15V12V6.64648C18.0957 6.32002 17.25 5.25878 17.25 4C17.25 2.48122 18.4812 1.25 20 1.25C21.5188 1.25 22.75 2.48122 22.75 4ZM5.25 4C5.25 3.30964 4.69036 2.75 4 2.75C3.30964 2.75 2.75 3.30964 2.75 4C2.75 4.69036 3.30964 5.25 4 5.25C4.69036 5.25 5.25 4.69036 5.25 4ZM12 3.25H6.64648C6.32002 2.09575 5.25878 1.25 4 1.25C2.48122 1.25 1.25 2.48122 1.25 4C1.25 5.51878 2.48122 6.75 4 6.75C5.25878 6.75 6.32002 5.90425 6.64648 4.75H12H15C15.4142 4.75 15.75 4.41421 15.75 4C15.75 3.58579 15.4142 3.25 15 3.25H12ZM4.75 9C4.75 8.58579 4.41421 8.25 4 8.25C3.58579 8.25 3.25 8.58579 3.25 9V12V17.3535C2.09575 17.68 1.25 18.7412 1.25 20C1.25 21.5188 2.48122 22.75 4 22.75C5.51878 22.75 6.75 21.5188 6.75 20C6.75 18.7412 5.90425 17.68 4.75 17.3535V12V9ZM2.75 20C2.75 19.3096 3.30964 18.75 4 18.75C4.69036 18.75 5.25 19.3096 5.25 20C5.25 20.6904 4.69036 21.25 4 21.25C3.30964 21.25 2.75 20.6904 2.75 20ZM9 19.25C8.58579 19.25 8.25 19.5858 8.25 20C8.25 20.4142 8.58579 20.75 9 20.75H12H17.3535C17.68 21.9043 18.7412 22.75 20 22.75C21.5188 22.75 22.75 21.5188 22.75 20C22.75 18.4812 21.5188 17.25 20 17.25C18.7412 17.25 17.68 18.0957 17.3535 19.25H12H9ZM18.75 20C18.75 20.6904 19.3096 21.25 20 21.25C20.6904 21.25 21.25 20.6904 21.25 20C21.25 19.3096 20.6904 18.75 20 18.75C19.3096 18.75 18.75 19.3096 18.75 20ZM9 8.25C8.58579 8.25 8.25 8.58579 8.25 9C8.25 9.41421 8.58579 9.75 9 9.75H12H15C15.4142 9.75 15.75 9.41421 15.75 9C15.75 8.58579 15.4142 8.25 15 8.25H12H9ZM12.75 11.5C12.75 11.0858 12.4142 10.75 12 10.75C11.5858 10.75 11.25 11.0858 11.25 11.5V15C11.25 15.4142 11.5858 15.75 12 15.75C12.4142 15.75 12.75 15.4142 12.75 15V11.5Z" fill="#22272F"/>
</svg>
