<svg width="24" height="24" viewBox="0 0 24 24" fill="none" xmlns="http://www.w3.org/2000/svg">
<path fill-rule="evenodd" clip-rule="evenodd" d="M13.0752 1.98543C13.226 1.83469 13.4304 1.75 13.6436 1.75C14.2207 1.75 14.6097 2.34003 14.3824 2.87043L13.5964 4.70456L13.5864 4.72774C13.4221 5.11125 13.2842 5.43294 13.1904 5.69914C13.0949 5.97035 13.0181 6.2553 13.0255 6.5554C13.0467 7.41509 13.556 8.18752 14.3378 8.54563C14.6108 8.67064 14.9029 8.71228 15.1898 8.73132C15.4714 8.75001 15.8214 8.75001 16.2386 8.75H16.2386H16.2639H17.4051C18.3821 8.75 19.067 8.75065 19.5953 8.79624C20.1165 8.84121 20.4061 8.92513 20.6153 9.0441C21.0693 9.30223 21.4193 9.71023 21.6054 10.1982C21.6912 10.423 21.7301 10.722 21.6953 11.244C21.66 11.7731 21.5565 12.4501 21.408 13.4158L20.8849 16.8158C20.7721 17.5493 20.6933 18.058 20.6014 18.4528C20.5117 18.8383 20.4209 19.0605 20.3106 19.2295C20.0766 19.5882 19.745 19.8726 19.3549 20.0494C19.1711 20.1327 18.9377 20.1887 18.543 20.2187C18.1389 20.2495 17.6241 20.25 16.882 20.25H8C6.75736 20.25 5.75 19.2426 5.75 18V17C5.75 16.5858 5.41421 16.25 5 16.25C4.58579 16.25 4.25 16.5858 4.25 17V18C4.25 18.4377 4.325 18.8579 4.46284 19.2485C4.26066 19.2466 4.0971 19.2423 3.95674 19.2327C3.71602 19.2163 3.5988 19.1868 3.52165 19.1548C3.21536 19.028 2.97202 18.7846 2.84515 18.4784C2.81319 18.4012 2.78372 18.284 2.76729 18.0433C2.75041 17.7958 2.75 17.4762 2.75 17L2.75 9C2.75 8.58579 2.41421 8.25 2 8.25C1.58579 8.25 1.25 8.58579 1.25 9V17V17.0253C1.24999 17.4697 1.24999 17.8408 1.27077 18.1454C1.29241 18.4625 1.33905 18.762 1.45933 19.0524C1.73844 19.7262 2.27379 20.2616 2.94762 20.5407C3.23801 20.661 3.53754 20.7076 3.85464 20.7292C4.15925 20.75 4.53028 20.75 4.97474 20.75H5H5.45047C6.11954 21.3706 7.01546 21.75 8 21.75H16.882H16.9113C17.6172 21.75 18.1891 21.75 18.6569 21.7144C19.1404 21.6776 19.5675 21.5999 19.974 21.4157C20.6242 21.1211 21.1768 20.647 21.5669 20.0491C21.8107 19.6754 21.9525 19.2651 22.0624 18.7927C22.1687 18.3359 22.2556 17.7707 22.363 17.0731L22.363 17.0731L22.3675 17.0439L22.8905 13.6439L22.8958 13.6097C23.0379 12.6862 23.1519 11.9451 23.192 11.3438C23.2331 10.7278 23.2039 10.1799 23.007 9.6636C22.6968 8.85038 22.1134 8.17039 21.3568 7.74017C20.8764 7.467 20.3393 7.35486 19.7243 7.30179C19.1238 7.24999 18.3741 7.24999 17.4398 7.25H17.4051H16.2639C15.8148 7.25 15.5151 7.24961 15.2892 7.23462C15.063 7.2196 14.987 7.19312 14.9625 7.18188C14.7019 7.06251 14.5321 6.80503 14.525 6.51847C14.5244 6.49148 14.5299 6.41125 14.6053 6.1974C14.6804 5.98389 14.7982 5.70826 14.9751 5.29544L15.7611 3.46131C16.4126 1.94111 15.2975 0.25 13.6436 0.25C13.0326 0.25 12.4466 0.49272 12.0146 0.924766L6.59099 6.34835L6.56587 6.37347C6.23197 6.70735 6.033 6.9063 5.85505 7.11585C4.94064 8.19255 4.38707 9.52899 4.27231 10.9369C4.24998 11.2109 4.24999 11.4923 4.25 11.9645V11.9645L4.25 12V13C4.25 13.4142 4.58579 13.75 5 13.75C5.41421 13.75 5.75 13.4142 5.75 13V12C5.75 11.482 5.75058 11.2646 5.76735 11.0588C5.85661 9.96372 6.28717 8.92426 6.99837 8.08683C7.13205 7.92943 7.28534 7.77532 7.65165 7.40901L13.0752 1.98543Z" fill="#22272F"/>
</svg>
