<svg width="24" height="24" viewBox="0 0 24 24" fill="none" xmlns="http://www.w3.org/2000/svg">
<path fill-rule="evenodd" clip-rule="evenodd" d="M15.4598 2.80341C14.6403 2.75038 13.53 2.75 12 2.75H10.9343C9.84588 2.75 9.05619 2.7502 8.46878 2.77749C7.86099 2.80574 7.57106 2.8611 7.42863 2.91981C6.2026 3.42521 5.67736 4.87594 6.29568 6.04908L5.64905 6.38989L6.29568 6.04908C6.36751 6.18537 6.5548 6.41351 7.00363 6.8243C7.43742 7.22132 8.04394 7.72702 8.88012 8.42383L9.48012 8.92383C9.79833 9.18901 9.84132 9.66193 9.57615 9.98014C9.31098 10.2983 8.83806 10.3413 8.51985 10.0762L7.91985 9.57617L7.90346 9.56251C7.08702 8.88215 6.45353 8.35424 5.9909 7.93082C5.54022 7.51833 5.17388 7.13775 4.96871 6.74847C3.93818 4.79323 4.81358 2.37535 6.85696 1.53302C7.26378 1.36532 7.78886 1.30747 8.39915 1.27911C9.02563 1.25 9.85027 1.25 10.913 1.25H10.9343H12H12.0299C13.5238 1.25 14.6828 1.25 15.5566 1.30654C16.4081 1.36165 17.1364 1.4747 17.6686 1.79978C19.1662 2.71455 19.8291 4.54558 19.2643 6.20706C19.1376 6.57955 18.9035 6.92346 18.6177 7.25556C18.3292 7.59083 17.9534 7.95317 17.4996 8.3585C17.1907 8.63442 16.7165 8.60765 16.4406 8.29872C16.1647 7.98978 16.1915 7.51566 16.5004 7.23974C16.9377 6.84915 17.2563 6.53803 17.4807 6.27718C17.7079 6.01317 17.8053 5.83831 17.8441 5.72424C18.183 4.72735 17.7853 3.62873 16.8867 3.07987C16.6988 2.96512 16.3075 2.85827 15.4598 2.80341ZM13.7762 10.5199C14.0413 10.8381 13.9983 11.311 13.6801 11.5762L9.69877 14.894C8.52337 15.8735 7.67071 16.5845 7.07509 17.1499C6.45899 17.7347 6.22674 18.0673 6.15588 18.2758C5.81696 19.2727 6.21472 20.3713 7.11328 20.9201C7.30113 21.0349 7.69251 21.1417 8.5402 21.1966C9.35972 21.2496 10.47 21.25 12 21.25H13.0656C14.1541 21.25 14.9438 21.2498 15.5312 21.2225C16.139 21.1943 16.4289 21.1389 16.5713 21.0802C17.7974 20.5748 18.3226 19.1241 17.7043 17.9509C17.6325 17.8146 17.4452 17.5865 16.9963 17.1757C16.5626 16.7787 15.956 16.273 15.1198 15.5762L14.5198 15.0762C14.2016 14.811 14.1586 14.3381 14.4238 14.0199C14.689 13.7017 15.1619 13.6587 15.4801 13.9238L16.0801 14.4238L16.0965 14.4374C16.9129 15.1178 17.5464 15.6458 18.0091 16.0692C18.4598 16.4817 18.8261 16.8623 19.0313 17.2515C20.0618 19.2068 19.1864 21.6246 17.143 22.467C16.7362 22.6347 16.2111 22.6925 15.6008 22.7209C14.9743 22.75 14.1497 22.75 13.0869 22.75H13.0656H12H11.9701C10.4761 22.75 9.31722 22.75 8.44334 22.6935C7.59182 22.6384 6.86357 22.5253 6.33137 22.2002C4.83377 21.2854 4.17085 19.4544 4.73571 17.7929C4.93645 17.2025 5.42353 16.6494 6.04241 16.062C6.67753 15.4591 7.56784 14.7172 8.71549 13.7608L8.73849 13.7416L12.7198 10.4238C13.0381 10.1587 13.511 10.2017 13.7762 10.5199Z" fill="#22272F"/>
</svg>
