<svg width="24" height="24" viewBox="0 0 24 24" fill="none" xmlns="http://www.w3.org/2000/svg">
<path fill-rule="evenodd" clip-rule="evenodd" d="M12 1.25C6.06294 1.25 1.25 6.06294 1.25 12C1.25 12.7353 1.32394 13.4541 1.46503 14.1492C1.54743 14.5551 1.9433 14.8174 2.34924 14.735C2.75517 14.6526 3.01745 14.2567 2.93505 13.8508C2.81378 13.2534 2.75 12.6345 2.75 12C2.75 6.89137 6.89137 2.75 12 2.75C17.1086 2.75 21.25 6.89137 21.25 12C21.25 17.1086 17.1086 21.25 12 21.25C9.41225 21.25 7.07382 20.1884 5.39414 18.475C5.10417 18.1792 4.62932 18.1745 4.33353 18.4644C4.03774 18.7544 4.03303 19.2292 4.32299 19.525C6.27316 21.5144 8.99296 22.75 12 22.75C17.9371 22.75 22.75 17.9371 22.75 12C22.75 6.06294 17.9371 1.25 12 1.25ZM12.75 8C12.75 7.58579 12.4142 7.25 12 7.25C11.5858 7.25 11.25 7.58579 11.25 8V12C11.25 12.2508 11.3753 12.4849 11.584 12.624L14.584 14.624C14.9286 14.8538 15.3943 14.7607 15.624 14.416C15.8538 14.0714 15.7607 13.6057 15.416 13.376L12.75 11.5986V8Z" fill="#22272F"/>
</svg>
