<svg width="24" height="24" viewBox="0 0 24 24" fill="none" xmlns="http://www.w3.org/2000/svg">
<path fill-rule="evenodd" clip-rule="evenodd" d="M7.25 2C7.25 1.58579 7.58579 1.25 8 1.25H16C16.4142 1.25 16.75 1.58579 16.75 2C16.75 2.41421 16.4142 2.75 16 2.75H8C7.58579 2.75 7.25 2.41421 7.25 2ZM6 4.25C5.58579 4.25 5.25 4.58579 5.25 5C5.25 5.41421 5.58579 5.75 6 5.75H18C18.4142 5.75 18.75 5.41421 18.75 5C18.75 4.58579 18.4142 4.25 18 4.25H6ZM6.5 7.25L6.45239 7.25H6.45237C6.03354 7.24997 5.76719 7.24995 5.53442 7.27287C3.27923 7.49499 1.49499 9.27923 1.27287 11.5344C1.24995 11.7672 1.24997 12.0335 1.25 12.4524L1.25 12.5V13C1.25 13.4142 1.58579 13.75 2 13.75C2.41421 13.75 2.75 13.4142 2.75 13V12.5C2.75 12.0178 2.75091 11.8311 2.76565 11.6814C2.91762 10.1384 4.13842 8.91762 5.68144 8.76565C5.8311 8.75091 6.01782 8.75 6.5 8.75H15.6C16.7325 8.75 17.5367 8.75058 18.1661 8.80201C18.7867 8.85271 19.171 8.94909 19.4755 9.10423C20.087 9.41582 20.5842 9.913 20.8958 10.5245C21.0509 10.829 21.1473 11.2133 21.198 11.8339C21.2494 12.4633 21.25 13.2675 21.25 14.4V15.6C21.25 16.7325 21.2494 17.5367 21.198 18.1661C21.1473 18.7867 21.0509 19.171 20.8958 19.4755C20.5842 20.087 20.087 20.5842 19.4755 20.8958C19.171 21.0509 18.7867 21.1473 18.1661 21.198C17.5367 21.2494 16.7325 21.25 15.6 21.25H6.5C6.01782 21.25 5.8311 21.2491 5.68144 21.2344C4.13842 21.0824 2.91762 19.8616 2.76565 18.3186C2.75091 18.1689 2.75 17.9822 2.75 17.5V17C2.75 16.5858 2.41421 16.25 2 16.25C1.58579 16.25 1.25 16.5858 1.25 17V17.5L1.25 17.5476C1.24997 17.9665 1.24995 18.2328 1.27287 18.4656C1.49499 20.7208 3.27923 22.505 5.53442 22.7271C5.76719 22.7501 6.03354 22.75 6.45237 22.75L6.5 22.75H15.6H15.633H15.6331C16.7252 22.75 17.5907 22.75 18.2883 22.693C19.0017 22.6347 19.6053 22.5131 20.1565 22.2323C21.0502 21.7769 21.7769 21.0502 22.2323 20.1565C22.5131 19.6053 22.6347 19.0017 22.693 18.2883C22.75 17.5906 22.75 16.7252 22.75 15.633V15.6V14.4V14.367C22.75 13.2748 22.75 12.4094 22.693 11.7117C22.6347 10.9983 22.5131 10.3947 22.2323 9.84354C21.7769 8.94978 21.0502 8.22312 20.1565 7.76772C19.6053 7.48688 19.0017 7.36527 18.2883 7.30699C17.5907 7.24999 16.7252 7.24999 15.633 7.25H15.633H15.633H15.633H15.6H6.5ZM12.9035 12.0343L12.8747 12.0151C12.4953 11.7622 12.1683 11.5441 11.8939 11.3954C11.6193 11.2466 11.2799 11.0987 10.8957 11.1216C10.3849 11.1521 9.91306 11.4047 9.60436 11.8127C9.37218 12.1196 9.30694 12.4841 9.27844 12.7952C9.24997 13.1059 9.24998 13.499 9.25 13.9549L9.25 13.9896V16.0104L9.25 16.0451C9.24998 16.501 9.24997 16.8941 9.27844 17.2048C9.30694 17.5159 9.37218 17.8804 9.60436 18.1873C9.91306 18.5953 10.3849 18.8479 10.8957 18.8784C11.2799 18.9013 11.6193 18.7534 11.8939 18.6046C12.1683 18.4559 12.4953 18.2378 12.8747 17.9849L12.9035 17.9657L14.4191 16.9553L14.446 16.9374L14.446 16.9374C14.7568 16.7302 15.0313 16.5472 15.2396 16.3793C15.4551 16.2055 15.6838 15.9838 15.8137 15.6704C15.9917 15.2412 15.9917 14.7588 15.8137 14.3296C15.6838 14.0162 15.4551 13.7945 15.2396 13.6207C15.0313 13.4528 14.7568 13.2698 14.446 13.0626L14.4191 13.0447L12.9035 12.0343ZM10.81 12.706C10.8508 12.6584 10.9079 12.6278 10.9702 12.6203C10.9878 12.6251 11.0498 12.644 11.1792 12.7142C11.3857 12.8261 11.6551 13.0048 12.0715 13.2824L13.5871 14.2928C13.9329 14.5233 14.1493 14.6685 14.2979 14.7884C14.3895 14.8622 14.4228 14.9017 14.4317 14.9131C14.4524 14.9692 14.4524 15.0308 14.4317 15.0869C14.4228 15.0983 14.3895 15.1378 14.2979 15.2116C14.1493 15.3315 13.9329 15.4767 13.5871 15.7072L12.0715 16.7176C11.6551 16.9952 11.3857 17.1739 11.1792 17.2858C11.0498 17.356 10.9878 17.3749 10.9702 17.3797C10.9079 17.3722 10.8508 17.3416 10.81 17.294C10.8042 17.2767 10.7856 17.2146 10.7722 17.068C10.7508 16.8341 10.75 16.5109 10.75 16.0104V13.9896C10.75 13.4891 10.7508 13.1659 10.7722 12.932C10.7856 12.7854 10.8042 12.7233 10.81 12.706Z" fill="#22272F"/>
</svg>
