<svg width="24" height="24" viewBox="0 0 24 24" fill="none" xmlns="http://www.w3.org/2000/svg">
<path fill-rule="evenodd" clip-rule="evenodd" d="M2.23242 11.0467C4.65561 8.40469 8.13397 6.75 11.9999 6.75C12.9756 6.75 13.9257 6.85532 14.84 7.05494C15.2447 7.14329 15.6444 6.88686 15.7327 6.48218C15.8211 6.0775 15.5647 5.67782 15.16 5.58946C14.1413 5.36704 13.0838 5.25 11.9999 5.25C7.6963 5.25 3.8223 7.09407 1.12696 10.0329C0.846986 10.3381 0.867486 10.8126 1.17275 11.0925C1.47801 11.3725 1.95245 11.352 2.23242 11.0467ZM18.3218 6.66986C17.9477 6.49212 17.5003 6.65134 17.3226 7.02548C17.1448 7.39962 17.304 7.84701 17.6782 8.02475C19.2309 8.76237 20.618 9.79349 21.7674 11.0467C22.0474 11.352 22.5218 11.3725 22.8271 11.0925C23.1323 10.8126 23.1528 10.3381 22.8729 10.0329C21.5944 8.63893 20.051 7.49133 18.3218 6.66986ZM10.1492 10.935C10.7465 10.8138 11.3654 10.75 11.9999 10.75C14.4536 10.75 16.6829 11.7044 18.3392 13.2638C18.6408 13.5477 19.1154 13.5334 19.3993 13.2318C19.6833 12.9302 19.669 12.4556 19.3674 12.1716C17.4439 10.3608 14.8508 9.25 11.9999 9.25C11.2646 9.25 10.5458 9.32393 9.85081 9.465C9.44488 9.54739 9.1826 9.94327 9.26499 10.3492C9.34739 10.7551 9.74326 11.0174 10.1492 10.935ZM7.37554 11.987C7.73409 11.7796 7.85662 11.3208 7.64921 10.9622C7.44181 10.6037 6.98302 10.4811 6.62447 10.6885C5.90309 11.1058 5.23491 11.6044 4.63238 12.1716C4.3308 12.4556 4.31648 12.9302 4.60042 13.2318C4.88435 13.5334 5.35901 13.5477 5.66059 13.2638C6.17958 12.7752 6.75487 12.346 7.37554 11.987ZM11.9998 14.75C10.7 14.75 9.51213 15.2214 8.59509 16.0035C8.27993 16.2723 7.80655 16.2347 7.53776 15.9196C7.26897 15.6044 7.30656 15.131 7.62172 14.8622C8.79999 13.8573 10.3299 13.25 11.9998 13.25C13.6697 13.25 15.1996 13.8573 16.3779 14.8622C16.693 15.131 16.7306 15.6044 16.4618 15.9196C16.193 16.2347 15.7197 16.2723 15.4045 16.0035C14.4875 15.2214 13.2996 14.75 11.9998 14.75ZM12 19C12.5523 19 13 18.5523 13 18C13 17.4477 12.5523 17 12 17C11.4477 17 11 17.4477 11 18C11 18.5523 11.4477 19 12 19Z" fill="#22272F"/>
</svg>
