<svg width="97" height="141" viewBox="0 0 97 141" fill="none" xmlns="http://www.w3.org/2000/svg"><path fill-rule="evenodd" clip-rule="evenodd" d="M55.1999 100.055C64.8646 85.7176 79.0381 74.9801 94.9975 74.1447 96.1006 74.0869 97 74.9877 97 76.0923V85.0081C97 86.1126 96.1024 87.0001 95.0014 87.0888 74.253 88.7602 56.2656 116.08 55.2456 138.661 55.1958 139.764 54.3046 140.658 53.2 140.658H53 44 43.8C42.6954 140.658 41.8042 139.764 41.7546 138.66 40.7395 116.077 22.8338 88.7529 1.99862 87.0881.897561 87.0001-694524e-11 86.1126-689696e-11 85.0081L-650723e-11 76.0923C-645895e-11 74.9877.899431 74.0869 2.00249 74.1447 17.9619 74.9801 32.1353 85.7175 41.7999 100.054L41.8 2.6582C41.8 1.55363 42.6954.658201 43.8.658201H53.1999C54.3045.658201 55.1999 1.55363 55.1999 2.6582V100.055z" fill="#0b0e11"/></svg>