<svg width="174" height="174" viewBox="0 0 174 174" fill="none" xmlns="http://www.w3.org/2000/svg">
<path fill-rule="evenodd" clip-rule="evenodd" d="M172.446 66.3774C160.57 55.683 142.956 53.2534 125.984 56.5573L167.224 15.3172C168.005 14.5361 168.005 13.2698 167.224 12.4888L160.577 5.84196C159.796 5.06091 158.53 5.06091 157.749 5.84196L116.509 47.0818C119.812 30.1103 117.383 12.4958 106.689 0.620188C105.949 -0.200622 104.677 -0.199675 103.895 0.581375L97.5911 6.88579C96.81 7.66684 96.8172 8.92904 97.5335 9.76981C111.089 25.6797 104.429 57.662 89.1781 74.3488C88.4329 75.1641 88.4306 76.4267 89.2117 77.2077L95.7171 83.7131C95.7211 83.7171 95.7252 83.7212 95.7292 83.7252C95.7342 83.73 95.7392 83.7349 95.7441 83.7397L95.8587 83.8543C96.6398 84.6353 97.9024 84.6331 98.7179 83.8881C115.406 68.6425 147.443 62.0435 163.296 75.533C164.137 76.2488 165.4 76.256 166.181 75.4749L172.485 69.1705C173.266 68.3894 173.267 67.1165 172.446 66.3774ZM0.620187 106.687C12.496 117.381 30.1107 119.811 47.0824 116.507L5.53423 158.055C4.75319 158.836 4.75319 160.102 5.53423 160.883L12.181 167.53C12.9621 168.311 14.2284 168.311 15.0095 167.53L56.5577 125.982C53.254 142.954 55.6836 160.568 66.3779 172.444C67.117 173.265 68.3899 173.264 69.171 172.483L75.4754 166.178C76.2565 165.397 76.2493 164.135 75.533 163.294C61.9775 147.384 68.6372 115.402 83.8884 98.7153C84.6336 97.9 84.6358 96.6374 83.8548 95.8564L77.3494 89.351C77.3404 89.342 77.3314 89.3332 77.3223 89.3244L77.2077 89.2098C76.4267 88.4288 75.1641 88.431 74.3486 89.176C57.6605 104.422 25.6235 111.021 9.77024 97.5311C8.929 96.8153 7.66684 96.8081 6.8858 97.5892L0.581375 103.894C-0.199673 104.675 -0.200624 105.948 0.620187 106.687Z" fill="#0B0E11"/>
</svg>
