<svg width="97" height="141" viewBox="0 0 97 141" fill="none" xmlns="http://www.w3.org/2000/svg"><path fill-rule="evenodd" clip-rule="evenodd" d="M41.8001 41.1745C32.1354 55.5114 17.9619 66.2489 2.00249 67.0843.899428 67.1421 886371e-12 66.2413 899543e-12 65.1367L100586e-11 56.2209C101903e-11 55.1164.897548 54.2289 1.99855 54.1403 22.747 52.4688 40.7344 25.149 41.7544 2.5685 41.8042 1.46506 42.6954.57071 43.8.57071H44h9H53.2C54.3046.57071 55.1958 1.46504 55.2454 2.56851 56.2605 25.1521 74.1662 52.4761 95.0014 54.1409 96.1024 54.2289 97 55.1164 97 56.2209V65.1367C97 66.2413 96.1006 67.1421 94.9975 67.0843 79.0381 66.2489 64.8647 55.5115 55.2 41.1746V138.571C55.2 139.675 54.3046 140.571 53.2 140.571H43.8C42.6955 140.571 41.8 139.675 41.8 138.571L41.8001 41.1745z" fill="#0b0e11"/></svg>