<svg width="149" height="149" viewBox="0 0 149 149" fill="none" xmlns="http://www.w3.org/2000/svg">
<path fill-rule="evenodd" clip-rule="evenodd" d="M64.3788 18.448C76.2543 29.1423 93.8691 31.572 110.841 28.2683L97.1381 41.9709L41.9711 97.1379L28.2685 110.841C31.5722 93.8689 29.1425 76.2546 18.4487 64.3787C17.7094 63.5579 16.4365 63.5588 15.6552 64.3401L9.35101 70.6443C8.56976 71.4255 8.57709 72.6877 9.29339 73.5286C22.8491 89.4382 16.1889 121.421 0.937926 138.107C0.192809 138.923 0.190368 140.185 0.971618 140.967L7.47699 147.472L7.50384 147.498L7.61859 147.613C8.39984 148.394 9.66205 148.392 10.4775 147.647C27.166 132.401 59.2026 125.802 75.0561 139.292C75.8974 140.008 77.1596 140.014 77.9404 139.234L84.2451 132.929C85.0258 132.148 85.0268 130.875 84.206 130.136C72.3305 119.442 54.7158 117.012 37.7441 120.316L51.4467 106.613L106.614 51.446L120.316 37.7434C117.013 54.7151 119.442 72.3293 130.136 84.2053C130.875 85.0261 132.148 85.0251 132.93 84.2439L139.234 77.9397C140.015 77.1584 140.008 75.8962 139.291 75.0554C125.736 59.1458 132.396 27.1633 147.647 10.4768C148.392 9.66138 148.394 8.39868 147.613 7.61743L141.108 1.11206L141.081 1.08569L140.966 0.970948C140.185 0.190186 138.923 0.19214 138.107 0.937257C121.419 16.1829 89.3823 22.782 73.5287 9.29224C72.6874 8.57642 71.4252 8.56958 70.6445 9.35034L64.3398 15.655C63.559 16.4358 63.558 17.7087 64.3788 18.448Z" fill="#0B0E11"/>
</svg>
