<svg width="195" height="97" viewBox="0 0 195 97" fill="none" xmlns="http://www.w3.org/2000/svg">
<path fill-rule="evenodd" clip-rule="evenodd" d="M40.8687 55.2002C55.2989 64.8648 66.1062 79.0382 66.947 94.9975C67.0052 96.1006 66.1044 97 64.9998 97L55.9998 97C54.8952 97 54.0079 96.1024 53.9186 95.0015C52.2359 74.249 24.7278 56.2587 1.9975 55.245C0.894035 55.1958 -0.000206236 54.3045 -0.00020614 53.2L-0.000206122 53L-0.000205335 44L-0.000205318 43.8C-0.000205221 42.6954 0.894036 41.8042 1.99752 41.7552C24.7309 40.7464 52.2433 22.8377 53.9193 1.99858C54.0078 0.897567 54.8952 -8.18407e-06 55.9998 -8.08751e-06L64.9998 -7.3007e-06C66.1044 -7.20414e-06 67.0052 0.899422 66.947 2.00246C66.1062 17.962 55.2986 32.1355 40.8681 41.8002L193 41.8002C194.105 41.8002 195 42.6956 195 43.8002L195 53.2002C195 54.3048 194.105 55.2002 193 55.2002L40.8687 55.2002Z" fill="#0B0E11"/>
</svg>
