<svg width="97" height="67" viewBox="0 0 97 67" fill="none" xmlns="http://www.w3.org/2000/svg">
<path d="M1.99862 12.9958C0.897565 12.9078 9.07512e-07 12.0204 8.24119e-07 10.9158L1.50996e-07 2C6.7603e-08 0.895433 0.899429 -0.00533628 2.00249 0.0524074C30.9002 1.56516 53.9424 35.5428 54.9646 64.5701C55.0035 65.674 54.1046 66.566 53 66.566L43.8 66.566C42.6954 66.566 41.8042 65.6717 41.7546 64.5682C40.7395 41.9846 22.8338 14.6606 1.99862 12.9958Z" fill="#0B0E11"/>
<path d="M44 66.566C42.8954 66.566 41.9965 65.674 42.0354 64.5701C43.0576 35.5428 66.0998 1.56516 94.9975 0.0524034C96.1006 -0.00534037 97 0.895431 97 2L97 10.9158C97 12.0204 96.1025 12.9078 95.0015 12.9965C74.253 14.668 56.2656 41.9877 55.2456 64.5682C55.1958 65.6717 54.3046 66.566 53.2 66.566L44 66.566Z" fill="#0B0E11"/>
</svg>
