<svg width="17" height="25" viewBox="0 0 17 25" fill="none" xmlns="http://www.w3.org/2000/svg">
<path fill-rule="evenodd" clip-rule="evenodd" d="M1.61408 25C2.50573 25 3.21264 24.2666 3.43173 23.4023C4.54346 19.0165 10.0219 15.3593 14.9968 14.6677C15.8994 14.5422 16.6411 13.8113 16.6411 12.9C16.6411 12.8917 16.6411 12.8833 16.6409 12.875C16.6411 12.8667 16.6411 12.8583 16.6411 12.85C16.6411 11.9387 15.8994 11.2078 14.9969 11.0818C10.0241 10.3872 4.5482 6.7178 3.43317 2.34744C3.21274 1.48347 2.50573 0.749999 1.61409 0.749999C0.722435 0.749999 -0.0133953 1.47825 0.13493 2.35748C0.906301 6.92997 4.8773 10.8014 9.50944 12.875C4.8773 14.9486 0.9063 18.82 0.134929 23.3925C-0.0133963 24.2717 0.722434 25 1.61408 25Z" fill="#0B0E11"/>
</svg>
