<svg width="24" height="24" viewBox="0 0 24 24" fill="none" xmlns="http://www.w3.org/2000/svg">
<path fill-rule="evenodd" clip-rule="evenodd" d="M12.0374 4.05999L12.0025 4.03939C10.4502 3.12207 9.23965 2.40676 8.25506 1.94057C7.26713 1.47279 6.39423 1.19839 5.53693 1.28237C4.19049 1.41426 2.96418 2.11403 2.16565 3.20612C1.65722 3.90147 1.44939 4.79257 1.34952 5.88108C1.24999 6.96591 1.24999 8.37196 1.25 10.1751V10.2156V13.7843V13.8248C1.24999 15.6279 1.24999 17.034 1.34952 18.1188C1.44939 19.2073 1.65722 20.0984 2.16565 20.7938C2.96418 21.8859 4.19049 22.5856 5.53693 22.7175C6.39423 22.8015 7.26713 22.5271 8.25506 22.0593C9.23965 21.5931 10.4501 20.8778 12.0025 19.9605L12.0025 19.9605L12.0374 19.9399L15.0571 18.1556L15.0917 18.1351L15.0918 18.135C16.5971 17.2455 17.7722 16.5512 18.6323 15.9304C19.4966 15.3067 20.1432 14.6892 20.4844 13.9144C21.0216 12.6946 21.0216 11.3053 20.4844 10.0855C20.1432 9.31072 19.4966 8.69324 18.6323 8.06946C17.7722 7.44874 16.5971 6.75436 15.0918 5.86484L15.0917 5.86479L15.057 5.84432L12.0374 4.05999Z" fill="#22272F"/>
</svg>
