<svg width="261" height="55" viewBox="0 0 261 55" fill="none" xmlns="http://www.w3.org/2000/svg">
<path d="M193.575 32.6213C213.592 43.6229 234.294 55 260.822 55V43.6841C236.421 43.6841 217.594 33.3359 197.66 22.3801L197.658 22.3787L197.656 22.3778C177.637 11.3765 156.936 0 130.411 0C103.883 0 83.1811 11.3771 63.1638 22.3787C43.2296 33.335 24.3991 43.6841 0 43.6841V55C26.525 55 47.2266 43.6235 67.2454 32.6222L67.2469 32.6213L67.2496 32.6199C87.1829 21.6641 106.011 11.3159 130.411 11.3159C154.807 11.3159 173.634 21.6624 193.567 32.6173L193.575 32.6213Z" fill="#EDEFF2"/>
</svg>
