<svg width="24" height="24" viewBox="0 0 24 24" fill="none" xmlns="http://www.w3.org/2000/svg">
<circle opacity="0.12" cx="12" cy="12" r="10" fill="#22272F"/>
<path fill-rule="evenodd" clip-rule="evenodd" d="M2.75 12C2.75 6.89137 6.89137 2.75 12 2.75C17.1086 2.75 21.25 6.89137 21.25 12C21.25 17.1086 17.1086 21.25 12 21.25C6.89137 21.25 2.75 17.1086 2.75 12ZM12 1.25C6.06294 1.25 1.25 6.06294 1.25 12C1.25 17.9371 6.06294 22.75 12 22.75C17.9371 22.75 22.75 17.9371 22.75 12C22.75 6.06294 17.9371 1.25 12 1.25ZM10.5303 8.53033C10.8232 8.23744 10.8232 7.76256 10.5303 7.46967C10.2374 7.17678 9.76256 7.17678 9.46967 7.46967L7.46967 9.46967C7.25517 9.68417 7.191 10.0068 7.30709 10.287C7.42318 10.5673 7.69665 10.75 8 10.75H13C14.2426 10.75 15.25 11.7574 15.25 13C15.25 14.2426 14.2426 15.25 13 15.25H11C10.5858 15.25 10.25 15.5858 10.25 16C10.25 16.4142 10.5858 16.75 11 16.75H13C15.0711 16.75 16.75 15.0711 16.75 13C16.75 10.9289 15.0711 9.25 13 9.25H9.81066L10.5303 8.53033Z" fill="#22272F"/>
</svg>
