<svg width="24" height="24" viewBox="0 0 24 24" fill="none" xmlns="http://www.w3.org/2000/svg">
<rect opacity="0.12" x="2" y="2" width="20" height="20" rx="6" fill="#22272F"/>
<path fill-rule="evenodd" clip-rule="evenodd" d="M11.5661 1.25H11.6H12.4H12.4339C14.0854 1.25 15.3708 1.24999 16.4019 1.33424C17.4488 1.41977 18.2994 1.59588 19.0644 1.98571C20.3345 2.63285 21.3671 3.66547 22.0143 4.93556C22.4041 5.70065 22.5802 6.55124 22.6658 7.59814C22.75 8.62918 22.75 9.91451 22.75 11.5658V11.5659V11.5659V11.566V11.566V11.6V12.4V12.434V12.434V12.4341V12.4341V12.4342C22.75 14.0855 22.75 15.3708 22.6658 16.4019C22.5802 17.4488 22.4041 18.2994 22.0143 19.0644C21.3671 20.3345 20.3345 21.3671 19.0644 22.0143C18.2994 22.4041 17.4488 22.5802 16.4019 22.6658C15.3708 22.75 14.0855 22.75 12.4342 22.75H12.4341H12.4341H12.434H12.434H12.4H11.6H11.566H11.566H11.5659H11.5659H11.5658C9.91451 22.75 8.62918 22.75 7.59814 22.6658C6.55124 22.5802 5.70065 22.4041 4.93556 22.0143C3.66547 21.3671 2.63285 20.3345 1.98571 19.0644C1.59588 18.2994 1.41977 17.4488 1.33424 16.4019C1.24999 15.3708 1.25 14.0854 1.25 12.4339V12.4V11.6V11.5661C1.25 9.91462 1.24999 8.62922 1.33424 7.59814C1.41977 6.55124 1.59588 5.70065 1.98571 4.93556C2.63285 3.66547 3.66547 2.63285 4.93556 1.98571C5.70065 1.59588 6.55124 1.41977 7.59814 1.33424C8.62922 1.24999 9.91462 1.25 11.5661 1.25ZM7.72029 2.82925C6.76615 2.90721 6.13493 3.05809 5.61655 3.32222C4.6287 3.82555 3.82555 4.6287 3.32222 5.61655C3.05809 6.13493 2.90721 6.76615 2.82925 7.72029C2.75058 8.68317 2.75 9.90747 2.75 11.6V12.4C2.75 14.0925 2.75058 15.3168 2.82925 16.2797C2.90721 17.2338 3.05809 17.8651 3.32222 18.3834C3.82555 19.3713 4.6287 20.1744 5.61655 20.6778C6.13493 20.9419 6.76615 21.0928 7.72029 21.1707C8.68317 21.2494 9.90747 21.25 11.6 21.25H12.4C14.0925 21.25 15.3168 21.2494 16.2797 21.1707C17.2338 21.0928 17.8651 20.9419 18.3834 20.6778C19.3713 20.1744 20.1744 19.3713 20.6778 18.3834C20.9419 17.8651 21.0928 17.2338 21.1707 16.2797C21.2494 15.3168 21.25 14.0925 21.25 12.4V11.6C21.25 9.90747 21.2494 8.68317 21.1707 7.72029C21.0928 6.76615 20.9419 6.13493 20.6778 5.61655C20.1744 4.6287 19.3713 3.82555 18.3834 3.32222C17.8651 3.05809 17.2338 2.90721 16.2797 2.82925C15.3168 2.75058 14.0925 2.75 12.4 2.75H11.6C9.90747 2.75 8.68317 2.75058 7.72029 2.82925ZM8.42673 5.24997L8.50001 5.25L9.00002 5.25C9.41423 5.25001 9.75001 5.58581 9.75 6.00002C9.74999 6.41423 9.4142 6.75001 8.99998 6.75L8.49999 6.75C7.9994 6.74999 7.85863 6.75362 7.75614 6.77401C7.26029 6.87264 6.87265 7.26027 6.77402 7.75612C6.75363 7.85861 6.75 7.99939 6.75 8.50001V15.5C6.75 16.0006 6.75363 16.1414 6.77402 16.2439C6.87265 16.7397 7.26028 17.1273 7.75614 17.226C7.85863 17.2464 7.9994 17.25 8.5 17.25L9 17.25C9.41421 17.25 9.75 17.5858 9.75 18C9.75 18.4142 9.41422 18.75 9 18.75L8.5 18.75L8.42672 18.75C8.034 18.7502 7.73102 18.7504 7.46351 18.6972C6.37261 18.4802 5.51983 17.6274 5.30284 16.5365C5.24963 16.269 5.24978 15.966 5.24998 15.5733L5.25 15.5V8.50001L5.24998 8.42673C5.24978 8.03399 5.24963 7.73099 5.30284 7.46347C5.51984 6.37259 6.37262 5.51982 7.4635 5.30283C7.73102 5.24962 8.03401 5.24977 8.42673 5.24997ZM16.2439 6.77401C16.1414 6.75363 16.0006 6.75 15.5 6.75L15 6.75001C14.5858 6.75002 14.25 6.41424 14.25 6.00003C14.25 5.58581 14.5858 5.25002 15 5.25001L15.5 5.25L15.5733 5.24998C15.966 5.24978 16.269 5.24963 16.5365 5.30283C17.6274 5.51982 18.4802 6.3726 18.6972 7.4635C18.7504 7.731 18.7502 8.034 18.75 8.42673L18.75 8.50001V15.5L18.75 15.5733C18.7502 15.966 18.7504 16.269 18.6972 16.5365C18.4802 17.6274 17.6274 18.4802 16.5365 18.6972C16.269 18.7504 15.966 18.7502 15.5733 18.75H15.5733H15.5733L15.5 18.75H15C14.5858 18.75 14.25 18.4142 14.25 18C14.25 17.5858 14.5858 17.25 15 17.25H15.5C16.0006 17.25 16.1414 17.2464 16.2439 17.226C16.7397 17.1273 17.1273 16.7397 17.226 16.2439C17.2464 16.1414 17.25 16.0006 17.25 15.5V8.50001C17.25 7.9994 17.2464 7.85862 17.226 7.75613C17.1273 7.26027 16.7397 6.87264 16.2439 6.77401ZM12 9.75C12.5523 9.75 13 9.30229 13 8.75C13 8.19772 12.5523 7.75 12 7.75C11.4477 7.75 11 8.19772 11 8.75C11 9.30229 11.4477 9.75 12 9.75ZM13 11.75C13 12.3023 12.5523 12.75 12 12.75C11.4477 12.75 11 12.3023 11 11.75C11 11.1977 11.4477 10.75 12 10.75C12.5523 10.75 13 11.1977 13 11.75ZM12 15.75C12.5523 15.75 13 15.3023 13 14.75C13 14.1977 12.5523 13.75 12 13.75C11.4477 13.75 11 14.1977 11 14.75C11 15.3023 11.4477 15.75 12 15.75Z" fill="#22272F"/>
</svg>
