<svg width="24" height="24" viewBox="0 0 24 24" fill="none" xmlns="http://www.w3.org/2000/svg">
<rect opacity="0.12" x="2" y="2" width="20" height="20" rx="5" fill="#22272F"/>
<path fill-rule="evenodd" clip-rule="evenodd" d="M10 1.25H9.96644H9.96642C8.59471 1.25 7.51928 1.24999 6.65494 1.32061C5.7748 1.39252 5.04769 1.54138 4.38955 1.87671C3.30762 2.42799 2.42799 3.30762 1.87671 4.38955C1.54138 5.04769 1.39252 5.7748 1.32061 6.65494C1.24999 7.51928 1.25 8.59471 1.25 9.96642V9.96644V10V14V14.0336V14.0336C1.25 15.4053 1.24999 16.4807 1.32061 17.3451C1.39252 18.2252 1.54138 18.9523 1.87671 19.6104C2.42799 20.6924 3.30762 21.572 4.38955 22.1233C5.04769 22.4586 5.7748 22.6075 6.65494 22.6794C7.51927 22.75 8.59469 22.75 9.96637 22.75H9.96642H10H14H14.0336H14.0336C15.4053 22.75 16.4807 22.75 17.3451 22.6794C18.2252 22.6075 18.9523 22.4586 19.6104 22.1233C20.6924 21.572 21.572 20.6924 22.1233 19.6104C22.4586 18.9523 22.6075 18.2252 22.6794 17.3451C22.75 16.4807 22.75 15.4053 22.75 14.0336V14.0336V14V10V9.96642V9.96637C22.75 8.59469 22.75 7.51927 22.6794 6.65494C22.6075 5.7748 22.4586 5.04769 22.1233 4.38955C21.572 3.30762 20.6924 2.42799 19.6104 1.87671C18.9523 1.54138 18.2252 1.39252 17.3451 1.32061C16.4807 1.24999 15.4053 1.25 14.0336 1.25H14.0336H14H10ZM5.07054 3.21322C5.48197 3.00359 5.9897 2.87996 6.77708 2.81563C7.57322 2.75058 8.58749 2.75 10 2.75H14C15.4125 2.75 16.4268 2.75058 17.2229 2.81563C18.0103 2.87996 18.518 3.00359 18.9295 3.21322C19.7291 3.62068 20.3793 4.27085 20.7868 5.07054C20.9964 5.48197 21.12 5.9897 21.1844 6.77708C21.2494 7.57322 21.25 8.58749 21.25 10V14C21.25 15.4125 21.2494 16.4268 21.1844 17.2229C21.12 18.0103 20.9964 18.518 20.7868 18.9295C20.3793 19.7291 19.7291 20.3793 18.9295 20.7868C18.518 20.9964 18.0103 21.12 17.2229 21.1844C16.4268 21.2494 15.4125 21.25 14 21.25H10C8.58749 21.25 7.57322 21.2494 6.77708 21.1844C5.9897 21.12 5.48197 20.9964 5.07054 20.7868C4.27085 20.3793 3.62068 19.7291 3.21322 18.9295C3.00359 18.518 2.87996 18.0103 2.81563 17.2229C2.75058 16.4268 2.75 15.4125 2.75 14V10C2.75 8.58749 2.75058 7.57322 2.81563 6.77708C2.87996 5.9897 3.00359 5.48197 3.21322 5.07054C3.62068 4.27085 4.27085 3.62068 5.07054 3.21322ZM17.5302 9.53033C17.8231 9.23744 17.8231 8.76256 17.5302 8.46967C17.2373 8.17678 16.7624 8.17678 16.4695 8.46967L12.9999 11.9393L11.5302 10.4697C11.2373 10.1768 10.7624 10.1768 10.4695 10.4697L6.46955 14.4697C6.17666 14.7626 6.17666 15.2374 6.46955 15.5303C6.76244 15.8232 7.23732 15.8232 7.53021 15.5303L10.9999 12.0607L12.4695 13.5303C12.6102 13.671 12.801 13.75 12.9999 13.75C13.1988 13.75 13.3896 13.671 13.5302 13.5303L17.5302 9.53033Z" fill="#22272F"/>
</svg>
