<svg width="24" height="24" viewBox="0 0 24 24" fill="none" xmlns="http://www.w3.org/2000/svg">
<path opacity="0.12" d="M9 13.2C9 12.0799 9 11.5198 9.21799 11.092C9.40973 10.7157 9.71569 10.4097 10.092 10.218C10.5198 10 11.0799 10 12.2 10H18.8C19.9201 10 20.4802 10 20.908 10.218C21.2843 10.4097 21.5903 10.7157 21.782 11.092C22 11.5198 22 12.0799 22 13.2V20.3636C22 21.357 20.8103 21.8669 20.0909 21.1818C19.3906 20.5149 18.4606 20.1429 17.4935 20.1429H12.2C11.0799 20.1429 10.5198 20.1429 10.092 19.9249C9.71569 19.7331 9.40973 19.4272 9.21799 19.0508C9 18.623 9 18.063 9 16.9429V13.2Z" fill="#22272F"/>
<path fill-rule="evenodd" clip-rule="evenodd" d="M13.2 1.25L13.2321 1.25C14.045 1.24999 14.7006 1.24999 15.2315 1.29336C15.7781 1.33803 16.2583 1.43239 16.7025 1.65873C17.4081 2.01825 17.9818 2.59193 18.3413 3.29754C18.5676 3.74175 18.662 4.2219 18.7067 4.76853C18.75 5.29944 18.75 5.95506 18.75 6.7679V6.8V7V7.5C18.75 7.91421 18.4142 8.25 18 8.25C17.5858 8.25 17.25 7.91421 17.25 7.5V7V6.8C17.25 5.94755 17.2494 5.35331 17.2116 4.89068C17.1745 4.4368 17.1054 4.17604 17.0048 3.97852C16.7891 3.55516 16.4449 3.21095 16.0215 2.99524C15.824 2.8946 15.5632 2.82547 15.1093 2.78838C14.6467 2.75058 14.0525 2.75 13.2 2.75H6.80001C5.94756 2.75 5.35332 2.75058 4.89069 2.78838C4.43682 2.82547 4.17605 2.8946 3.97854 2.99524C3.55517 3.21095 3.21097 3.55516 2.99525 3.97852C2.89461 4.17604 2.82548 4.4368 2.7884 4.89068C2.7506 5.35331 2.75001 5.94755 2.75001 6.8V13.7857C2.75001 13.8787 2.75002 13.9422 2.75055 13.99C2.75081 14.0134 2.75117 14.03 2.75157 14.0421L2.75212 14.0552L2.75236 14.0593C2.79697 14.6222 3.42412 14.9357 3.90121 14.6337C3.90116 14.6337 3.90138 14.6336 3.90191 14.6332L3.90458 14.6315L3.91537 14.624C3.92531 14.6171 3.93882 14.6074 3.95766 14.5936C3.99627 14.5653 4.04707 14.5272 4.12144 14.4714L4.12892 14.4658C4.21593 14.4006 4.26945 14.3604 4.3233 14.3219C5.26207 13.651 6.38097 13.278 7.53454 13.2515C7.60067 13.25 7.66754 13.25 7.77617 13.25H7.77625H7.78573H8.25001V13.2L8.25001 13.1696V13.1695C8.25 12.6354 8.24999 12.1896 8.27975 11.8253C8.31079 11.4454 8.3779 11.0888 8.54975 10.7515C8.8134 10.2341 9.23409 9.81338 9.75154 9.54973C10.0888 9.37789 10.4455 9.31078 10.8253 9.27974C11.1896 9.24998 11.6354 9.24999 12.1696 9.25H12.1696H12.2H18.8H18.8304H18.8305C19.3646 9.24999 19.8105 9.24998 20.1747 9.27974C20.5546 9.31078 20.9112 9.37789 21.2485 9.54973C21.7659 9.81338 22.1866 10.2341 22.4503 10.7515C22.6221 11.0888 22.6892 11.4454 22.7203 11.8253C22.75 12.1895 22.75 12.6354 22.75 13.1695V13.1695V13.2V20.3636C22.75 22.0164 20.7705 22.8648 19.5737 21.7249C19.0128 21.1908 18.268 20.8929 17.4935 20.8929H12.2H12.1696C11.6354 20.8929 11.1896 20.8929 10.8253 20.8631C10.4455 20.8321 10.0888 20.765 9.75154 20.5931C9.23409 20.3295 8.8134 19.9088 8.54975 19.3913C8.3779 19.0541 8.31079 18.6974 8.27975 18.3175C8.24999 17.9533 8.25 17.5075 8.25001 16.9733V16.9733L8.25001 16.9429V14.75H7.78573C7.6647 14.75 7.61585 14.75 7.56902 14.7511C6.71638 14.7707 5.88936 15.0464 5.19549 15.5423C5.15737 15.5695 5.11826 15.5988 5.02144 15.6714L4.99273 15.693L4.99272 15.693C4.87524 15.7811 4.77974 15.8528 4.7036 15.901C3.27234 16.8072 1.39087 15.8665 1.25705 14.1777C1.24993 14.0879 1.24996 13.9685 1.25001 13.8217V13.8216L1.25001 13.7857V6.8V6.76788C1.25001 5.95505 1.25 5.29944 1.29338 4.76853C1.33804 4.2219 1.4324 3.74175 1.65874 3.29754C2.01826 2.59193 2.59194 2.01825 3.29755 1.65873C3.74177 1.43239 4.22191 1.33803 4.76855 1.29336C5.29946 1.24999 5.95507 1.24999 6.76791 1.25L6.80001 1.25H13.2ZM9.75001 14.0012V16.9429C9.75001 17.5153 9.7506 17.8995 9.77477 18.1954C9.79823 18.4825 9.84011 18.6198 9.88626 18.7103C10.0061 18.9455 10.1973 19.1368 10.4325 19.2566C10.5231 19.3028 10.6604 19.3446 10.9475 19.3681C11.2434 19.3923 11.6276 19.3929 12.2 19.3929H17.4935C18.6532 19.3929 19.7684 19.8389 20.6082 20.6387C20.85 20.869 21.25 20.6976 21.25 20.3636V13.2C21.25 12.6276 21.2494 12.2434 21.2253 11.9475C21.2018 11.6604 21.1599 11.5231 21.1138 11.4325C20.9939 11.1973 20.8027 11.0061 20.5675 10.8862C20.4769 10.8401 20.3397 10.7982 20.0525 10.7748C19.7567 10.7506 19.3724 10.75 18.8 10.75H12.2C11.6276 10.75 11.2434 10.7506 10.9475 10.7748C10.6604 10.7982 10.5231 10.8401 10.4325 10.8862C10.1973 11.0061 10.0061 11.1973 9.88626 11.4325C9.84011 11.5231 9.79823 11.6604 9.77477 11.9475C9.7506 12.2434 9.75001 12.6276 9.75001 13.2V13.9988C9.75001 13.9992 9.75001 13.9996 9.75001 14C9.75001 14.0004 9.75001 14.0008 9.75001 14.0012Z" fill="#22272F"/>
</svg>
