<svg width="24" height="24" viewBox="0 0 24 24" fill="none" xmlns="http://www.w3.org/2000/svg">
<path opacity="0.12" d="M2.00001 8H22V14.6C22 16.8402 22 17.9603 21.564 18.816C21.1805 19.5686 20.5686 20.1805 19.816 20.564C18.9603 21 17.8402 21 15.6 21H8.40001C6.1598 21 5.03969 21 4.18405 20.564C3.4314 20.1805 2.81948 19.5686 2.43598 18.816C2.00001 17.9603 2.00001 16.8402 2.00001 14.6V8Z" fill="#22272F"/>
<path fill-rule="evenodd" clip-rule="evenodd" d="M8.36701 2.25H8.40001H15.6H15.633C16.7252 2.24999 17.5907 2.24999 18.2883 2.30699C19.0017 2.36527 19.6053 2.48688 20.1565 2.76772C21.0502 3.22312 21.7769 3.94978 22.2323 4.84355C22.5131 5.39472 22.6347 5.99834 22.693 6.71173C22.75 7.40935 22.75 8.27484 22.75 9.36698V9.4V14.6V14.633C22.75 15.7252 22.75 16.5906 22.693 17.2883C22.6347 18.0017 22.5131 18.6053 22.2323 19.1565C21.7769 20.0502 21.0502 20.7769 20.1565 21.2323C19.6053 21.5131 19.0017 21.6347 18.2883 21.693C17.5907 21.75 16.7252 21.75 15.633 21.75H15.6H8.40001H8.36699C7.27485 21.75 6.40936 21.75 5.71174 21.693C4.99835 21.6347 4.39473 21.5131 3.84355 21.2323C2.94978 20.7769 2.22313 20.0502 1.76773 19.1565C1.48689 18.6053 1.36528 18.0017 1.307 17.2883C1.25 16.5906 1.25 15.7252 1.25001 14.633V14.633V14.6V9.4V9.367V9.36699C1.25 8.27485 1.25 7.40935 1.307 6.71173C1.36528 5.99834 1.48689 5.39472 1.76773 4.84355C2.22313 3.94978 2.94978 3.22312 3.84355 2.76772C4.39473 2.48688 4.99835 2.36527 5.71174 2.30699C6.40936 2.24999 7.27486 2.24999 8.36701 2.25ZM5.83389 3.80201C5.21326 3.85271 4.82901 3.94909 4.52454 4.10423C3.91301 4.41582 3.41583 4.913 3.10424 5.52453C2.9491 5.829 2.85272 6.21325 2.80201 6.83388C2.79133 6.96459 2.78285 7.10284 2.7761 7.25H21.2239C21.2172 7.10284 21.2087 6.96459 21.198 6.83388C21.1473 6.21325 21.0509 5.829 20.8958 5.52453C20.5842 4.913 20.087 4.41582 19.4755 4.10423C19.171 3.94909 18.7868 3.85271 18.1661 3.80201C17.5367 3.75058 16.7325 3.75 15.6 3.75H8.40001C7.26753 3.75 6.46327 3.75058 5.83389 3.80201ZM2.75001 9.4C2.75001 9.17025 2.75003 8.95401 2.7505 8.75H21.2495C21.25 8.95401 21.25 9.17025 21.25 9.4V14.6C21.25 15.7325 21.2494 16.5367 21.198 17.1661C21.1473 17.7867 21.0509 18.171 20.8958 18.4755C20.5842 19.087 20.087 19.5842 19.4755 19.8958C19.171 20.0509 18.7868 20.1473 18.1661 20.198C17.5367 20.2494 16.7325 20.25 15.6 20.25H8.40001C7.26753 20.25 6.46327 20.2494 5.83389 20.198C5.21326 20.1473 4.82901 20.0509 4.52454 19.8958C3.91301 19.5842 3.41583 19.087 3.10424 18.4755C2.9491 18.171 2.85272 17.7867 2.80201 17.1661C2.75059 16.5367 2.75001 15.7325 2.75001 14.6V9.4ZM5.99989 11.25C5.58567 11.25 5.24989 11.5858 5.24989 12C5.24989 12.4142 5.58567 12.75 5.99989 12.75H9.99989C10.4141 12.75 10.7499 12.4142 10.7499 12C10.7499 11.5858 10.4141 11.25 9.99989 11.25H5.99989Z" fill="#22272F"/>
</svg>
