<svg width="24" height="24" viewBox="0 0 24 24" fill="none" xmlns="http://www.w3.org/2000/svg">
<path opacity="0.12" d="M20.5001 18C20.5001 20.2091 18.657 22 17.0001 22C15.3433 22 13.5001 20.2091 13.5001 18C13.5001 15.7909 15.3433 14 17.0001 14C18.657 14 20.5001 15.7909 20.5001 18Z" fill="#22272F"/>
<path fill-rule="evenodd" clip-rule="evenodd" d="M4.00021 1.25C4.41442 1.25 4.75021 1.58579 4.75021 2V7.28741C4.75021 7.96025 4.75785 8.14041 4.80415 8.29286C4.8519 8.4501 4.93019 8.59638 5.03453 8.72333C5.1357 8.84642 5.28136 8.95271 5.8412 9.32594L6.25021 9.59861V2C6.25021 1.58579 6.586 1.25 7.00021 1.25C7.41442 1.25 7.75021 1.58579 7.75021 2V9.59861L8.15923 9.32594C8.71906 8.95271 8.86473 8.84642 8.96589 8.72333C9.07024 8.59638 9.14852 8.4501 9.19627 8.29286C9.24257 8.14041 9.25021 7.96025 9.25021 7.28741V2C9.25021 1.58579 9.586 1.25 10.0002 1.25C10.4144 1.25 10.7502 1.58579 10.7502 2V7.28741L10.7503 7.38118V7.38119C10.7506 7.91549 10.751 8.33556 10.6315 8.72874C10.5265 9.07466 10.3543 9.39648 10.1247 9.67577C9.8638 9.99322 9.51411 10.226 9.06933 10.522L8.99128 10.574L7.75021 11.4014V22C7.75021 22.4142 7.41442 22.75 7.00021 22.75C6.586 22.75 6.25021 22.4142 6.25021 22V11.4014L5.00915 10.574L4.93109 10.522C4.48631 10.226 4.13662 9.99322 3.87571 9.67577C3.64616 9.39648 3.47393 9.07466 3.36888 8.72874C3.24947 8.33556 3.24978 7.91548 3.25017 7.38118L3.25021 7.28741V2C3.25021 1.58579 3.586 1.25 4.00021 1.25ZM17.0002 1.25C17.4144 1.25 17.7502 1.58579 17.7502 2V13.3392C18.5664 13.5317 19.3306 14.0212 19.9227 14.663C20.7028 15.5084 21.2502 16.6851 21.2502 18C21.2502 19.3149 20.7028 20.4916 19.9227 21.337C19.1519 22.1725 18.0894 22.75 17.0002 22.75C15.9111 22.75 14.8485 22.1725 14.0777 21.337C13.2976 20.4916 12.7502 19.3149 12.7502 18C12.7502 16.6851 13.2976 15.5084 14.0777 14.663C14.6698 14.0212 15.434 13.5317 16.2502 13.3392V2C16.2502 1.58579 16.586 1.25 17.0002 1.25ZM17.0002 14.75C16.4325 14.75 15.745 15.0679 15.1801 15.6802C14.6244 16.2824 14.2502 17.1058 14.2502 18C14.2502 18.8942 14.6244 19.7176 15.1801 20.3198C15.745 20.9321 16.4325 21.25 17.0002 21.25C17.5679 21.25 18.2554 20.9321 18.8203 20.3198C19.376 19.7176 19.7502 18.8942 19.7502 18C19.7502 17.1058 19.376 16.2824 18.8203 15.6802C18.2554 15.0679 17.5679 14.75 17.0002 14.75Z" fill="#22272F"/>
</svg>
