<svg width="24" height="24" viewBox="0 0 24 24" fill="none" xmlns="http://www.w3.org/2000/svg">
<path opacity="0.12" d="M12 2C6.47715 2 2 6.47715 2 12C2 14.2514 2.74401 16.329 3.99958 18.0004L4.87868 17.1213C6.23694 15.7631 8.07913 15 10 15C10 13.8954 10.8954 13 12 13C13.1046 13 14 13.8954 14 15C15.9209 15 17.7631 15.7631 19.1213 17.1213L20.0004 18.0004C21.256 16.329 22 14.2514 22 12C22 6.47715 17.5228 2 12 2Z" fill="#22272F"/>
<path fill-rule="evenodd" clip-rule="evenodd" d="M4.95034 6.011C3.72972 7.44638 2.9397 9.25928 2.77997 11.25H4C4.41421 11.25 4.75 11.5858 4.75 12C4.75 12.4142 4.41421 12.75 4 12.75H2.77997C2.89927 14.2369 3.37019 15.6246 4.10952 16.8298L4.7019 16.2374C5.93976 14.9996 7.60665 14.2894 9.35307 14.2516C9.61172 13.335 10.3336 12.6127 11.25 12.3535V9C11.25 8.58579 11.5858 8.25 12 8.25C12.4142 8.25 12.75 8.58579 12.75 9V12.3535C13.6664 12.6127 14.3883 13.335 14.6469 14.2516C16.3934 14.2894 18.0602 14.9996 19.2981 16.2374L19.8905 16.8298C20.6298 15.6246 21.1007 14.2369 21.22 12.75H20C19.5858 12.75 19.25 12.4142 19.25 12C19.25 11.5858 19.5858 11.25 20 11.25H21.22C21.0603 9.25932 20.2703 7.44646 19.0498 6.0111L18.5302 6.53043C18.2373 6.82327 17.7624 6.82318 17.4696 6.53023C17.1767 6.23729 17.1768 5.76241 17.4698 5.46957L17.9891 4.95042C16.5537 3.72976 14.7408 2.9397 12.75 2.77997V4C12.75 4.41421 12.4142 4.75 12 4.75C11.5858 4.75 11.25 4.41421 11.25 4V2.77997C9.25928 2.9397 7.44638 3.72972 6.011 4.95034L6.53033 5.46967C6.82322 5.76256 6.82322 6.23744 6.53033 6.53033C6.23744 6.82322 5.76256 6.82322 5.46967 6.53033L4.95034 6.011ZM12 13.75C11.3096 13.75 10.75 14.3096 10.75 15C10.75 15.6904 11.3096 16.25 12 16.25C12.6904 16.25 13.25 15.6904 13.25 15C13.25 14.3096 12.6904 13.75 12 13.75ZM5.76256 17.2981C6.71935 16.3413 8.00518 15.7892 9.35409 15.752C9.68122 16.9052 10.742 17.75 12 17.75C13.258 17.75 14.3188 16.9052 14.6459 15.752C15.9948 15.7892 17.2807 16.3413 18.2374 17.2981L18.9936 18.0543C17.2976 20.0118 14.7934 21.25 12 21.25C9.20662 21.25 6.70244 20.0118 5.00637 18.0543L5.76256 17.2981ZM22.75 12C22.75 6.06294 17.9371 1.25 12 1.25C6.06294 1.25 1.25 6.06294 1.25 12C1.25 17.9371 6.06294 22.75 12 22.75C17.9371 22.75 22.75 17.9371 22.75 12Z" fill="#22272F"/>
</svg>
