<svg width="24" height="24" viewBox="0 0 24 24" fill="none" xmlns="http://www.w3.org/2000/svg">
<path opacity="0.12" fill-rule="evenodd" clip-rule="evenodd" d="M12 22C17.5228 22 22 17.5228 22 12C22 6.47715 17.5228 2 12 2C6.47715 2 2 6.47715 2 12C2 17.5228 6.47715 22 12 22ZM11.9999 9C11.9999 9 10 10.4815 10 12.5555C10 15.8148 14 15.8148 14 12.5555C14 10.4815 11.9999 9 11.9999 9Z" fill="#22272F"/>
<path fill-rule="evenodd" clip-rule="evenodd" d="M12.75 4V2.77997C14.7408 2.9397 16.5537 3.72976 17.9891 4.95042L17.4698 5.46957C17.1768 5.76241 17.1767 6.23729 17.4696 6.53023C17.7624 6.82318 18.2373 6.82327 18.5302 6.53043L19.0498 6.0111C20.2703 7.44646 21.0603 9.25932 21.22 11.25H20C19.5858 11.25 19.25 11.5858 19.25 12C19.25 12.4142 19.5858 12.75 20 12.75H21.22C21.0603 14.7407 20.2703 16.5535 19.0498 17.9889L18.5302 17.4696C18.2373 17.1767 17.7624 17.1768 17.4696 17.4698C17.1767 17.7627 17.1768 18.2376 17.4698 18.5304L17.9891 19.0496C16.3753 20.4219 14.2844 21.25 12 21.25C9.71572 21.25 7.62483 20.422 6.01109 19.0497L6.5306 18.5304C6.82355 18.2376 6.82363 17.7627 6.53079 17.4698C6.23795 17.1768 5.76308 17.1767 5.47013 17.4696L4.95042 17.9891C3.72976 16.5537 2.9397 14.7408 2.77997 12.75H4C4.41421 12.75 4.75 12.4142 4.75 12C4.75 11.5858 4.41421 11.25 4 11.25H2.77997C2.9397 9.25928 3.72972 7.44638 4.95034 6.011L5.46967 6.53033C5.76256 6.82322 6.23744 6.82322 6.53033 6.53033C6.82322 6.23744 6.82322 5.76256 6.53033 5.46967L6.011 4.95034C7.44638 3.72972 9.25928 2.9397 11.25 2.77997V4C11.25 4.41421 11.5858 4.75 12 4.75C12.4142 4.75 12.75 4.41421 12.75 4ZM12 1.25C17.9371 1.25 22.75 6.06294 22.75 12C22.75 17.9371 17.9371 22.75 12 22.75C6.06294 22.75 1.25 17.9371 1.25 12C1.25 6.06294 6.06294 1.25 12 1.25ZM11.9999 9L12.4464 8.39733C12.1812 8.20089 11.8187 8.20089 11.5535 8.39734L11.9999 9ZM12.4126 10.4664C12.2705 10.2874 12.1278 10.1316 12 10.0031C11.8722 10.1316 11.7295 10.2874 11.5873 10.4664C11.1379 11.0324 10.75 11.7588 10.75 12.5555C10.75 13.2136 10.9491 13.6335 11.1768 13.881C11.4073 14.1313 11.7059 14.25 12 14.25C12.2941 14.25 12.5927 14.1313 12.8232 13.881C13.0509 13.6335 13.25 13.2136 13.25 12.5555C13.25 11.7588 12.8621 11.0324 12.4126 10.4664ZM14.75 12.5555C14.75 11.2782 14.1379 10.2269 13.5873 9.53358C13.307 9.18067 13.028 8.90169 12.8183 8.71016C12.713 8.614 12.6241 8.5388 12.5596 8.48627C12.5274 8.45998 12.5011 8.43929 12.4819 8.42441L12.4585 8.40646L12.451 8.40078L12.4483 8.39877L12.4472 8.39798L12.4468 8.39763C12.4466 8.39748 12.4464 8.39733 11.9999 9C11.5535 8.39734 11.5533 8.39749 11.5531 8.39765L11.5526 8.39799L11.5516 8.39879L11.5489 8.40079L11.5413 8.40647L11.5179 8.42443C11.4987 8.43931 11.4725 8.46 11.4402 8.48629C11.3758 8.53882 11.2868 8.61402 11.1816 8.71018C10.9719 8.90171 10.6929 9.18068 10.4126 9.53359C9.86209 10.2269 9.25 11.2782 9.25 12.5555C9.25 13.5271 9.55094 14.3294 10.0732 14.8968C10.5927 15.4613 11.2941 15.75 12 15.75C12.7059 15.75 13.4073 15.4613 13.9268 14.8968C14.4491 14.3295 14.75 13.5271 14.75 12.5555Z" fill="#22272F"/>
</svg>
