<svg width="24" height="24" viewBox="0 0 24 24" fill="none" xmlns="http://www.w3.org/2000/svg">
<path opacity="0.12" d="M15 5L6.37021 13.6298L6.3702 13.6298C5.86091 14.1391 5.60626 14.3937 5.40392 14.6839C5.22432 14.9414 5.07566 15.2192 4.96101 15.5114C4.83185 15.8407 4.76123 16.1939 4.61997 16.9001L4 20L7.09987 19.38L7.09989 19.38C7.80614 19.2388 8.15927 19.1681 8.48856 19.039C8.78085 18.9243 9.05861 18.7757 9.31613 18.5961C9.60626 18.3937 9.86091 18.1391 10.3702 17.6298L19 9C19 9 17 9 16 8C15 7 15 5 15 5Z" fill="#22272F"/>
<path fill-rule="evenodd" clip-rule="evenodd" d="M17.4451 3.70835C17.7948 3.53504 18.2054 3.53504 18.5552 3.70836C18.7112 3.78567 18.8817 3.94222 19.4698 4.53028C20.0578 5.11832 20.2143 5.28888 20.2916 5.44488C20.4649 5.79461 20.4649 6.20522 20.2916 6.55494C20.2143 6.71094 20.0578 6.8815 19.4697 7.46953L18.7028 8.23651C17.1451 8.09528 15.9047 6.85494 15.7634 5.29727L16.5305 4.53024C17.1185 3.9422 17.2891 3.78566 17.4451 3.70835ZM14.5092 6.55149L6.90057 14.16C6.37301 14.6876 6.17478 14.8896 6.0191 15.1128C5.87317 15.3221 5.75239 15.5478 5.65924 15.7852C5.55986 16.0386 5.50173 16.3156 5.35542 17.0472L4.95608 19.0439L6.95279 18.6445C7.68437 18.4982 7.96136 18.4401 8.21471 18.3407C8.45219 18.2476 8.67788 18.1268 8.88711 17.9808C9.11033 17.8252 9.31234 17.6269 9.83989 17.0994L17.4485 9.49077C16.0732 9.01572 14.9843 7.92675 14.5092 6.55149ZM19.2212 2.36435C18.4518 1.98305 17.5485 1.98304 16.7791 2.36433C16.3719 2.56611 16.0157 2.92284 15.5556 3.38365L15.4698 3.46958L5.83991 13.0994L5.79168 13.1476C5.32831 13.6108 5.02953 13.9095 4.78877 14.2548C4.57549 14.5606 4.39896 14.8904 4.26282 15.2375C4.10913 15.6293 4.02633 16.0436 3.89791 16.6861L3.88455 16.753L3.26458 19.8528C3.2154 20.0987 3.29236 20.3529 3.46968 20.5303C3.647 20.7076 3.9012 20.7845 4.1471 20.7354L7.24696 20.1154L7.31383 20.102L7.31386 20.102C7.95635 19.9736 8.37064 19.8908 8.76244 19.7371C9.10952 19.601 9.43937 19.4244 9.74518 19.2112C10.0904 18.9704 10.3891 18.6716 10.8523 18.2083L10.8523 18.2083L10.9005 18.16L20.5304 8.5302L20.6163 8.44437L20.6163 8.44436C21.0771 7.98431 21.4339 7.62817 21.6356 7.22099C22.0169 6.4516 22.0169 5.54826 21.6357 4.77885C21.4339 4.37166 21.0772 4.01551 20.6164 3.55545L20.5304 3.46963L20.4446 3.38371L20.4446 3.38369C19.9846 2.92288 19.6284 2.56615 19.2212 2.36435Z" fill="#22272F"/>
</svg>
