<svg width="24" height="24" viewBox="0 0 24 24" fill="none" xmlns="http://www.w3.org/2000/svg">
<rect opacity="0.12" x="8" y="2" width="8" height="20" fill="#22272F"/>
<path fill-rule="evenodd" clip-rule="evenodd" d="M10 1.25L9.96644 1.25C8.59472 1.25 7.51929 1.24999 6.65494 1.32061C5.77479 1.39252 5.04769 1.54138 4.38955 1.87671C3.30762 2.42798 2.42798 3.30762 1.87671 4.38955C1.54138 5.04769 1.39252 5.77479 1.32061 6.65494C1.24999 7.51929 1.25 8.59472 1.25 9.96644L1.25 10V14L1.25 14.0336C1.25 15.4053 1.24999 16.4807 1.32061 17.3451C1.39252 18.2252 1.54138 18.9523 1.87671 19.6104C2.42798 20.6924 3.30762 21.572 4.38955 22.1233C5.04769 22.4586 5.77479 22.6075 6.65494 22.6794C7.51921 22.75 8.59454 22.75 9.96608 22.75H9.96613H9.96618H9.96623H9.96627H9.96632H9.96637H9.96642H10H14H14.0336H14.0336H14.0337H14.0337H14.0338H14.0338H14.0339H14.0339C15.4055 22.75 16.4808 22.75 17.3451 22.6794C18.2252 22.6075 18.9523 22.4586 19.6104 22.1233C20.6924 21.572 21.572 20.6924 22.1233 19.6104C22.4586 18.9523 22.6075 18.2252 22.6794 17.3451C22.75 16.4808 22.75 15.4055 22.75 14.0339V14.0339V14.0338V14.0338V14.0337V14.0337V14.0336V14.0336V14V10V9.96642V9.96637V9.96632V9.96628V9.96623V9.96618V9.96613V9.96608C22.75 8.59454 22.75 7.51921 22.6794 6.65494C22.6075 5.77479 22.4586 5.04769 22.1233 4.38955C21.572 3.30762 20.6924 2.42798 19.6104 1.87671C18.9523 1.54138 18.2252 1.39252 17.3451 1.32061C16.4807 1.24999 15.4053 1.25 14.0336 1.25L14 1.25H10ZM5.07054 3.21322C5.48197 3.00359 5.9897 2.87996 6.77708 2.81563C6.92663 2.80341 7.08387 2.79347 7.25 2.78538V3V6.25H2.87341C2.94512 5.74864 3.05453 5.38199 3.21322 5.07054C3.62068 4.27085 4.27085 3.62068 5.07054 3.21322ZM2.76692 7.75H7.25V11.25H2.75V10C2.75 9.10556 2.75023 8.3708 2.76692 7.75ZM2.75 12.75V14C2.75 14.8944 2.75023 15.6292 2.76692 16.25H7.25V12.75H2.75ZM7.25 17.75H2.87341C2.94512 18.2514 3.05453 18.618 3.21322 18.9295C3.62068 19.7292 4.27085 20.3793 5.07054 20.7868C5.48197 20.9964 5.9897 21.12 6.77708 21.1844C6.92663 21.1966 7.08387 21.2065 7.25 21.2146V17.75ZM8.75 17V21.2477C9.12917 21.2499 9.54382 21.25 10 21.25H14C14.4562 21.25 14.8708 21.2499 15.25 21.2477V17V12.75H8.75V17ZM16.75 21.2146V17.75H21.1266C21.0549 18.2514 20.9455 18.618 20.7868 18.9295C20.3793 19.7292 19.7291 20.3793 18.9295 20.7868C18.518 20.9964 18.0103 21.12 17.2229 21.1844C17.0734 21.1966 16.9161 21.2065 16.75 21.2146ZM16.75 16.25H21.2331C21.2498 15.6292 21.25 14.8944 21.25 14V12.75H16.75V16.25ZM21.25 11.25H16.75V7.75H21.2331C21.2498 8.3708 21.25 9.10556 21.25 10V11.25ZM21.1266 6.25H16.75V2.78538C16.9161 2.79347 17.0734 2.80341 17.2229 2.81563C18.0103 2.87996 18.518 3.00359 18.9295 3.21322C19.7291 3.62068 20.3793 4.27085 20.7868 5.07054C20.9455 5.38199 21.0549 5.74864 21.1266 6.25ZM15.25 7V2.75233C14.8708 2.75006 14.4562 2.75 14 2.75H10C9.54382 2.75 9.12917 2.75006 8.75 2.75233V3V7V11.25H15.25V7Z" fill="#22272F"/>
</svg>
