<svg width="24" height="24" viewBox="0 0 24 24" fill="none" xmlns="http://www.w3.org/2000/svg">
<path opacity="0.12" fill-rule="evenodd" clip-rule="evenodd" d="M2.15224 14.2346C2 14.6022 2 15.0681 2 16V19C2 19.9319 2 20.3978 2.15224 20.7654C2.35523 21.2554 2.74458 21.6448 3.23463 21.8478C3.60218 22 4.06812 22 5 22C5.93188 22 6.39782 22 6.76537 21.8478C7.25542 21.6448 7.64477 21.2554 7.84776 20.7654C8 20.3978 8 19.9319 8 19V16C8 15.0681 8 14.6022 7.84776 14.2346C7.64477 13.7446 7.25542 13.3552 6.76537 13.1522C6.39782 13 5.93188 13 5 13C4.06812 13 3.60218 13 3.23463 13.1522C2.74458 13.3552 2.35523 13.7446 2.15224 14.2346ZM16.1522 14.2346C16 14.6022 16 15.0681 16 16V19C16 19.9319 16 20.3978 16.1522 20.7654C16.3552 21.2554 16.7446 21.6448 17.2346 21.8478C17.6022 22 18.0681 22 19 22C19.9319 22 20.3978 22 20.7654 21.8478C21.2554 21.6448 21.6448 21.2554 21.8478 20.7654C22 20.3978 22 19.9319 22 19V16C22 15.0681 22 14.6022 21.8478 14.2346C21.6448 13.7446 21.2554 13.3552 20.7654 13.1522C20.3978 13 19.9319 13 19 13C18.0681 13 17.6022 13 17.2346 13.1522C16.7446 13.3552 16.3552 13.7446 16.1522 14.2346Z" fill="#22272F"/>
<path fill-rule="evenodd" clip-rule="evenodd" d="M12 1.25C6.06294 1.25 1.25 6.06294 1.25 12V15.9324C1.25 15.9464 1.25 15.9606 1.25 15.9747V15.9747V16V17V19V19.0252C1.24999 19.4697 1.24999 19.8408 1.27077 20.1454C1.29241 20.4625 1.33905 20.762 1.45933 21.0524C1.73844 21.7262 2.27379 22.2616 2.94762 22.5407C3.23801 22.661 3.53754 22.7076 3.85464 22.7292C4.15925 22.75 4.53028 22.75 4.97474 22.75H5H5.02526C5.46972 22.75 5.84075 22.75 6.14537 22.7292C6.46247 22.7076 6.76199 22.661 7.05238 22.5407C7.72621 22.2616 8.26156 21.7262 8.54067 21.0524C8.66095 20.762 8.7076 20.4625 8.72923 20.1454C8.75001 19.8408 8.75001 19.4697 8.75 19.0253V19V16V15.9747C8.75001 15.5303 8.75001 15.1592 8.72923 14.8546C8.7076 14.5375 8.66095 14.238 8.54067 13.9476C8.26156 13.2738 7.72621 12.7384 7.05238 12.4593C6.76199 12.339 6.46247 12.2924 6.14537 12.2708C5.84075 12.25 5.46971 12.25 5.02525 12.25H5H4.97475C4.53029 12.25 4.15925 12.25 3.85464 12.2708C3.53754 12.2924 3.23801 12.339 2.94762 12.4593C2.88033 12.4872 2.81441 12.5176 2.75 12.5505V12C2.75 6.89137 6.89137 2.75 12 2.75C17.1086 2.75 21.25 6.89137 21.25 12V12.5505C21.1856 12.5176 21.1197 12.4872 21.0524 12.4593C20.762 12.339 20.4625 12.2924 20.1454 12.2708C19.8408 12.25 19.4697 12.25 19.0253 12.25H19H18.9748C18.5303 12.25 18.1592 12.25 17.8546 12.2708C17.5375 12.2924 17.238 12.339 16.9476 12.4593C16.2738 12.7384 15.7384 13.2738 15.4593 13.9476C15.339 14.238 15.2924 14.5375 15.2708 14.8546C15.25 15.1592 15.25 15.5303 15.25 15.9747V16V19V19.0252C15.25 19.4697 15.25 19.8408 15.2708 20.1454C15.2924 20.4625 15.339 20.762 15.4593 21.0524C15.7384 21.7262 16.2738 22.2616 16.9476 22.5407C17.238 22.661 17.5375 22.7076 17.8546 22.7292C18.1592 22.75 18.5303 22.75 18.9747 22.75H19H19.0253C19.4697 22.75 19.8408 22.75 20.1454 22.7292C20.4625 22.7076 20.762 22.661 21.0524 22.5407C21.7262 22.2616 22.2616 21.7262 22.5407 21.0524C22.661 20.762 22.7076 20.4625 22.7292 20.1454C22.75 19.8408 22.75 19.4698 22.75 19.0253V19.0253V19V17V16V15.9747V15.9747C22.75 15.96 22.75 15.9454 22.75 15.9308V12C22.75 6.06294 17.9371 1.25 12 1.25ZM21.25 16C21.25 15.5238 21.2496 15.2042 21.2327 14.9567C21.2163 14.716 21.1868 14.5988 21.1549 14.5216C21.028 14.2154 20.7846 13.972 20.4784 13.8452C20.4012 13.8132 20.284 13.7837 20.0433 13.7673C19.7958 13.7504 19.4762 13.75 19 13.75C18.5238 13.75 18.2042 13.7504 17.9567 13.7673C17.716 13.7837 17.5988 13.8132 17.5216 13.8452C17.2154 13.972 16.972 14.2154 16.8452 14.5216C16.8132 14.5988 16.7837 14.716 16.7673 14.9567C16.7504 15.2042 16.75 15.5238 16.75 16V19C16.75 19.4762 16.7504 19.7958 16.7673 20.0433C16.7837 20.284 16.8132 20.4012 16.8452 20.4784C16.972 20.7846 17.2154 21.028 17.5216 21.1549C17.5988 21.1868 17.716 21.2163 17.9567 21.2327C18.2042 21.2496 18.5238 21.25 19 21.25C19.4762 21.25 19.7958 21.2496 20.0433 21.2327C20.284 21.2163 20.4012 21.1868 20.4784 21.1549C20.7846 21.028 21.028 20.7846 21.1549 20.4784C21.1868 20.4012 21.2163 20.284 21.2327 20.0433C21.2496 19.7958 21.25 19.4762 21.25 19V17V16ZM2.75 16V17V19C2.75 19.4762 2.75041 19.7958 2.76729 20.0433C2.78372 20.284 2.81319 20.4012 2.84515 20.4784C2.97202 20.7846 3.21536 21.028 3.52165 21.1549C3.5988 21.1868 3.71602 21.2163 3.95674 21.2327C4.20421 21.2496 4.5238 21.25 5 21.25C5.4762 21.25 5.7958 21.2496 6.04326 21.2327C6.28399 21.2163 6.4012 21.1868 6.47836 21.1549C6.78464 21.028 7.02798 20.7846 7.15485 20.4784C7.18681 20.4012 7.21629 20.284 7.23271 20.0433C7.24959 19.7958 7.25 19.4762 7.25 19V16C7.25 15.5238 7.24959 15.2042 7.23271 14.9567C7.21629 14.716 7.18681 14.5988 7.15485 14.5216C7.02798 14.2154 6.78464 13.972 6.47836 13.8452C6.4012 13.8132 6.28399 13.7837 6.04326 13.7673C5.7958 13.7504 5.4762 13.75 5 13.75C4.5238 13.75 4.20421 13.7504 3.95674 13.7673C3.71602 13.7837 3.5988 13.8132 3.52165 13.8452C3.21536 13.972 2.97202 14.2154 2.84515 14.5216C2.81319 14.5988 2.78372 14.716 2.76729 14.9567C2.75041 15.2042 2.75 15.5238 2.75 16Z" fill="#22272F"/>
</svg>
