<svg width="24" height="24" viewBox="0 0 24 24" fill="none" xmlns="http://www.w3.org/2000/svg">
<path opacity="0.12" fill-rule="evenodd" clip-rule="evenodd" d="M22 6L18.5 9.5L13.5 8.5L19 3L22 6ZM8 22C11.3137 22 14 19.3137 14 16C14 12.6863 11.3137 10 8 10C4.68629 10 2 12.6863 2 16C2 19.3137 4.68629 22 8 22Z" fill="#22272F"/>
<path fill-rule="evenodd" clip-rule="evenodd" d="M20.5303 1.46967C20.8232 1.76256 20.8232 2.23744 20.5303 2.53033L20.0607 3L22.5303 5.46967C22.8232 5.76256 22.8232 6.23744 22.5303 6.53033L19.0303 10.0303C18.853 10.2076 18.5988 10.2846 18.3529 10.2354L13.7465 9.31415L12.2803 10.7804C13.7881 12.0183 14.75 13.8968 14.75 16C14.75 19.7279 11.7279 22.75 8 22.75C4.27208 22.75 1.25 19.7279 1.25 16C1.25 12.2721 4.27208 9.25 8 9.25C9.07436 9.25 10.0901 9.501 10.9918 9.94756L12.9697 7.96967L18.4697 2.46967C18.4697 2.46962 18.4698 2.46957 18.4698 2.46952L19.4697 1.46967C19.7626 1.17678 20.2374 1.17678 20.5303 1.46967ZM15.0213 8.0394L18.2535 8.68585L20.9393 6L19 4.06066L15.0213 8.0394ZM8 10.75C5.10051 10.75 2.75 13.1005 2.75 16C2.75 18.8995 5.10051 21.25 8 21.25C10.8995 21.25 13.25 18.8995 13.25 16C13.25 13.1005 10.8995 10.75 8 10.75Z" fill="#22272F"/>
</svg>
