<svg width="24" height="24" viewBox="0 0 24 24" fill="none" xmlns="http://www.w3.org/2000/svg">
<path opacity="0.12" fill-rule="evenodd" clip-rule="evenodd" d="M2.99575 17.3765C3.40727 17.8445 3.9738 18.1844 5.10686 18.8642L8.70686 21.0242C9.90406 21.7425 10.5027 22.1017 11.1417 22.242C11.7069 22.3661 12.2924 22.3661 12.8576 22.242C13.4966 22.1017 14.0952 21.7425 15.2924 21.0242L15.2924 21.0242L18.8924 18.8642L18.8924 18.8642C20.0255 18.1844 20.592 17.8445 21.0035 17.3765C21.3677 16.9623 21.6423 16.4773 21.81 15.952C21.9996 15.3583 21.9996 14.6976 21.9996 13.3763V10.6235C21.9996 9.30213 21.9996 8.64145 21.81 8.04779C21.6423 7.52244 21.3677 7.03746 21.0035 6.6233C20.592 6.1553 20.0255 5.81538 18.8924 5.13554L15.2924 2.97554C14.0952 2.25722 13.4966 1.89806 12.8576 1.75774C12.2924 1.63361 11.7069 1.63361 11.1417 1.75774C10.5027 1.89806 9.90406 2.25722 8.70686 2.97555L5.10686 5.13554C3.9738 5.81538 3.40726 6.1553 2.99575 6.6233C2.63158 7.03746 2.35699 7.52244 2.18922 8.04779C1.99963 8.64145 1.99963 9.30213 1.99963 10.6235L1.99963 13.3763C1.99963 14.6976 1.99963 15.3583 2.18922 15.952C2.35699 16.4773 2.63158 16.9623 2.99575 17.3765ZM12 9C10.3431 9 9 10.3431 9 12C9 13.6569 10.3431 15 12 15C13.6569 15 15 13.6569 15 12C15 10.3431 13.6569 9 12 9Z" fill="#22272F"/>
<path fill-rule="evenodd" clip-rule="evenodd" d="M11.3026 2.49028C11.7618 2.38943 12.2375 2.38943 12.6968 2.49028C13.1874 2.59803 13.6642 2.87323 14.9066 3.61866L18.5066 5.77866C19.6821 6.484 20.1243 6.7591 20.4403 7.11856C20.7362 7.45505 20.9593 7.8491 21.0956 8.27595C21.2412 8.73191 21.2497 9.25257 21.2497 10.6235V13.3763C21.2497 14.7472 21.2412 15.2679 21.0956 15.7238C20.9593 16.1507 20.7362 16.5447 20.4403 16.8812C20.1243 17.2407 19.6821 17.5158 18.5066 18.2211L14.9066 20.3811C13.6642 21.1265 13.1874 21.4017 12.6968 21.5095C12.2375 21.6103 11.7618 21.6103 11.3026 21.5095C10.8119 21.4017 10.3352 21.1265 9.09277 20.3811L5.49277 18.2211C4.31721 17.5158 3.87508 17.2407 3.55901 16.8812C3.26313 16.5447 3.04002 16.1507 2.90371 15.7238C2.7581 15.2679 2.74967 14.7472 2.74967 13.3763L2.74967 10.6235C2.74967 9.25257 2.7581 8.73191 2.90371 8.27595C3.04002 7.8491 3.26313 7.45505 3.55901 7.11856C3.87508 6.7591 4.31721 6.484 5.49277 5.77866L9.09277 3.61867C10.3352 2.87323 10.8119 2.59803 11.3026 2.49028ZM13.0185 1.02519C12.3473 0.877793 11.6521 0.877793 10.9809 1.02519C10.2204 1.19218 9.52242 1.61121 8.43776 2.26236L8.32102 2.33243L4.72103 4.49242L4.61095 4.55845L4.61095 4.55845C3.58359 5.17454 2.92225 5.57114 2.43256 6.12805C2.00011 6.61986 1.67403 7.19577 1.4748 7.81963C1.2492 8.52607 1.24938 9.29721 1.24965 10.4951L1.24967 10.6235V13.3763L1.24965 13.5046C1.24938 14.7025 1.2492 15.4737 1.4748 16.1801C1.67403 16.804 2.00011 17.3799 2.43256 17.8717C2.92225 18.4286 3.58359 18.8252 4.61093 19.4413L4.72103 19.5073L8.32103 21.6673L8.43777 21.7374C9.52242 22.3885 10.2204 22.8076 10.9809 22.9746C11.6521 23.122 12.3473 23.122 13.0185 22.9746C13.7789 22.8076 14.4769 22.3885 15.5616 21.7374L15.6783 21.6673L19.2783 19.5073L19.3884 19.4413C20.4158 18.8252 21.0771 18.4286 21.5668 17.8717C21.9992 17.3799 22.3253 16.804 22.5245 16.1801C22.7501 15.4737 22.75 14.7025 22.7497 13.5046L22.7497 13.3763V10.6235L22.7497 10.4951C22.75 9.29721 22.7501 8.52607 22.5245 7.81963C22.3253 7.19577 21.9992 6.61986 21.5668 6.12805C21.0771 5.57114 20.4157 5.17454 19.3884 4.55845L19.2783 4.49242L15.6783 2.33242L15.5616 2.26236C14.4769 1.61121 13.7789 1.19218 13.0185 1.02519ZM12 8.25C9.92897 8.25 8.25004 9.92894 8.25004 12C8.25004 14.0711 9.92897 15.75 12 15.75C14.0711 15.75 15.75 14.0711 15.75 12C15.75 9.92894 14.0711 8.25 12 8.25ZM9.75004 12C9.75004 10.7574 10.7574 9.75 12 9.75C13.2427 9.75 14.25 10.7574 14.25 12C14.25 13.2426 13.2427 14.25 12 14.25C10.7574 14.25 9.75004 13.2426 9.75004 12Z" fill="#22272F"/>
</svg>
