<svg width="24" height="24" viewBox="0 0 24 24" fill="none" xmlns="http://www.w3.org/2000/svg">
<path opacity="0.12" d="M2 13.7843V10.2157C2 6.54083 2 4.70341 2.77108 3.64885C3.44352 2.72919 4.4762 2.13991 5.61005 2.02885C6.91021 1.90149 8.49209 2.83624 11.6559 4.70573L14.6755 6.49007C17.7449 8.3038 19.2796 9.21066 19.798 10.3878C20.2504 11.415 20.2504 12.585 19.798 13.6122C19.2796 14.7893 17.7449 15.6962 14.6755 17.5099L11.6559 19.2943L11.6558 19.2943C8.49209 21.1638 6.91021 22.0985 5.61005 21.9712C4.4762 21.8601 3.44352 21.2708 2.77108 20.3512C2 19.2966 2 17.4592 2 13.7843Z" fill="#22272F"/>
<path fill-rule="evenodd" clip-rule="evenodd" d="M12.0025 4.03939L12.0374 4.05999L15.057 5.84432L15.0917 5.86479C16.5971 6.75433 17.7722 7.44873 18.6323 8.06946C19.4966 8.69324 20.1432 9.31072 20.4844 10.0855C21.0216 11.3053 21.0216 12.6946 20.4844 13.9144C20.1432 14.6892 19.4966 15.3067 18.6323 15.9304C17.7722 16.5512 16.5971 17.2456 15.0917 18.1351L15.0571 18.1556L12.0374 19.9399L12.0025 19.9605C10.4502 20.8778 9.23965 21.5931 8.25506 22.0593C7.26713 22.5271 6.39423 22.8015 5.53693 22.7175C4.19049 22.5856 2.96418 21.8859 2.16565 20.7938C1.65722 20.0984 1.44939 19.2073 1.34952 18.1188C1.24999 17.034 1.24999 15.6279 1.25 13.8248L1.25 13.7843V10.2156L1.25 10.1751C1.24999 8.37196 1.24999 6.96591 1.34952 5.88108C1.44939 4.79257 1.65722 3.90147 2.16565 3.20612C2.96418 2.11403 4.19049 1.41426 5.53693 1.28237C6.39423 1.19839 7.26713 1.47279 8.25506 1.94057C9.23965 2.40676 10.4502 3.12207 12.0025 4.03939ZM7.61315 3.29627C6.69416 2.86114 6.12603 2.73184 5.68316 2.77522C4.76192 2.86546 3.92286 3.34426 3.3765 4.09148C3.11385 4.45068 2.93615 5.00558 2.84325 6.01813C2.75075 7.02625 2.75 8.36339 2.75 10.2156V13.7843C2.75 15.6365 2.75075 16.9737 2.84325 17.9818C2.93615 18.9943 3.11385 19.5492 3.3765 19.9084C3.92286 20.6556 4.76192 21.1344 5.68316 21.2247C6.12603 21.2681 6.69416 21.1388 7.61315 20.7036C8.52812 20.2704 9.67969 19.5908 11.2743 18.6485L14.294 16.8642C15.8413 15.9498 16.9568 15.2898 17.7544 14.7141C18.5544 14.1368 18.9344 13.7122 19.1116 13.3098C19.4792 12.4752 19.4792 11.5247 19.1116 10.6901C18.9344 10.2877 18.5544 9.86314 17.7544 9.28577C16.9568 8.71009 15.8413 8.05008 14.294 7.13572L11.2743 5.35138C9.67968 4.4091 8.52812 3.7295 7.61315 3.29627Z" fill="#22272F"/>
</svg>
