<svg width="24" height="24" viewBox="0 0 24 24" fill="none" xmlns="http://www.w3.org/2000/svg">
<path opacity="0.12" fill-rule="evenodd" clip-rule="evenodd" d="M12 22C17.5228 22 22 17.5228 22 12C22 6.47715 17.5228 2 12 2C6.47715 2 2 6.47715 2 12C2 17.5228 6.47715 22 12 22ZM10.2025 9.26521C10 9.53288 10 10.0185 10 10.9896V13.0104C10 13.9815 10 14.4671 10.2025 14.7348C10.3789 14.968 10.6485 15.1123 10.9404 15.1297C11.2754 15.1497 11.6795 14.8804 12.4875 14.3417L12.4875 14.3417L14.0031 13.3313C14.6708 12.8862 15.0046 12.6636 15.1209 12.3831C15.2227 12.1378 15.2227 11.8622 15.1209 11.6169C15.0046 11.3364 14.6708 11.1138 14.0031 10.6687L12.4875 9.65835C11.6795 9.11964 11.2754 8.85029 10.9404 8.8703C10.6485 8.88772 10.3789 9.03202 10.2025 9.26521Z" fill="#22272F"/>
<path fill-rule="evenodd" clip-rule="evenodd" d="M2.75 12C2.75 6.89137 6.89137 2.75 12 2.75C17.1086 2.75 21.25 6.89137 21.25 12C21.25 17.1086 17.1086 21.25 12 21.25C6.89137 21.25 2.75 17.1086 2.75 12ZM12 1.25C6.06294 1.25 1.25 6.06294 1.25 12C1.25 17.9371 6.06294 22.75 12 22.75C17.9371 22.75 22.75 17.9371 22.75 12C22.75 6.06294 17.9371 1.25 12 1.25ZM12.9035 9.03431L12.8747 9.01506C12.4953 8.76215 12.1683 8.5441 11.8939 8.39541C11.6193 8.24658 11.2799 8.09869 10.8957 8.12163C10.3849 8.15213 9.91306 8.40465 9.60436 8.81273C9.37218 9.11965 9.30694 9.48412 9.27844 9.79518C9.24997 10.1059 9.24998 10.499 9.25 10.9549L9.25 10.9896V13.0104L9.25 13.0451C9.24998 13.501 9.24997 13.8941 9.27844 14.2048C9.30694 14.5159 9.37218 14.8804 9.60436 15.1873C9.91306 15.5953 10.3849 15.8479 10.8957 15.8784C11.2799 15.9013 11.6193 15.7534 11.8939 15.6046C12.1683 15.4559 12.4953 15.2378 12.8747 14.9849L12.9035 14.9657L14.4191 13.9553L14.446 13.9374L14.446 13.9374C14.7568 13.7302 15.0313 13.5472 15.2396 13.3793C15.4551 13.2055 15.6838 12.9838 15.8137 12.6704C15.9917 12.2412 15.9917 11.7588 15.8137 11.3296C15.6838 11.0162 15.4551 10.7945 15.2396 10.6207C15.0313 10.4528 14.7568 10.2698 14.446 10.0626L14.4191 10.0447L12.9035 9.03431ZM10.81 9.70601C10.8508 9.65838 10.9079 9.62778 10.9702 9.6203C10.9878 9.62505 11.0498 9.64404 11.1792 9.7142C11.3857 9.8261 11.6551 10.0048 12.0715 10.2824L13.5871 11.2928C13.9329 11.5233 14.1493 11.6685 14.2979 11.7884C14.3895 11.8622 14.4228 11.9017 14.4317 11.9131C14.4524 11.9692 14.4524 12.0308 14.4317 12.0869C14.4228 12.0983 14.3895 12.1378 14.2979 12.2116C14.1493 12.3315 13.9329 12.4767 13.5871 12.7072L12.0715 13.7176C11.6551 13.9952 11.3857 14.1739 11.1792 14.2858C11.0498 14.356 10.9878 14.3749 10.9702 14.3797C10.9079 14.3722 10.8508 14.3416 10.81 14.294C10.8042 14.2767 10.7856 14.2146 10.7722 14.068C10.7508 13.8341 10.75 13.5109 10.75 13.0104V10.9896C10.75 10.4891 10.7508 10.1659 10.7722 9.93204C10.7856 9.78541 10.8042 9.72335 10.81 9.70601Z" fill="#22272F"/>
</svg>
