<svg width="24" height="24" viewBox="0 0 24 24" fill="none" xmlns="http://www.w3.org/2000/svg">
<path opacity="0.12" fill-rule="evenodd" clip-rule="evenodd" d="M9.78201 18.908C10 18.4802 10 17.9201 10 16.8V15.2C10 14.0799 10 13.5198 9.78201 13.092C9.59027 12.7157 9.28431 12.4097 8.90798 12.218C8.48016 12 7.92011 12 6.8 12H5.2C4.0799 12 3.51984 12 3.09202 12.218C2.71569 12.4097 2.40973 12.7157 2.21799 13.092C2 13.5198 2 14.0799 2 15.2L2 16.8C2 17.9201 2 18.4802 2.21799 18.908C2.40973 19.2843 2.71569 19.5903 3.09202 19.782C3.51984 20 4.0799 20 5.2 20H6.8C7.92011 20 8.48016 20 8.90798 19.782C9.28431 19.5903 9.59027 19.2843 9.78201 18.908ZM21.782 18.908C22 18.4802 22 17.9201 22 16.8V15.2C22 14.0799 22 13.5198 21.782 13.092C21.5903 12.7157 21.2843 12.4097 20.908 12.218C20.4802 12 19.9201 12 18.8 12H17.2C16.0799 12 15.5198 12 15.092 12.218C14.7157 12.4097 14.4097 12.7157 14.218 13.092C14 13.5198 14 14.0799 14 15.2V16.8C14 17.9201 14 18.4802 14.218 18.908C14.4097 19.2843 14.7157 19.5903 15.092 19.782C15.5198 20 16.0799 20 17.2 20H18.8C19.9201 20 20.4802 20 20.908 19.782C21.2843 19.5903 21.5903 19.2843 21.782 18.908Z" fill="#22272F"/>
<path fill-rule="evenodd" clip-rule="evenodd" d="M6.53034 4.53033C6.82323 4.23744 6.82323 3.76256 6.53034 3.46967C6.23745 3.17678 5.76257 3.17678 5.46968 3.46967L4.96968 3.96967L4.28146 4.65789L4.20861 4.73073L4.20861 4.73074C3.24021 5.69898 2.66254 6.27655 2.24469 6.95842C1.8746 7.56235 1.60187 8.22078 1.43651 8.90952C1.24983 9.68714 1.24989 10.504 1.25001 11.8734V11.8734L1.25001 11.9764L1.25001 15.1157V15.1696V15.2V16V16.8V16.8304C1.25 17.3646 1.24999 17.8104 1.27975 18.1747C1.31079 18.5546 1.3779 18.9112 1.54974 19.2485C1.8134 19.7659 2.23409 20.1866 2.75154 20.4503C3.0888 20.6221 3.44546 20.6892 3.82534 20.7203C4.18957 20.75 4.63541 20.75 5.16956 20.75H5.20001H6.80001H6.83046C7.36461 20.75 7.81045 20.75 8.17468 20.7203C8.55457 20.6892 8.91122 20.6221 9.24849 20.4503C9.76593 20.1866 10.1866 19.7659 10.4503 19.2485C10.6221 18.9112 10.6892 18.5546 10.7203 18.1747C10.75 17.8105 10.75 17.3646 10.75 16.8305V16.8305V16.8V15.2V15.1695V15.1695C10.75 14.6354 10.75 14.1895 10.7203 13.8253C10.6892 13.4454 10.6221 13.0888 10.4503 12.7515C10.1866 12.2341 9.76593 11.8134 9.24849 11.5497C8.91122 11.3779 8.55457 11.3108 8.17468 11.2797C7.81045 11.25 7.36461 11.25 6.83046 11.25H6.83045L6.80001 11.25H5.20001L5.16958 11.25H5.16956C4.63541 11.25 4.18957 11.25 3.82534 11.2797C3.44546 11.3108 3.0888 11.3779 2.75154 11.5497L2.75029 11.5504C2.75233 10.3476 2.76887 9.78534 2.89507 9.25969C3.02368 8.724 3.2358 8.21189 3.52365 7.74216C3.83753 7.22996 4.27916 6.78151 5.34212 5.71855L6.03034 5.03033L6.53034 4.53033ZM2.75001 15.2V16V16.8C2.75001 17.3724 2.75059 17.7566 2.77477 18.0525C2.79823 18.3396 2.84011 18.4769 2.88625 18.5675C3.00609 18.8027 3.19732 18.9939 3.43252 19.1138C3.52308 19.1599 3.66037 19.2018 3.94749 19.2252C4.24337 19.2494 4.62758 19.25 5.20001 19.25H6.80001C7.37244 19.25 7.75665 19.2494 8.05253 19.2252C8.33966 19.2018 8.47694 19.1599 8.5675 19.1138C8.8027 18.9939 8.99393 18.8027 9.11377 18.5675C9.15991 18.4769 9.20179 18.3396 9.22525 18.0525C9.24943 17.7566 9.25001 17.3724 9.25001 16.8V15.2C9.25001 14.6276 9.24943 14.2434 9.22525 13.9475C9.20179 13.6604 9.15991 13.5231 9.11377 13.4325C8.99393 13.1973 8.8027 13.0061 8.5675 12.8862C8.47694 12.8401 8.33966 12.7982 8.05253 12.7748C7.75665 12.7506 7.37244 12.75 6.80001 12.75H5.20001C4.62758 12.75 4.24337 12.7506 3.94749 12.7748C3.66037 12.7982 3.52308 12.8401 3.43252 12.8862C3.19732 13.0061 3.00609 13.1973 2.88625 13.4325C2.84011 13.5231 2.79823 13.6604 2.77477 13.9475C2.75059 14.2434 2.75001 14.6276 2.75001 15.2ZM18.5303 3.46967C18.8232 3.76256 18.8232 4.23744 18.5303 4.53033L18.0303 5.03033L17.3421 5.71855C16.2792 6.78151 15.8375 7.22996 15.5236 7.74216C15.2358 8.21189 15.0237 8.724 14.8951 9.25969C14.7689 9.78534 14.7523 10.3476 14.7503 11.5504C14.7507 11.5502 14.7511 11.5499 14.7515 11.5497C15.0888 11.3779 15.4455 11.3108 15.8253 11.2797C16.1896 11.25 16.6354 11.25 17.1696 11.25H17.1696L17.2 11.25H18.8L18.8304 11.25H18.8305C19.3646 11.25 19.8105 11.25 20.1747 11.2797C20.5546 11.3108 20.9112 11.3779 21.2485 11.5497C21.7659 11.8134 22.1866 12.2341 22.4503 12.7515C22.6221 13.0888 22.6892 13.4454 22.7203 13.8253C22.75 14.1895 22.75 14.6354 22.75 15.1695V15.1695V15.2V16.8V16.8305V16.8305C22.75 17.3646 22.75 17.8105 22.7203 18.1747C22.6892 18.5546 22.6221 18.9112 22.4503 19.2485C22.1866 19.7659 21.7659 20.1866 21.2485 20.4503C20.9112 20.6221 20.5546 20.6892 20.1747 20.7203C19.8105 20.75 19.3646 20.75 18.8305 20.75H18.8H17.2H17.1696C16.6354 20.75 16.1896 20.75 15.8253 20.7203C15.4455 20.6892 15.0888 20.6221 14.7515 20.4503C14.2341 20.1866 13.8134 19.7659 13.5497 19.2485C13.3779 18.9112 13.3108 18.5546 13.2797 18.1747C13.25 17.8104 13.25 17.3646 13.25 16.8304V16.8V16V15.2V15.1696C13.25 15.1496 13.25 15.1299 13.25 15.1102V11.9764L13.25 11.8734C13.2499 10.504 13.2498 9.68714 13.4365 8.90952C13.6019 8.22078 13.8746 7.56235 14.2447 6.95842C14.6625 6.27655 15.2402 5.69897 16.2086 4.73073L16.2086 4.73073L16.2815 4.65789L16.9697 3.96967L17.4697 3.46967C17.7626 3.17678 18.2374 3.17678 18.5303 3.46967ZM14.75 15.2V16V16.8C14.75 17.3724 14.7506 17.7566 14.7748 18.0525C14.7982 18.3396 14.8401 18.4769 14.8863 18.5675C15.0061 18.8027 15.1973 18.9939 15.4325 19.1138C15.5231 19.1599 15.6604 19.2018 15.9475 19.2252C16.2434 19.2494 16.6276 19.25 17.2 19.25H18.8C19.3724 19.25 19.7567 19.2494 20.0525 19.2252C20.3397 19.2018 20.4769 19.1599 20.5675 19.1138C20.8027 18.9939 20.9939 18.8027 21.1138 18.5675C21.1599 18.4769 21.2018 18.3396 21.2253 18.0525C21.2494 17.7566 21.25 17.3724 21.25 16.8V15.2C21.25 14.6276 21.2494 14.2434 21.2253 13.9475C21.2018 13.6604 21.1599 13.5231 21.1138 13.4325C20.9939 13.1973 20.8027 13.0061 20.5675 12.8862C20.4769 12.8401 20.3397 12.7982 20.0525 12.7748C19.7567 12.7506 19.3724 12.75 18.8 12.75H17.2C16.6276 12.75 16.2434 12.7506 15.9475 12.7748C15.6604 12.7982 15.5231 12.8401 15.4325 12.8862C15.1973 13.0061 15.0061 13.1973 14.8863 13.4325C14.8401 13.5231 14.7982 13.6604 14.7748 13.9475C14.7506 14.2434 14.75 14.6276 14.75 15.2Z" fill="#22272F"/>
</svg>
