<svg width="24" height="24" viewBox="0 0 24 24" fill="none" xmlns="http://www.w3.org/2000/svg">
<g clip-path="url(#clip0_2005_8284)">
<path opacity="0.12" d="M21.466 6.47824C21.9677 4.68672 22.2185 3.79096 21.9857 3.17628C21.7827 2.64035 21.3596 2.21724 20.8237 2.01427C20.209 1.78147 19.3133 2.03228 17.5217 2.53391L7.29584 5.39716C4.46617 6.18947 3.05133 6.58563 2.64136 7.25828C2.28678 7.84005 2.25275 8.56231 2.55106 9.17484C2.89597 9.88306 4.26729 10.4105 7.00993 11.4654L9.67255 12.4894C10.1614 12.6775 10.4058 12.7715 10.6114 12.9176C10.7936 13.0472 10.9528 13.2064 11.0823 13.3886C11.2285 13.5942 11.3225 13.8386 11.5105 14.3275L12.5345 16.9899C13.5893 19.7326 14.1168 21.1039 14.825 21.4489C15.4375 21.7472 16.1598 21.7132 16.7415 21.3586C17.4142 20.9486 17.8104 19.5338 18.6027 16.7041L21.466 6.47824Z" fill="#22272F"/>
<path fill-rule="evenodd" clip-rule="evenodd" d="M17.724 3.25612C18.634 3.00131 19.2666 2.82497 19.7495 2.73635C20.2373 2.64681 20.4473 2.67368 20.5581 2.71564C20.8931 2.8425 21.1575 3.10694 21.2844 3.4419C21.3263 3.55269 21.3532 3.76268 21.2636 4.25053C21.175 4.73336 20.9987 5.36596 20.7438 6.276L17.8805 16.5018C17.4805 17.9304 17.1929 18.955 16.9243 19.6773C16.6396 20.4427 16.4439 20.6617 16.3513 20.7181C15.9876 20.9398 15.5362 20.961 15.1534 20.7746C15.0559 20.7271 14.8404 20.5275 14.485 19.7922C14.1497 19.0984 13.7671 18.1054 13.2346 16.7207L12.2106 14.0582L12.1827 13.9856L12.1827 13.9856C12.068 13.6869 11.9708 13.4337 11.8509 13.2097L14.5304 10.5303C14.8232 10.2374 14.8232 9.76255 14.5304 9.46966C14.2375 9.17677 13.7626 9.17677 13.4697 9.46966L10.7903 12.1491C10.5663 12.0292 10.3131 11.932 10.0144 11.8173L9.94181 11.7894L7.27919 10.7653C5.89454 10.2328 4.90155 9.85018 4.20775 9.51484C3.47244 9.15944 3.27286 8.94395 3.22537 8.84645C3.03893 8.46362 3.0602 8.01221 3.28181 7.6486C3.33825 7.55599 3.55721 7.36023 4.32268 7.07554C5.04494 6.80692 6.06951 6.51938 7.49809 6.11938L17.724 3.25612ZM21.0894 1.31288C20.5855 1.12204 20.0403 1.15792 19.4787 1.26099C18.92 1.36353 18.2209 1.55929 17.3564 1.80135L17.3564 1.80136L17.3195 1.81168L7.09364 4.67493L7.05628 4.68539L7.05625 4.6854C5.67301 5.0727 4.58778 5.37656 3.7998 5.66963C3.04794 5.94925 2.35449 6.28789 2.00096 6.86794C1.51341 7.66788 1.46662 8.66098 1.8768 9.50322C2.17422 10.1139 2.83275 10.5163 3.55499 10.8654C4.31194 11.2312 5.36381 11.6358 6.70453 12.1514L6.74072 12.1654L9.40334 13.1894C9.92803 13.3912 10.0663 13.4503 10.1768 13.5289C10.2907 13.6098 10.3902 13.7093 10.4711 13.8232C10.5497 13.9337 10.6088 14.072 10.8105 14.5967L11.8345 17.2591L11.8485 17.2954C12.3641 18.6361 12.7686 19.688 13.1345 20.4449C13.4836 21.1672 13.8859 21.8257 14.4966 22.1231C15.3388 22.5333 16.332 22.4865 17.1319 21.999C17.712 21.6455 18.0506 20.952 18.3302 20.2002C18.6233 19.4122 18.9272 18.327 19.3145 16.9437L19.325 16.9063L22.1883 6.68046L22.1986 6.64363L22.1986 6.64357C22.4407 5.77912 22.6364 5.08001 22.739 4.52133C22.8421 3.95976 22.878 3.41453 22.6871 2.91064C22.408 2.17374 21.8263 1.59196 21.0894 1.31288Z" fill="#22272F"/>
</g>
<defs>
<clipPath id="clip0_2005_8284">
<rect width="24" height="24" fill="white"/>
</clipPath>
</defs>
</svg>
