<svg width="24" height="24" viewBox="0 0 24 24" fill="none" xmlns="http://www.w3.org/2000/svg">
<g clip-path="url(#clip0_2005_8282)">
<path opacity="0.12" d="M19.2757 9.13784L9.03859 4.0193C6.04164 2.52082 4.54316 1.77158 3.76542 2.02258C3.09409 2.23924 2.58655 2.79354 2.42974 3.48131C2.24806 4.2781 3.12611 5.70492 4.8822 8.55857L5.96793 10.3229C6.34266 10.9318 6.53003 11.2363 6.60315 11.5622C6.66781 11.8505 6.66781 12.1495 6.60315 12.4378C6.53003 12.7637 6.34266 13.0682 5.96793 13.6771L4.8822 15.4414C3.12611 18.2951 2.24806 19.7219 2.42974 20.5187C2.58655 21.2065 3.09409 21.7608 3.76542 21.9774C4.54316 22.2284 6.04162 21.4792 9.03856 19.9807L9.03858 19.9807L19.2757 14.8622C21.1181 13.941 22.0393 13.4803 22.3349 12.857C22.5922 12.3146 22.5922 11.6854 22.3349 11.143C22.0393 10.5197 21.1181 10.059 19.2757 9.13784Z" fill="#22272F"/>
<path fill-rule="evenodd" clip-rule="evenodd" d="M9.374 3.34846L9.34031 3.33162C7.87027 2.59659 6.72545 2.02418 5.85164 1.66984C5.40976 1.49066 5.00534 1.35376 4.64076 1.28204C4.27957 1.211 3.89812 1.19165 3.53507 1.30882C2.61199 1.60673 1.91412 2.36889 1.6985 3.31457C1.61369 3.68652 1.66649 4.06479 1.76901 4.41835C1.87249 4.77521 2.04441 5.16603 2.26173 5.59045C2.6915 6.42972 3.36232 7.5198 4.2237 8.91953L4.24345 8.95163L5.32919 10.716C5.73229 11.371 5.83218 11.5518 5.87133 11.7264C5.91174 11.9066 5.91174 12.0934 5.87133 12.2736C5.83218 12.4481 5.73229 12.629 5.32919 13.284L4.24345 15.0483L4.22371 15.0804L4.22367 15.0805C3.3623 16.4802 2.6915 17.5703 2.26173 18.4095C2.04441 18.834 1.87249 19.2248 1.76901 19.5816C1.66649 19.9352 1.61369 20.3135 1.6985 20.6854C1.91412 21.6311 2.61199 22.3932 3.53507 22.6912C3.89812 22.8083 4.27957 22.789 4.64076 22.7179C5.00534 22.6462 5.40976 22.5093 5.85163 22.3301C6.72543 21.9758 7.87023 21.4034 9.34024 20.6684L9.37399 20.6515L19.6111 15.533L19.6459 15.5156C20.5375 15.0698 21.2535 14.7118 21.7803 14.3855C22.3042 14.0609 22.7677 13.6947 23.0126 13.1784C23.3663 12.4326 23.3663 11.5674 23.0126 10.8215C22.7677 10.3052 22.3042 9.93904 21.7803 9.61452C21.2536 9.28822 20.5376 8.93024 19.6459 8.48444L19.6111 8.467L9.374 3.34846ZM3.99577 2.73632C4.02158 2.72799 4.1191 2.70817 4.35126 2.75384C4.58004 2.79884 4.88338 2.89584 5.28796 3.0599C6.1004 3.38935 7.19248 3.93475 8.70318 4.6901L18.9403 9.80865C19.8748 10.2759 20.5289 10.6038 20.9904 10.8897C21.4616 11.1816 21.6065 11.3573 21.6573 11.4643C21.8181 11.8033 21.8181 12.1966 21.6573 12.5356C21.6065 12.6426 21.4616 12.8184 20.9904 13.1103C20.5289 13.3962 19.8748 13.724 18.9403 14.1913L8.70317 19.3099C7.19247 20.0652 6.10039 20.6106 5.28796 20.9401C4.88338 21.1041 4.58004 21.2011 4.35126 21.2461C4.1191 21.2918 4.02158 21.272 3.99577 21.2637C3.57619 21.1282 3.25898 20.7818 3.16097 20.352C3.15494 20.3255 3.14377 20.2266 3.20966 19.9994C3.2746 19.7754 3.39789 19.4818 3.59687 19.0932C3.99645 18.3129 4.63573 17.273 5.52094 15.8345L6.60667 14.0702L6.66329 13.9783C6.94753 13.5172 7.1775 13.1442 7.29605 12.75H11C11.4142 12.75 11.75 12.4142 11.75 12C11.75 11.5858 11.4142 11.25 11 11.25H7.29605C7.1775 10.8557 6.94753 10.4827 6.66329 10.0217L6.66328 10.0217L6.60667 9.9298L5.52094 8.16549C4.63573 6.72702 3.99645 5.68711 3.59687 4.90677C3.39789 4.51818 3.2746 4.22454 3.20966 4.0006C3.14377 3.77335 3.15494 3.67447 3.16097 3.64803C3.25898 3.21817 3.57619 2.87173 3.99577 2.73632Z" fill="#22272F"/>
</g>
<defs>
<clipPath id="clip0_2005_8282">
<rect width="24" height="24" fill="white"/>
</clipPath>
</defs>
</svg>
