<svg width="24" height="24" viewBox="0 0 24 24" fill="none" xmlns="http://www.w3.org/2000/svg">
<path opacity="0.12" d="M3 8.62361C3 7.34294 3 6.70261 3.24624 6.03367C3.43674 5.51613 3.87552 4.85774 4.27986 4.48271C4.80249 3.99797 5.2835 3.79737 6.24553 3.39617C7.95724 2.68233 10.0923 2 12 2C13.9077 2 16.0428 2.68233 17.7545 3.39617C18.7165 3.79737 19.1975 3.99797 19.7201 4.48271C20.1245 4.85774 20.5633 5.51613 20.7538 6.03367C21 6.70261 21 7.34294 21 8.62361V10.6972C21 13.0033 21 14.1564 20.6064 15.3643C20.3032 16.295 19.5913 17.5242 18.9349 18.2504C18.083 19.1929 17.3133 19.6344 15.774 20.5175C14.3241 21.3494 12.9018 22 12 22C11.0982 22 9.6759 21.3494 8.22597 20.5175C6.68666 19.6344 5.91701 19.1929 5.06511 18.2504C4.40874 17.5242 3.69682 16.295 3.39358 15.3643C3 14.1564 3 13.0033 3 10.6972V8.62361Z" fill="#22272F"/>
<path fill-rule="evenodd" clip-rule="evenodd" d="M6.53418 4.08839C8.21939 3.38561 10.2434 2.75 12 2.75C13.7565 2.75 15.7806 3.38561 17.4658 4.08839C18.4478 4.49793 18.8012 4.65339 19.2101 5.0326C19.5278 5.32731 19.9002 5.88605 20.0499 6.29275C20.2404 6.81017 20.25 7.30104 20.25 8.62361L20.25 10.6972C20.25 13.0412 20.2422 14.0611 19.8933 15.132C19.6227 15.9625 18.9642 17.0995 18.3785 17.7475C17.6183 18.5885 16.9529 18.9765 15.4008 19.867C14.6912 20.2741 14.0044 20.6274 13.3966 20.8769C12.7709 21.1337 12.3006 21.25 12 21.25C11.6994 21.25 11.229 21.1337 10.6033 20.8769C9.99553 20.6274 9.30878 20.2741 8.59916 19.867C7.04701 18.9765 6.38163 18.5885 5.62148 17.7475C5.03578 17.0995 4.37725 15.9625 4.10665 15.132C3.75771 14.0611 3.74997 13.0412 3.74997 10.6972L3.74997 8.62361C3.74997 7.30104 3.75958 6.81017 3.95004 6.29275C4.09975 5.88605 4.47212 5.32731 4.78986 5.0326C5.1987 4.65339 5.55215 4.49793 6.53418 4.08839ZM12 1.25C9.9412 1.25 7.69504 1.97907 5.95682 2.70396L5.89002 2.73181C4.98576 3.10873 4.39105 3.35662 3.76981 3.93283C3.27887 4.38818 2.77369 5.14621 2.54238 5.77459C2.24949 6.57025 2.24968 7.33709 2.24995 8.51252L2.24997 8.62361L2.24997 10.6972L2.24997 10.8133C2.24984 13.0097 2.24976 14.2749 2.68045 15.5967C3.01634 16.6276 3.78166 17.949 4.50869 18.7533C5.44068 19.7844 6.30466 20.28 7.79647 21.1358L7.85272 21.1681C8.59303 21.5928 9.34239 21.9807 10.0337 22.2645C10.7071 22.5409 11.3988 22.75 12 22.75C12.6012 22.75 13.2929 22.5409 13.9662 22.2645C14.6576 21.9807 15.4069 21.5928 16.1472 21.1681L16.2035 21.1358L16.2035 21.1358C17.6953 20.28 18.5593 19.7844 19.4913 18.7533C20.2183 17.9489 20.9836 16.6276 21.3195 15.5967C21.7502 14.2749 21.7501 13.0097 21.75 10.8133L21.75 10.6972L21.75 8.62361L21.75 8.51253C21.7503 7.33709 21.7504 6.57026 21.4576 5.77459C21.2263 5.14621 20.7211 4.38818 20.2301 3.93283C19.6089 3.35662 19.0142 3.10873 18.1099 2.73181L18.0431 2.70396C16.3049 1.97907 14.0587 1.25 12 1.25ZM16.0303 10.0303C16.3232 9.73744 16.3232 9.26256 16.0303 8.96967C15.7374 8.67678 15.2625 8.67678 14.9696 8.96967L11 12.9393L9.5303 11.4697C9.23741 11.1768 8.76254 11.1768 8.46964 11.4697C8.17675 11.7626 8.17675 12.2374 8.46964 12.5303L10.4696 14.5303C10.7625 14.8232 11.2374 14.8232 11.5303 14.5303L16.0303 10.0303Z" fill="#22272F"/>
</svg>
