<svg width="24" height="24" viewBox="0 0 24 24" fill="none" xmlns="http://www.w3.org/2000/svg">
<path opacity="0.12" d="M6.49167 16.0001H6C5.07003 16.0001 4.60504 16.0001 4.22354 15.8979C3.18827 15.6205 2.37962 14.8118 2.10222 13.7765C2 13.395 2 12.93 2 12.0001C2 11.0701 2 10.6051 2.10222 10.2236C2.37962 9.18834 3.18827 8.3797 4.22354 8.1023C4.60504 8.00008 5.07003 8.00008 6 8.00008H6.49167C6.91814 8.00008 7.13138 8.00008 7.32906 7.95979C7.49306 7.92636 7.65133 7.87267 7.80046 7.80054L14 14.0001V15.6918C14 17.85 14 18.9292 13.7332 19.3925C13.2061 20.308 12.0579 20.6556 11.1114 20.1863C10.6325 19.9488 10.0339 19.0509 8.83667 17.2551C8.60011 16.9002 8.48183 16.7228 8.33865 16.5807C8.06197 16.306 7.71106 16.1182 7.32906 16.0404C7.13138 16.0001 6.91814 16.0001 6.49167 16.0001Z" fill="#22272F"/>
<path fill-rule="evenodd" clip-rule="evenodd" d="M3.53038 2.46967C3.23748 2.17678 2.76261 2.17678 2.46972 2.46967C2.17682 2.76256 2.17682 3.23744 2.46972 3.53033L6.18939 7.25L6.00005 7.25L5.88425 7.24998L5.88424 7.24998C5.06628 7.24971 4.50814 7.24952 4.02948 7.37778C2.73538 7.72453 1.72458 8.73533 1.37783 10.0294C1.24957 10.5081 1.24975 11.0662 1.25002 11.8842L1.25005 12L1.25002 12.1158C1.24975 12.9338 1.24957 13.4919 1.37783 13.9706C1.72458 15.2647 2.73538 16.2755 4.02948 16.6222C4.50814 16.7505 5.06629 16.7503 5.88425 16.75L6.00005 16.75L6.49172 16.75C6.94963 16.75 7.07327 16.7536 7.17932 16.7752C7.41807 16.8238 7.63739 16.9412 7.81032 17.1129C7.88712 17.1891 7.95868 17.29 8.21268 17.671L8.22706 17.6926C8.8135 18.5723 9.27178 19.2597 9.64355 19.7551C9.99525 20.2238 10.3593 20.6504 10.7783 20.8581C12.0796 21.5035 13.6584 21.0255 14.3832 19.7666C14.6166 19.3613 14.6829 18.8045 14.7155 18.2194C14.749 17.6193 14.75 16.8234 14.75 15.8107L20.4697 21.5303C20.7626 21.8232 21.2375 21.8232 21.5304 21.5303C21.8233 21.2374 21.8233 20.7626 21.5304 20.4697L14.5304 13.4697L8.33084 7.27013L3.53038 2.46967ZM7.47889 8.6946C7.52126 8.68596 7.56336 8.67634 7.60514 8.66576L13.25 14.3107L13.25 15.6917C13.25 16.7803 13.2498 17.5644 13.2179 18.1359C13.1838 18.7458 13.1167 18.9602 13.0833 19.0182C12.7539 19.5904 12.0362 19.8076 11.4447 19.5143C11.3847 19.4846 11.21 19.3434 10.8433 18.8548C10.4998 18.397 10.0646 17.7448 9.46076 16.839L9.42531 16.7858L9.4253 16.7858C9.22347 16.4827 9.06517 16.245 8.86708 16.0483C8.48665 15.6707 8.00414 15.4125 7.47889 15.3054C7.20538 15.2497 6.9198 15.2498 6.55566 15.25L6.49172 15.25L6.00005 15.25C5.02179 15.25 4.67979 15.2436 4.4177 15.1733C3.64125 14.9653 3.03477 14.3588 2.82671 13.5823C2.75649 13.3203 2.75005 12.9783 2.75005 12C2.75005 11.0217 2.75649 10.6797 2.82671 10.4177C3.03477 9.6412 3.64125 9.03472 4.4177 8.82667C4.67979 8.75644 5.02179 8.75 6.00005 8.75L6.49172 8.75L6.55565 8.75002C6.9198 8.7502 7.20538 8.75035 7.47889 8.6946ZM14.3832 4.23335C13.6584 2.97454 12.0796 2.49651 10.7783 3.14186C10.4569 3.30122 10.1827 3.57888 9.93648 3.8731C9.67948 4.18023 9.39033 4.58409 9.05356 5.07675C8.8198 5.4187 8.90751 5.8854 9.24946 6.11916C9.59142 6.35291 10.0581 6.2652 10.2919 5.92325C10.6257 5.43485 10.8801 5.08282 11.0869 4.83572C11.3044 4.57572 11.4143 4.50079 11.4447 4.48569C12.0362 4.19235 12.7539 4.40964 13.0833 4.98183C13.1167 5.03984 13.1838 5.25423 13.2179 5.86415C13.2498 6.43562 13.25 7.21971 13.25 8.30833L13.25 10C13.25 10.4142 13.5858 10.75 14 10.75C14.4143 10.75 14.75 10.4142 14.75 10L14.75 8.30833L14.75 8.28237L14.75 8.28233C14.75 7.22514 14.7501 6.39899 14.7155 5.78056C14.6829 5.1955 14.6166 4.63866 14.3832 4.23335ZM17.3763 5.58348C17.6064 5.23902 18.0721 5.14625 18.4166 5.37629C20.4358 6.72479 21.75 9.20742 21.75 12C21.75 13.1734 21.5185 14.2891 21.1019 15.2886C20.9409 15.6748 20.7521 16.0439 20.5383 16.3923C20.3216 16.7453 19.8598 16.8559 19.5068 16.6392C19.1537 16.4225 19.0432 15.9607 19.2599 15.6077C19.4326 15.3263 19.5859 15.0267 19.7174 14.7114C20.0575 13.8955 20.25 12.976 20.25 12C20.25 9.66489 19.1511 7.67052 17.5835 6.62371C17.2391 6.39367 17.1463 5.92795 17.3763 5.58348ZM16.3763 9.58348C16.6064 9.23902 17.0721 9.14625 17.4166 9.37629C18.2402 9.92635 18.75 10.9167 18.75 12C18.75 12.457 18.6599 12.8943 18.4955 13.2886C18.3361 13.6709 17.897 13.8516 17.5147 13.6923C17.1323 13.5329 16.9516 13.0937 17.111 12.7114C17.1989 12.5006 17.25 12.2595 17.25 12C17.25 11.3741 16.9555 10.8721 16.5835 10.6237C16.2391 10.3937 16.1463 9.92795 16.3763 9.58348Z" fill="#22272F"/>
</svg>
