<svg width="24" height="24" viewBox="0 0 24 24" fill="none" xmlns="http://www.w3.org/2000/svg">
<path opacity="0.12" d="M6.49167 15.9998H6C5.07003 15.9998 4.60504 15.9998 4.22354 15.8975C3.18827 15.6201 2.37962 14.8115 2.10222 13.7762C2 13.3947 2 12.9297 2 11.9998C2 11.0698 2 10.6048 2.10222 10.2233C2.37962 9.18802 3.18827 8.37938 4.22354 8.10198C4.60504 7.99976 5.07003 7.99976 6 7.99976H6.49167C6.91814 7.99976 7.13138 7.99976 7.32906 7.95947C7.71106 7.88161 8.06197 7.6938 8.33865 7.41915C8.48183 7.27702 8.60011 7.0996 8.83667 6.74475C10.0339 4.94896 10.6325 4.05106 11.1114 3.81353C12.0579 3.34419 13.2061 3.69185 13.7332 4.60735C14 5.07067 14 6.14981 14 8.30808V15.6914C14 17.8497 14 18.9288 13.7332 19.3922C13.2061 20.3077 12.0579 20.6553 11.1114 20.186C10.6325 19.9485 10.0339 19.0506 8.83667 17.2548C8.60011 16.8999 8.48183 16.7225 8.33865 16.5804C8.06197 16.3057 7.71106 16.1179 7.32906 16.04C7.13138 15.9998 6.91814 15.9998 6.49167 15.9998Z" fill="#22272F"/>
<path fill-rule="evenodd" clip-rule="evenodd" d="M14.3832 4.23347C13.6584 2.97466 12.0796 2.49663 10.7783 3.14198C10.3593 3.34976 9.99525 3.77632 9.64355 4.245C9.27178 4.74043 8.81351 5.42784 8.22707 6.3075L8.21268 6.32909C7.95868 6.71009 7.88712 6.81099 7.81032 6.88724C7.63739 7.0589 7.41807 7.17628 7.17932 7.22494C7.07327 7.24655 6.94963 7.25012 6.49172 7.25012L6.00005 7.25012L5.88425 7.2501C5.06629 7.24983 4.50814 7.24964 4.02948 7.3779C2.73538 7.72465 1.72458 8.73545 1.37783 10.0295C1.24957 10.5082 1.24975 11.0664 1.25002 11.8843L1.25005 12.0001L1.25002 12.1159C1.24975 12.9339 1.24957 13.492 1.37783 13.9707C1.72458 15.2648 2.73538 16.2756 4.02948 16.6223C4.50813 16.7506 5.06627 16.7504 5.88421 16.7501L5.88426 16.7501L6.00005 16.7501L6.49172 16.7501C6.94963 16.7501 7.07327 16.7537 7.17932 16.7753C7.41807 16.824 7.63739 16.9413 7.81032 17.113C7.88712 17.1892 7.95868 17.2901 8.21268 17.6711L8.2271 17.6928C8.81352 18.5724 9.27179 19.2598 9.64355 19.7552C9.99525 20.2239 10.3593 20.6505 10.7783 20.8583C12.0796 21.5036 13.6584 21.0256 14.3832 19.7668C14.6166 19.3615 14.6829 18.8046 14.7155 18.2196C14.7501 17.6011 14.7501 16.775 14.75 15.7178L14.75 15.7178L14.75 15.6918L14.75 8.30844L14.75 8.28249L14.75 8.28245C14.75 7.22526 14.7501 6.39911 14.7155 5.78068C14.6829 5.19562 14.6166 4.63878 14.3832 4.23347ZM11.4447 4.48581C12.0362 4.19247 12.7539 4.40976 13.0833 4.98195C13.1167 5.03996 13.1838 5.25435 13.2179 5.86426C13.2498 6.43574 13.25 7.21983 13.25 8.30844L13.25 15.6918C13.25 16.7804 13.2498 17.5645 13.2179 18.136C13.1838 18.7459 13.1167 18.9603 13.0833 19.0183C12.7539 19.5905 12.0362 19.8078 11.4447 19.5144C11.3847 19.4847 11.21 19.3435 10.8433 18.8549C10.4998 18.3971 10.0646 17.7449 9.46075 16.8391L9.42532 16.7859C9.22347 16.4828 9.06518 16.2451 8.86708 16.0485C8.48665 15.6708 8.00414 15.4126 7.47889 15.3055C7.20538 15.2498 6.91981 15.2499 6.55566 15.2501L6.55564 15.2501L6.49172 15.2501L6.00005 15.2501C5.02179 15.2501 4.67979 15.2437 4.41771 15.1735C3.64125 14.9654 3.03477 14.3589 2.82671 13.5825C2.75649 13.3204 2.75005 12.9784 2.75005 12.0001C2.75005 11.0219 2.75649 10.6799 2.82671 10.4178C3.03477 9.64132 3.64125 9.03484 4.4177 8.82679C4.67979 8.75656 5.02179 8.75012 6.00005 8.75012L6.49172 8.75012L6.55566 8.75014L6.55566 8.75014C6.9198 8.75032 7.20538 8.75047 7.47889 8.69472C8.00414 8.58767 8.48665 8.32943 8.86708 7.95178C9.06517 7.75514 9.22346 7.51744 9.4253 7.21436L9.46075 7.16114C10.0646 6.25536 10.4998 5.60312 10.8433 5.14531C11.21 4.65672 11.3847 4.51556 11.4447 4.48581ZM17.3763 5.5836C17.6064 5.23914 18.0721 5.14637 18.4166 5.37641C20.4359 6.72491 21.75 9.20754 21.75 12.0001C21.75 14.7927 20.4359 17.2753 18.4166 18.6238C18.0721 18.8539 17.6064 18.7611 17.3763 18.4166C17.1463 18.0722 17.2391 17.6064 17.5835 17.3764C19.1511 16.3296 20.25 14.3352 20.25 12.0001C20.25 9.66501 19.1511 7.67064 17.5835 6.62383C17.2391 6.39379 17.1463 5.92807 17.3763 5.5836ZM16.3763 9.5836C16.6064 9.23914 17.0721 9.14638 17.4166 9.37641C18.2402 9.92647 18.75 10.9168 18.75 12.0001C18.75 13.0835 18.2402 14.0738 17.4166 14.6238C17.0721 14.8539 16.6064 14.7611 16.3763 14.4166C16.1463 14.0722 16.2391 13.6064 16.5835 13.3764C16.9555 13.128 17.25 12.626 17.25 12.0001C17.25 11.3742 16.9555 10.8722 16.5835 10.6238C16.2391 10.3938 16.1463 9.92807 16.3763 9.5836Z" fill="#22272F"/>
</svg>
