<svg width="24" height="24" viewBox="0 0 24 24" fill="none" xmlns="http://www.w3.org/2000/svg">
<path opacity="0.12" d="M5.01995 9.46438L4.66894 10.0912C2.47606 14.007 1.37961 15.965 1.56302 17.5683C1.72303 18.967 2.46536 20.2335 3.60763 21.0566C4.91688 22 7.16092 22 11.649 22H12.351C16.8391 22 19.0831 22 20.3924 21.0566C21.5346 20.2335 22.277 18.967 22.437 17.5683C22.6204 15.965 21.5239 14.007 19.3311 10.0912L19.3311 10.0912L18.98 9.46437C16.6988 5.39063 15.5581 3.35377 14.0576 2.67625C12.7495 2.08558 11.2505 2.08558 9.94239 2.67625C8.44189 3.35377 7.30124 5.39064 5.01995 9.46438Z" fill="#22272F"/>
<path fill-rule="evenodd" clip-rule="evenodd" d="M13.7489 3.3598C12.637 2.85773 11.3629 2.85773 10.251 3.3598C9.69284 3.61181 9.12887 4.14902 8.39209 5.22143C7.65832 6.28945 6.82218 7.78101 5.67428 9.83083L5.32327 10.4576C4.21962 12.4284 3.41792 13.8616 2.90994 15.0021C2.40064 16.1455 2.23966 16.8846 2.30811 17.483C2.44412 18.672 3.0751 19.7485 4.04603 20.4481C4.53469 20.8002 5.25819 21.0209 6.50471 21.1352C7.748 21.2492 9.39015 21.25 11.6489 21.25H12.351C14.6098 21.25 16.2519 21.2492 17.4952 21.1352C18.7417 21.0209 19.4652 20.8002 19.9539 20.4481C20.9248 19.7485 21.5558 18.672 21.6918 17.483C21.7602 16.8846 21.5993 16.1455 21.09 15.0021C20.582 13.8616 19.7803 12.4284 18.6766 10.4576L18.3256 9.83082C17.1777 7.781 16.3416 6.28944 15.6078 5.22143C14.871 4.14902 14.3071 3.61181 13.7489 3.3598ZM9.6337 1.9927C11.1381 1.31343 12.8618 1.31343 14.3662 1.9927C15.3086 2.4182 16.0652 3.23819 16.8441 4.37202C17.6215 5.5035 18.4906 7.05545 19.6142 9.06194L19.6143 9.062L19.6344 9.09791L19.9854 9.72471L20.0053 9.76027C21.0849 11.6881 21.9209 13.181 22.4602 14.3918C23.0015 15.6071 23.297 16.6486 23.1821 17.6535C22.9981 19.2621 22.1444 20.7186 20.8308 21.6651C20.0102 22.2564 18.957 22.5074 17.6322 22.6289C16.3123 22.75 14.6013 22.75 12.3919 22.75H12.3918H12.351H11.6489H11.6081H11.608C9.39856 22.75 7.68763 22.75 6.3677 22.6289C5.04288 22.5074 3.98973 22.2564 3.16913 21.6651C1.85552 20.7186 1.00184 19.2621 0.817828 17.6535C0.702877 16.6486 0.998415 15.6071 1.53971 14.3918C2.07901 13.181 2.91499 11.6882 3.99457 9.76033L4.01452 9.72472L4.36552 9.09792L4.38563 9.06201L4.38566 9.06196L4.38568 9.06192C5.50931 7.05544 6.37839 5.5035 7.15575 4.37202C7.93474 3.23819 8.69135 2.4182 9.6337 1.9927ZM12 8.25C12.4142 8.25 12.75 8.58578 12.75 9V13C12.75 13.4142 12.4142 13.75 12 13.75C11.5857 13.75 11.25 13.4142 11.25 13V9C11.25 8.58578 11.5857 8.25 12 8.25ZM12 17C12.5522 17 13 16.5523 13 16C13 15.4477 12.5522 15 12 15C11.4477 15 11 15.4477 11 16C11 16.5523 11.4477 17 12 17Z" fill="#22272F"/>
</svg>
