<svg width="24" height="24" viewBox="0 0 24 24" fill="none" xmlns="http://www.w3.org/2000/svg">
<path opacity="0.12" d="M2 10.651C2 9.6726 2 9.18342 2.11052 8.72307C2.20851 8.31493 2.37012 7.92475 2.58944 7.56686C2.83681 7.16319 3.18271 6.81729 3.87452 6.12548L6.12548 3.87452C6.81729 3.18271 7.16319 2.83681 7.56686 2.58944C7.92475 2.37012 8.31493 2.20851 8.72307 2.11052C9.18342 2 9.6726 2 10.651 2H13.349C14.3274 2 14.8166 2 15.2769 2.11052C15.6851 2.20851 16.0753 2.37012 16.4331 2.58944C16.8368 2.83681 17.1827 3.18271 17.8745 3.87452L20.1255 6.12548C20.8173 6.81729 21.1632 7.16319 21.4106 7.56686C21.6299 7.92475 21.7915 8.31493 21.8895 8.72307C22 9.18342 22 9.6726 22 10.651V13.349C22 14.3274 22 14.8166 21.8895 15.2769C21.7915 15.6851 21.6299 16.0753 21.4106 16.4331C21.1632 16.8368 20.8173 17.1827 20.1255 17.8745L17.8745 20.1255C17.1827 20.8173 16.8368 21.1632 16.4331 21.4106C16.0753 21.6299 15.6851 21.7915 15.2769 21.8895C14.8166 22 14.3274 22 13.349 22H10.651C9.6726 22 9.18342 22 8.72307 21.8895C8.31493 21.7915 7.92475 21.6299 7.56686 21.4106C7.16319 21.1632 6.81729 20.8173 6.12548 20.1255L3.87452 17.8745C3.18271 17.1827 2.83681 16.8368 2.58944 16.4331C2.37012 16.0753 2.20851 15.6851 2.11052 15.2769C2 14.8166 2 14.3274 2 13.349V10.651Z" fill="#22272F"/>
<path fill-rule="evenodd" clip-rule="evenodd" d="M10.651 1.24996L10.5575 1.24995C9.6686 1.2498 9.09578 1.2497 8.54801 1.3812C8.06334 1.49756 7.6 1.68948 7.17501 1.94992C6.69469 2.24426 6.28971 2.64938 5.6613 3.278L5.59517 3.34415L3.34421 5.59511L3.27806 5.66124L3.27806 5.66125C2.64944 6.28965 2.24432 6.69463 1.94998 7.17495C1.68954 7.59994 1.49762 8.06328 1.38126 8.54795C1.24976 9.09572 1.24986 9.66854 1.25001 10.5574L1.25002 10.6509V13.349L1.25001 13.4425C1.24986 14.3314 1.24976 14.9042 1.38126 15.452C1.49762 15.9366 1.68954 16.4 1.94998 16.825C2.24432 17.3053 2.64944 17.7103 3.27806 18.3387L3.34421 18.4048L5.59517 20.6558L5.6613 20.7219C6.28971 21.3505 6.69469 21.7557 7.17501 22.05C7.6 22.3104 8.06334 22.5024 8.54801 22.6187C9.09578 22.7502 9.6686 22.7501 10.5575 22.75L10.651 22.75H13.3491L13.4426 22.75C14.3314 22.7501 14.9043 22.7502 15.452 22.6187C15.9367 22.5024 16.4 22.3104 16.825 22.05C17.3053 21.7557 17.7103 21.3505 18.3387 20.7219L18.4049 20.6558L20.6558 18.4048L20.722 18.3387C21.3506 17.7103 21.7557 17.3053 22.0501 16.825C22.3105 16.4 22.5024 15.9366 22.6188 15.452C22.7503 14.9042 22.7502 14.3314 22.75 13.4425L22.75 13.349V10.6509L22.75 10.5574C22.7502 9.66854 22.7503 9.09572 22.6188 8.54795C22.5024 8.06328 22.3105 7.59994 22.0501 7.17495C21.7557 6.69463 21.3506 6.28966 20.722 5.66126L20.6558 5.59511L18.4049 3.34415L18.3387 3.278C17.7103 2.64938 17.3054 2.24426 16.825 1.94992C16.4 1.68948 15.9367 1.49756 15.452 1.3812C14.9043 1.2497 14.3314 1.2498 13.4426 1.24995L13.3491 1.24996H10.651ZM8.89818 2.83976C9.25214 2.75478 9.63693 2.74996 10.651 2.74996H13.3491C14.3631 2.74996 14.7479 2.75478 15.1019 2.83976C15.4335 2.91937 15.7505 3.05069 16.0413 3.22888C16.3517 3.41908 16.6272 3.68776 17.3442 4.40481L19.5952 6.65577C20.3122 7.37282 20.5809 7.64832 20.7711 7.95869C20.9493 8.24948 21.0806 8.5665 21.1602 8.89812C21.2452 9.25207 21.25 9.63687 21.25 10.6509V13.349C21.25 14.3631 21.2452 14.7478 21.1602 15.1018C21.0806 15.4334 20.9493 15.7504 20.7711 16.0412C20.5809 16.3516 20.3122 16.6271 19.5952 17.3441L17.3442 19.5951C16.6272 20.3122 16.3517 20.5808 16.0413 20.771C15.7505 20.9492 15.4335 21.0805 15.1019 21.1602C14.7479 21.2451 14.3631 21.25 13.3491 21.25H10.651C9.63693 21.25 9.25214 21.2451 8.89818 21.1602C8.56656 21.0805 8.24954 20.9492 7.95876 20.771C7.64838 20.5808 7.37288 20.3122 6.65584 19.5951L4.40487 17.3441C3.68782 16.6271 3.41914 16.3516 3.22894 16.0412C3.05075 15.7504 2.91943 15.4334 2.83982 15.1018C2.75484 14.7478 2.75002 14.3631 2.75002 13.349V10.6509C2.75002 9.63687 2.75484 9.25207 2.83982 8.89812C2.91943 8.5665 3.05075 8.24948 3.22894 7.95869C3.41914 7.64832 3.68782 7.37282 4.40487 6.65577L6.65583 4.40481C7.37288 3.68776 7.64838 3.41908 7.95876 3.22888C8.24954 3.05069 8.56656 2.91937 8.89818 2.83976ZM9.53035 8.46963C9.23746 8.17674 8.76258 8.17674 8.46969 8.46963C8.1768 8.76252 8.1768 9.2374 8.46969 9.53029L10.9394 12L8.46969 14.4696C8.1768 14.7625 8.1768 15.2374 8.46969 15.5303C8.76258 15.8232 9.23746 15.8232 9.53035 15.5303L12 13.0606L14.4697 15.5303C14.7626 15.8232 15.2375 15.8232 15.5304 15.5303C15.8232 15.2374 15.8232 14.7625 15.5304 14.4696L13.0607 12L15.5304 9.53029C15.8232 9.2374 15.8232 8.76252 15.5304 8.46963C15.2375 8.17674 14.7626 8.17674 14.4697 8.46963L12 10.9393L9.53035 8.46963Z" fill="#22272F"/>
</svg>
